Cutive-Mono-Bold.ufo
<glyph name="quotedbl" format="1">
  <advance width="2048"/>
  <unicode hex="0022"/>
  <outline>
    <contour>
      <point x="1253" y="1377" type="line" smooth="yes"/>
      <point x="1249" y="1338"/>
      <point x="1214" y="1319"/>
      <point x="1189" y="1319" type="curve" smooth="yes"/>
      <point x="1163" y="1319"/>
      <point x="1127" y="1338"/>
      <point x="1123" y="1377" type="curve" smooth="yes"/>
      <point x="1069" y="1924" type="line"/>
      <point x="1069" y="1924"/>
      <point x="1068" y="1935"/>
      <point x="1068" y="1941" type="curve" smooth="yes"/>
      <point x="1068" y="2020"/>
      <point x="1126" y="2058"/>
      <point x="1184" y="2058" type="curve" smooth="yes"/>
      <point x="1245" y="2058"/>
      <point x="1306" y="2017"/>
      <point x="1306" y="1938" type="curve" smooth="yes"/>
      <point x="1306" y="1932"/>
      <point x="1305" y="1927"/>
      <point x="1305" y="1922" type="curve" smooth="yes"/>
    </contour>
    <contour>
      <point x="927" y="1377" type="line" smooth="yes"/>
      <point x="923" y="1338"/>
      <point x="888" y="1319"/>
      <point x="863" y="1319" type="curve" smooth="yes"/>
      <point x="837" y="1319"/>
      <point x="801" y="1338"/>
      <point x="797" y="1377" type="curve" smooth="yes"/>
      <point x="743" y="1924" type="line" smooth="yes"/>
      <point x="742" y="1929"/>
      <point x="742" y="1935"/>
      <point x="742" y="1941" type="curve" smooth="yes"/>
      <point x="742" y="2020"/>
      <point x="800" y="2058"/>
      <point x="858" y="2058" type="curve" smooth="yes"/>
      <point x="919" y="2058"/>
      <point x="980" y="2017"/>
      <point x="980" y="1938" type="curve" smooth="yes"/>
      <point x="980" y="1932"/>
      <point x="980" y="1927"/>
      <point x="979" y="1922" type="curve" smooth="yes"/>
    </contour>
  </outline>
</glyph>
<glyph name="dollar" format="1">
  <advance width="2048"/>
  <unicode hex="0024"/>
  <outline>
    <contour>
      <point x="900" y="1580" type="curve"/>
      <point x="900" y="997" type="line"/>
      <point x="1023" y="967" type="line"/>
      <point x="1287" y="901"/>
      <point x="1468" y="775"/>
      <point x="1468" y="458" type="curve" smooth="yes"/>
      <point x="1468" y="146"/>
      <point x="1208" y="3"/>
      <point x="900" y="-23" type="curve"/>
      <point x="900" y="-144" type="line" smooth="yes"/>
      <point x="900" y="-180"/>
      <point x="870" y="-210"/>
      <point x="834" y="-210" type="curve" smooth="yes"/>
      <point x="798" y="-210"/>
      <point x="768" y="-180"/>
      <point x="768" y="-144" type="curve" smooth="yes"/>
      <point x="768" y="-27" type="line"/>
      <point x="636" y="-24"/>
      <point x="511" y="0"/>
      <point x="392" y="45" type="curve"/>
      <point x="387" y="-1"/>
      <point x="346" y="-25"/>
      <point x="300" y="-25" type="curve" smooth="yes"/>
      <point x="252" y="-25"/>
      <point x="221" y="-6"/>
      <point x="216" y="39" type="curve" smooth="yes"/>
      <point x="159" y="535" type="line"/>
      <point x="159" y="588"/>
      <point x="191" y="614"/>
      <point x="255" y="614" type="curve" smooth="yes"/>
      <point x="295" y="614"/>
      <point x="330" y="589"/>
      <point x="335" y="549" type="curve" smooth="yes"/>
      <point x="351" y="410" type="line"/>
      <point x="374" y="227"/>
      <point x="562" y="151"/>
      <point x="768" y="150" type="curve"/>
      <point x="768" y="794" type="line"/>
      <point x="660" y="825" type="line"/>
      <point x="420" y="879"/>
      <point x="246" y="1001"/>
      <point x="246" y="1271" type="curve" smooth="yes"/>
      <point x="246" y="1545"/>
      <point x="474" y="1716"/>
      <point x="768" y="1737" type="curve"/>
      <point x="768" y="1854" type="line" smooth="yes"/>
      <point x="768" y="1890"/>
      <point x="798" y="1920"/>
      <point x="834" y="1920" type="curve" smooth="yes"/>
      <point x="870" y="1920"/>
      <point x="900" y="1890"/>
      <point x="900" y="1854" type="curve" smooth="yes"/>
      <point x="900" y="1736" type="line"/>
      <point x="1017" y="1728"/>
      <point x="1132" y="1699"/>
      <point x="1205" y="1657" type="curve"/>
      <point x="1205" y="1713"/>
      <point x="1244" y="1743"/>
      <point x="1299" y="1743" type="curve" smooth="yes"/>
      <point x="1339" y="1743"/>
      <point x="1374" y="1717"/>
      <point x="1379" y="1677" type="curve"/>
      <point x="1410" y="1309" type="line"/>
      <point x="1410" y="1251"/>
      <point x="1371" y="1227"/>
      <point x="1318" y="1227" type="curve" smooth="yes"/>
      <point x="1271" y="1227"/>
      <point x="1239" y="1246"/>
      <point x="1234" y="1290" type="curve" smooth="yes"/>
      <point x="1226" y="1372" type="line"/>
      <point x="1209" y="1513"/>
      <point x="1058" y="1572"/>
    </contour>
    <contour>
      <point x="900" y="757" type="line"/>
      <point x="900" y="157" type="line"/>
      <point x="1088" y="178"/>
      <point x="1263" y="255"/>
      <point x="1263" y="459" type="curve" smooth="yes"/>
      <point x="1263" y="640"/>
      <point x="1138" y="689"/>
      <point x="988" y="732" type="curve" smooth="yes"/>
    </contour>
    <contour>
      <point x="768" y="1030" type="line"/>
      <point x="768" y="1576" type="line"/>
      <point x="526" y="1551"/>
      <point x="467" y="1423"/>
      <point x="467" y="1287" type="curve" smooth="yes"/>
      <point x="467" y="1157"/>
      <point x="557" y="1082"/>
      <point x="736" y="1038" type="curve" smooth="yes"/>
    </contour>
  </outline>
</glyph>
<glyph name="parenright" format="1">
  <advance width="2048"/>
  <unicode hex="0029"/>
  <outline>
    <contour>
      <point x="76" y="1985" type="curve" smooth="yes"/>
      <point x="76" y="2039"/>
      <point x="127" y="2079"/>
      <point x="181" y="2079" type="curve" smooth="yes"/>
      <point x="203" y="2079"/>
      <point x="232" y="2064"/>
      <point x="267" y="2033" type="curve" smooth="yes"/>
      <point x="542" y="1795"/>
      <point x="709" y="1280"/>
      <point x="709" y="776" type="curve" smooth="yes"/>
      <point x="709" y="313"/>
      <point x="567" y="-74"/>
      <point x="378" y="-349" type="curve" smooth="yes"/>
      <point x="332" y="-415"/>
      <point x="258" y="-526"/>
      <point x="181" y="-526" type="curve" smooth="yes"/>
      <point x="127" y="-526"/>
      <point x="76" y="-486"/>
      <point x="76" y="-432" type="curve" smooth="yes"/>
      <point x="76" y="-409"/>
      <point x="86" y="-385"/>
      <point x="105" y="-362" type="curve" smooth="yes"/>
      <point x="325" y="-107"/>
      <point x="486" y="309"/>
      <point x="486" y="776" type="curve" smooth="yes"/>
      <point x="486" y="1244"/>
      <point x="324" y="1660"/>
      <point x="105" y="1915" type="curve" smooth="yes"/>
      <point x="86" y="1938"/>
      <point x="76" y="1962"/>
    </contour>
  </outline>
</glyph>
<glyph name="plus" format="1">
  <advance width="2048"/>
  <unicode hex="002B"/>
  <outline>
    <contour>
      <point x="1477.5" y="787" type="line" smooth="yes"/>
      <point x="1518.5" y="787"/>
      <point x="1551.5" y="754"/>
      <point x="1551.5" y="714" type="curve" smooth="yes"/>
      <point x="1551.5" y="673"/>
      <point x="1518.5" y="640"/>
      <point x="1477.5" y="640" type="curve" smooth="yes"/>
      <point x="1103.5" y="640" type="line"/>
      <point x="1103.5" y="257" type="line" smooth="yes"/>
      <point x="1103.5" y="213"/>
      <point x="1068.5" y="178"/>
      <point x="1024.5" y="178" type="curve" smooth="yes"/>
      <point x="980.5" y="178"/>
      <point x="945.5" y="213"/>
      <point x="945.5" y="257" type="curve" smooth="yes"/>
      <point x="945.5" y="640" type="line"/>
      <point x="569.5" y="640" type="line" smooth="yes"/>
      <point x="528.5" y="640"/>
      <point x="496.5" y="673"/>
      <point x="496.5" y="714" type="curve" smooth="yes"/>
      <point x="496.5" y="754"/>
      <point x="528.5" y="787"/>
      <point x="569.5" y="787" type="curve" smooth="yes"/>
      <point x="945.5" y="787" type="line"/>
      <point x="945.5" y="1177" type="line" smooth="yes"/>
      <point x="945.5" y="1221"/>
      <point x="980.5" y="1256"/>
      <point x="1024.5" y="1256" type="curve" smooth="yes"/>
      <point x="1068.5" y="1256"/>
      <point x="1103.5" y="1221"/>
      <point x="1103.5" y="1177" type="curve" smooth="yes"/>
      <point x="1103.5" y="787" type="line"/>
    </contour>
  </outline>
</glyph>
<glyph name="comma" format="1">
  <advance width="2048"/>
  <unicode hex="002C"/>
  <outline>
    <contour>
      <point x="1017" y="280" type="curve" smooth="yes"/>
      <point x="1127" y="280"/>
      <point x="1222" y="206"/>
      <point x="1222" y="58" type="curve" smooth="yes"/>
      <point x="1222" y="-153"/>
      <point x="1099" y="-287"/>
      <point x="948" y="-363" type="curve" smooth="yes"/>
      <point x="932" y="-372"/>
      <point x="915" y="-376"/>
      <point x="901" y="-376" type="curve" smooth="yes"/>
      <point x="858" y="-376"/>
      <point x="826" y="-343"/>
      <point x="826" y="-308" type="curve" smooth="yes"/>
      <point x="826" y="-290"/>
      <point x="835" y="-271"/>
      <point x="857" y="-256" type="curve" smooth="yes"/>
      <point x="934" y="-205"/>
      <point x="1035" y="-139"/>
      <point x="1035" y="-25" type="curve"/>
      <point x="927" y="-25"/>
      <point x="847" y="23"/>
      <point x="847" y="125" type="curve" smooth="yes"/>
      <point x="847" y="228"/>
      <point x="929" y="280"/>
    </contour>
  </outline>
</glyph>
<glyph name="period" format="1">
  <advance width="2048"/>
  <unicode hex="002E"/>
  <outline>
    <contour>
      <point x="1024" y="-127" type="curve" smooth="yes"/>
      <point x="902" y="-127"/>
      <point x="813" y="-37"/>
      <point x="813" y="84" type="curve" smooth="yes"/>
      <point x="813" y="206"/>
      <point x="903" y="295"/>
      <point x="1024" y="295" type="curve" smooth="yes"/>
      <point x="1146" y="295"/>
      <point x="1235" y="205"/>
      <point x="1235" y="84" type="curve" smooth="yes"/>
      <point x="1235" y="-38"/>
      <point x="1145" y="-127"/>
    </contour>
  </outline>
</glyph>
<glyph name="zero" format="1">
  <advance width="2048"/>
  <unicode hex="0030"/>
  <outline>
    <contour>
      <point x="433" y="856" type="curve" smooth="yes"/>
      <point x="433" y="1290"/>
      <point x="583" y="1739"/>
      <point x="1024" y="1739" type="curve" smooth="yes"/>
      <point x="1465" y="1739"/>
      <point x="1615" y="1289"/>
      <point x="1615" y="856" type="curve" smooth="yes"/>
      <point x="1615" y="422"/>
      <point x="1465" y="-25"/>
      <point x="1024" y="-25" type="curve" smooth="yes"/>
      <point x="583" y="-25"/>
      <point x="433" y="422"/>
    </contour>
    <contour>
      <point x="648" y="856" type="curve" smooth="yes"/>
      <point x="648" y="554"/>
      <point x="720" y="141"/>
      <point x="1024" y="141" type="curve" smooth="yes"/>
      <point x="1326" y="141"/>
      <point x="1400" y="561"/>
      <point x="1400" y="856" type="curve" smooth="yes"/>
      <point x="1400" y="1153"/>
      <point x="1322" y="1569"/>
      <point x="1024" y="1569" type="curve" smooth="yes"/>
      <point x="727" y="1569"/>
      <point x="648" y="1146"/>
    </contour>
  </outline>
</glyph>
<glyph name="one" format="1">
  <advance width="2048"/>
  <unicode hex="0031"/>
  <outline>
    <contour>
      <point x="159" y="84" type="curve" smooth="yes"/>
      <point x="159" y="131"/>
      <point x="182" y="170"/>
      <point x="232" y="170" type="curve" smooth="yes"/>
      <point x="471" y="170" type="line"/>
      <point x="471" y="1527" type="line"/>
      <point x="307" y="1514" type="line"/>
      <point x="254" y="1514"/>
      <point x="225" y="1551"/>
      <point x="225" y="1602" type="curve" smooth="yes"/>
      <point x="225" y="1647"/>
      <point x="249" y="1684"/>
      <point x="290" y="1687" type="curve" smooth="yes"/>
      <point x="620" y="1716" type="line"/>
      <point x="666" y="1716"/>
      <point x="686" y="1706"/>
      <point x="686" y="1651" type="curve" smooth="yes"/>
      <point x="686" y="170" type="line"/>
      <point x="860" y="170" type="line" smooth="yes"/>
      <point x="909" y="170"/>
      <point x="931" y="130"/>
      <point x="931" y="81" type="curve" smooth="yes"/>
      <point x="931" y="40"/>
      <point x="903" y="0"/>
      <point x="858" y="0" type="curve" smooth="yes"/>
      <point x="237" y="0" type="line" smooth="yes"/>
      <point x="182" y="0"/>
      <point x="159" y="35"/>
    </contour>
  </outline>
</glyph>
<glyph name="five" format="1">
  <advance width="2048"/>
  <unicode hex="0035"/>
  <outline>
    <contour>
      <point x="1042" y="1746" type="curve" smooth="yes"/>
      <point x="1042" y="1660"/>
      <point x="1011" y="1516"/>
      <point x="930" y="1516" type="curve" smooth="yes"/>
      <point x="441" y="1516" type="line" smooth="yes"/>
      <point x="392" y="1516"/>
      <point x="373" y="1447"/>
      <point x="371" y="1416" type="curve" smooth="yes"/>
      <point x="345" y="949" type="line"/>
      <point x="401" y="1019"/>
      <point x="526" y="1071"/>
      <point x="643" y="1071" type="curve" smooth="yes"/>
      <point x="957" y="1071"/>
      <point x="1155" y="893"/>
      <point x="1155" y="580" type="curve" smooth="yes"/>
      <point x="1155" y="183"/>
      <point x="823" y="-78"/>
      <point x="426" y="-78" type="curve" smooth="yes"/>
      <point x="285" y="-78"/>
      <point x="88" y="-50"/>
      <point x="88" y="90" type="curve" smooth="yes"/>
      <point x="88" y="152"/>
      <point x="125" y="205"/>
      <point x="188" y="205" type="curve" smooth="yes"/>
      <point x="325" y="205"/>
      <point x="399" y="117"/>
      <point x="539" y="117" type="curve" smooth="yes"/>
      <point x="754" y="117"/>
      <point x="938" y="269"/>
      <point x="938" y="535" type="curve" smooth="yes"/>
      <point x="938" y="709"/>
      <point x="855" y="848"/>
      <point x="605" y="848" type="curve" smooth="yes"/>
      <point x="414" y="848"/>
      <point x="348" y="729"/>
      <point x="242" y="729" type="curve" smooth="yes"/>
      <point x="220" y="729"/>
      <point x="197" y="734"/>
      <point x="170" y="746" type="curve"/>
      <point x="229" y="1626" type="line"/>
      <point x="229" y="1713"/>
      <point x="332" y="1714"/>
      <point x="428" y="1714" type="curve" smooth="yes"/>
      <point x="872" y="1712" type="line"/>
      <point x="897" y="1769"/>
      <point x="942" y="1801"/>
      <point x="977" y="1801" type="curve" smooth="yes"/>
      <point x="1013" y="1801"/>
      <point x="1042" y="1784"/>
    </contour>
  </outline>
</glyph>
<glyph name="eight" format="1">
  <advance width="2048"/>
  <unicode hex="0038"/>
  <outline>
    <contour>
      <point x="993" y="1737" type="curve" smooth="yes"/>
      <point x="1261" y="1737"/>
      <point x="1511" y="1600"/>
      <point x="1511" y="1337" type="curve" smooth="yes"/>
      <point x="1511" y="1107"/>
      <point x="1349" y="978"/>
      <point x="1195" y="901" type="curve"/>
      <point x="1385" y="800"/>
      <point x="1582" y="703"/>
      <point x="1582" y="418" type="curve" smooth="yes"/>
      <point x="1582" y="110"/>
      <point x="1334" y="-25"/>
      <point x="1027" y="-25" type="curve" smooth="yes"/>
      <point x="703" y="-25"/>
      <point x="466" y="119"/>
      <point x="466" y="442" type="curve" smooth="yes"/>
      <point x="466" y="677"/>
      <point x="617" y="805"/>
      <point x="773" y="883" type="curve"/>
      <point x="613" y="981"/>
      <point x="503" y="1084"/>
      <point x="503" y="1313" type="curve" smooth="yes"/>
      <point x="503" y="1578"/>
      <point x="721" y="1737"/>
    </contour>
    <contour>
      <point x="1034" y="145" type="curve" smooth="yes"/>
      <point x="1225" y="145"/>
      <point x="1378" y="236"/>
      <point x="1378" y="418" type="curve" smooth="yes"/>
      <point x="1378" y="673"/>
      <point x="1081" y="713"/>
      <point x="915" y="805" type="curve"/>
      <point x="778" y="727"/>
      <point x="667" y="616"/>
      <point x="667" y="430" type="curve" smooth="yes"/>
      <point x="667" y="231"/>
      <point x="835" y="145"/>
    </contour>
    <contour>
      <point x="1005" y="1581" type="curve" smooth="yes"/>
      <point x="837" y="1581"/>
      <point x="702" y="1492"/>
      <point x="702" y="1327" type="curve" smooth="yes"/>
      <point x="702" y="1126"/>
      <point x="913" y="1039"/>
      <point x="1054" y="973" type="curve"/>
      <point x="1196" y="1042"/>
      <point x="1306" y="1146"/>
      <point x="1306" y="1325" type="curve" smooth="yes"/>
      <point x="1306" y="1499"/>
      <point x="1175" y="1581"/>
    </contour>
  </outline>
</glyph>
<glyph name="nine" format="1">
  <advance width="2048"/>
  <unicode hex="0039"/>
  <outline>
    <contour>
      <point x="124" y="1192" type="curve" smooth="yes"/>
      <point x="124" y="1525"/>
      <point x="340" y="1739"/>
      <point x="671" y="1739" type="curve" smooth="yes"/>
      <point x="1062" y="1739"/>
      <point x="1242" y="1481"/>
      <point x="1242" y="1092" type="curve" smooth="yes"/>
      <point x="1242" y="536"/>
      <point x="950" y="193"/>
      <point x="655" y="-102" type="curve" smooth="yes"/>
      <point x="635" y="-122"/>
      <point x="602" y="-145"/>
      <point x="562" y="-145" type="curve" smooth="yes"/>
      <point x="497" y="-145"/>
      <point x="458" y="-108"/>
      <point x="458" y="-43" type="curve" smooth="yes"/>
      <point x="458" y="57"/>
      <point x="585" y="132"/>
      <point x="646" y="195" type="curve" smooth="yes"/>
      <point x="788" y="343"/>
      <point x="947" y="524"/>
      <point x="988" y="770" type="curve"/>
      <point x="902" y="710"/>
      <point x="791" y="659"/>
      <point x="651" y="659" type="curve" smooth="yes"/>
      <point x="333" y="659"/>
      <point x="124" y="872"/>
    </contour>
    <contour>
      <point x="671" y="1587" type="curve" smooth="yes"/>
      <point x="446" y="1587"/>
      <point x="321" y="1424"/>
      <point x="321" y="1196" type="curve" smooth="yes"/>
      <point x="321" y="972"/>
      <point x="451" y="825"/>
      <point x="671" y="825" type="curve" smooth="yes"/>
      <point x="891" y="825"/>
      <point x="1021" y="974"/>
      <point x="1021" y="1196" type="curve" smooth="yes"/>
      <point x="1021" y="1425"/>
      <point x="895" y="1587"/>
    </contour>
  </outline>
</glyph>
<glyph name="colon" format="1">
  <advance width="2048"/>
  <unicode hex="003A"/>
  <outline>
    <contour>
      <point x="1024" y="-70" type="curve" smooth="yes"/>
      <point x="899" y="-70"/>
      <point x="809" y="21"/>
      <point x="809" y="145" type="curve" smooth="yes"/>
      <point x="809" y="269"/>
      <point x="901" y="360"/>
      <point x="1024" y="360" type="curve" smooth="yes"/>
      <point x="1147" y="360"/>
      <point x="1239" y="267"/>
      <point x="1239" y="145" type="curve" smooth="yes"/>
      <point x="1239" y="21"/>
      <point x="1147" y="-70"/>
    </contour>
    <contour>
      <point x="1024" y="760" type="curve" smooth="yes"/>
      <point x="899" y="760"/>
      <point x="809" y="851"/>
      <point x="809" y="975" type="curve" smooth="yes"/>
      <point x="809" y="1099"/>
      <point x="901" y="1190"/>
      <point x="1024" y="1190" type="curve" smooth="yes"/>
      <point x="1147" y="1190"/>
      <point x="1239" y="1097"/>
      <point x="1239" y="975" type="curve" smooth="yes"/>
      <point x="1239" y="851"/>
      <point x="1147" y="760"/>
    </contour>
  </outline>
</glyph>
<glyph name="question" format="1">
  <advance width="2048"/>
  <unicode hex="003F"/>
  <outline>
    <contour>
      <point x="745" y="160" type="curve" smooth="yes"/>
      <point x="745" y="52"/>
      <point x="655" y="-24"/>
      <point x="547" y="-24" type="curve" smooth="yes"/>
      <point x="452" y="-24"/>
      <point x="401" y="64"/>
      <point x="401" y="158" type="curve" smooth="yes"/>
      <point x="401" y="258"/>
      <point x="475" y="343"/>
      <point x="575" y="343" type="curve" smooth="yes"/>
      <point x="671" y="343"/>
      <point x="745" y="255"/>
    </contour>
    <contour>
      <point x="584" y="479" type="curve" smooth="yes"/>
      <point x="471" y="479"/>
      <point x="465" y="561"/>
      <point x="465" y="663" type="curve" smooth="yes"/>
      <point x="465" y="676" type="line" smooth="yes"/>
      <point x="465" y="988"/>
      <point x="897" y="957"/>
      <point x="897" y="1279" type="curve" smooth="yes"/>
      <point x="897" y="1443"/>
      <point x="801" y="1582"/>
      <point x="626" y="1582" type="curve" smooth="yes"/>
      <point x="570" y="1582"/>
      <point x="507" y="1568"/>
      <point x="436" y="1536" type="curve"/>
      <point x="425" y="1380"/>
      <point x="427" y="1236"/>
      <point x="268" y="1236" type="curve" smooth="yes"/>
      <point x="185" y="1236"/>
      <point x="129" y="1307"/>
      <point x="129" y="1389" type="curve" smooth="yes"/>
      <point x="129" y="1626"/>
      <point x="381" y="1739"/>
      <point x="618" y="1739" type="curve" smooth="yes"/>
      <point x="910" y="1739"/>
      <point x="1145" y="1551"/>
      <point x="1145" y="1250" type="curve" smooth="yes"/>
      <point x="1145" y="898"/>
      <point x="679" y="889"/>
      <point x="679" y="640" type="curve" smooth="yes"/>
      <point x="679" y="548"/>
      <point x="657" y="479"/>
    </contour>
  </outline>
</glyph>
<glyph name="C" format="1">
  <advance width="2048"/>
  <unicode hex="0043"/>
  <outline>
    <contour>
      <point x="1710" y="571" type="curve" smooth="yes"/>
      <point x="1710" y="249"/>
      <point x="1422" y="-25"/>
      <point x="973" y="-25" type="curve" smooth="yes"/>
      <point x="468" y="-25"/>
      <point x="93" y="330"/>
      <point x="93" y="889" type="curve" smooth="yes"/>
      <point x="93" y="1399"/>
      <point x="475" y="1739"/>
      <point x="992" y="1739" type="curve" smooth="yes"/>
      <point x="1210" y="1739"/>
      <point x="1359" y="1661"/>
      <point x="1479" y="1538" type="curve"/>
      <point x="1479" y="1642" type="line" smooth="yes"/>
      <point x="1479" y="1693"/>
      <point x="1521" y="1714"/>
      <point x="1571" y="1714" type="curve" smooth="yes"/>
      <point x="1615" y="1714"/>
      <point x="1655" y="1687"/>
      <point x="1655" y="1640" type="curve" smooth="yes"/>
      <point x="1655" y="1266" type="line" smooth="yes"/>
      <point x="1655" y="1219"/>
      <point x="1615" y="1192"/>
      <point x="1571" y="1192" type="curve" smooth="yes"/>
      <point x="1526" y="1192"/>
      <point x="1511" y="1236"/>
      <point x="1487" y="1270" type="curve"/>
      <point x="1389" y="1431"/>
      <point x="1243" y="1550"/>
      <point x="992" y="1550" type="curve" smooth="yes"/>
      <point x="596" y="1550"/>
      <point x="356" y="1268"/>
      <point x="356" y="878" type="curve" smooth="yes"/>
      <point x="356" y="439"/>
      <point x="585" y="171"/>
      <point x="992" y="171" type="curve" smooth="yes"/>
      <point x="1275" y="171"/>
      <point x="1452" y="336"/>
      <point x="1502" y="590" type="curve" smooth="yes"/>
      <point x="1512" y="638"/>
      <point x="1558" y="661"/>
      <point x="1604" y="661" type="curve" smooth="yes"/>
      <point x="1656" y="661"/>
      <point x="1710" y="630"/>
    </contour>
    <contour>
      <point x="1024" y="1714" type="move" name="top"/>
    </contour>
    <contour>
      <point x="1024" y="0" type="move" name="bottom"/>
    </contour>
  </outline>
</glyph>
<glyph name="E" format="1">
  <advance width="2048"/>
  <unicode hex="0045"/>
  <outline>
    <contour>
      <point x="1174" y="649" type="line"/>
      <point x="1174" y="602"/>
      <point x="1149" y="569"/>
      <point x="1104" y="569" type="curve" smooth="yes"/>
      <point x="1062" y="569"/>
      <point x="1035" y="600"/>
      <point x="1024" y="637" type="curve" smooth="yes"/>
      <point x="973" y="823" type="line"/>
      <point x="639" y="823" type="line"/>
      <point x="639" y="176" type="line"/>
      <point x="1506" y="176" type="line"/>
      <point x="1622" y="506" type="line"/>
      <point x="1641" y="548"/>
      <point x="1673" y="582"/>
      <point x="1725" y="582" type="curve" smooth="yes"/>
      <point x="1769" y="582"/>
      <point x="1798" y="554"/>
      <point x="1798" y="508" type="curve" smooth="yes"/>
      <point x="1798" y="494"/>
      <point x="1796" y="481"/>
      <point x="1792" y="469" type="curve"/>
      <point x="1729" y="78" type="line"/>
      <point x="1715" y="30"/>
      <point x="1695" y="0"/>
      <point x="1647" y="0" type="curve" smooth="yes"/>
      <point x="123" y="0" type="line" smooth="yes"/>
      <point x="76" y="0"/>
      <point x="49" y="40"/>
      <point x="49" y="84" type="curve" smooth="yes"/>
      <point x="49" y="134"/>
      <point x="70" y="176"/>
      <point x="121" y="176" type="curve" smooth="yes"/>
      <point x="406" y="176" type="line"/>
      <point x="406" y="1538" type="line"/>
      <point x="223" y="1538" type="line" smooth="yes"/>
      <point x="172" y="1538"/>
      <point x="152" y="1580"/>
      <point x="152" y="1630" type="curve" smooth="yes"/>
      <point x="152" y="1674"/>
      <point x="178" y="1714"/>
      <point x="225" y="1714" type="curve" smooth="yes"/>
      <point x="1606" y="1714" type="line" smooth="yes"/>
      <point x="1654" y="1714"/>
      <point x="1672" y="1683"/>
      <point x="1688" y="1636" type="curve"/>
      <point x="1784" y="1319" type="line" smooth="yes"/>
      <point x="1788" y="1304"/>
      <point x="1790" y="1291"/>
      <point x="1790" y="1280" type="curve" smooth="yes"/>
      <point x="1790" y="1236"/>
      <point x="1760" y="1206"/>
      <point x="1717" y="1206" type="curve" smooth="yes"/>
      <point x="1667" y="1206"/>
      <point x="1631" y="1240"/>
      <point x="1614" y="1282" type="curve" smooth="yes"/>
      <point x="1506" y="1538" type="line"/>
      <point x="639" y="1538" type="line"/>
      <point x="639" y="967" type="line"/>
      <point x="973" y="967" type="line"/>
      <point x="1024" y="1153" type="line" smooth="yes"/>
      <point x="1035" y="1190"/>
      <point x="1062" y="1221"/>
      <point x="1104" y="1221" type="curve" smooth="yes"/>
      <point x="1149" y="1221"/>
      <point x="1174" y="1188"/>
      <point x="1174" y="1141" type="curve"/>
      <point x="1159" y="899" type="line"/>
    </contour>
    <contour>
      <point x="1024" y="1714" type="move" name="top"/>
    </contour>
    <contour>
      <point x="1024" y="0" type="move" name="bottom"/>
    </contour>
    <contour>
      <point x="1843" y="10" type="move" name="ogonek"/>
    </contour>
  </outline>
</glyph>
<glyph name="G" format="1">
  <advance width="2048"/>
  <unicode hex="0047"/>
  <outline>
    <contour>
      <point x="990" y="164" type="curve" smooth="yes"/>
      <point x="1304" y="164"/>
      <point x="1594" y="252"/>
      <point x="1594" y="569" type="curve" smooth="yes"/>
      <point x="1594" y="696" type="line"/>
      <point x="1442" y="696" type="line" smooth="yes"/>
      <point x="1395" y="696"/>
      <point x="1369" y="736"/>
      <point x="1369" y="780" type="curve" smooth="yes"/>
      <point x="1369" y="830"/>
      <point x="1389" y="872"/>
      <point x="1440" y="872" type="curve" smooth="yes"/>
      <point x="1856" y="872" type="line" smooth="yes"/>
      <point x="1907" y="872"/>
      <point x="1928" y="830"/>
      <point x="1928" y="780" type="curve" smooth="yes"/>
      <point x="1928" y="736"/>
      <point x="1901" y="696"/>
      <point x="1854" y="696" type="curve" smooth="yes"/>
      <point x="1770" y="696" type="line"/>
      <point x="1770" y="72" type="line" smooth="yes"/>
      <point x="1770" y="21"/>
      <point x="1728" y="0"/>
      <point x="1678" y="0" type="curve" smooth="yes"/>
      <point x="1634" y="0"/>
      <point x="1594" y="27"/>
      <point x="1594" y="74" type="curve" smooth="yes"/>
      <point x="1594" y="197" type="line"/>
      <point x="1478" y="38"/>
      <point x="1261" y="-25"/>
      <point x="990" y="-25" type="curve" smooth="yes"/>
      <point x="461" y="-25"/>
      <point x="93" y="319"/>
      <point x="93" y="850" type="curve" smooth="yes"/>
      <point x="93" y="1387"/>
      <point x="474" y="1739"/>
      <point x="1010" y="1739" type="curve" smooth="yes"/>
      <point x="1252" y="1739"/>
      <point x="1419" y="1664"/>
      <point x="1559" y="1538" type="curve"/>
      <point x="1559" y="1642" type="line" smooth="yes"/>
      <point x="1559" y="1693"/>
      <point x="1601" y="1714"/>
      <point x="1651" y="1714" type="curve" smooth="yes"/>
      <point x="1695" y="1714"/>
      <point x="1735" y="1687"/>
      <point x="1735" y="1640" type="curve" smooth="yes"/>
      <point x="1735" y="1266" type="line" smooth="yes"/>
      <point x="1735" y="1219"/>
      <point x="1695" y="1192"/>
      <point x="1651" y="1192" type="curve" smooth="yes"/>
      <point x="1605" y="1192"/>
      <point x="1589" y="1236"/>
      <point x="1567" y="1270" type="curve"/>
      <point x="1444" y="1443"/>
      <point x="1272" y="1550"/>
      <point x="1010" y="1550" type="curve" smooth="yes"/>
      <point x="599" y="1550"/>
      <point x="355" y="1262"/>
      <point x="355" y="850" type="curve" smooth="yes"/>
      <point x="355" y="444"/>
      <point x="588" y="164"/>
    </contour>
    <contour>
      <point x="1024" y="1714" type="move" name="top"/>
    </contour>
    <contour>
      <point x="1024" y="0" type="move" name="bottom"/>
    </contour>
  </outline>
</glyph>
<glyph name="L" format="1">
  <advance width="2048"/>
  <unicode hex="004C"/>
  <outline>
    <contour>
      <point x="951" y="1630" type="curve" smooth="yes"/>
      <point x="951" y="1580"/>
      <point x="930" y="1538"/>
      <point x="879" y="1538" type="curve" smooth="yes"/>
      <point x="656" y="1538" type="line"/>
      <point x="656" y="176" type="line"/>
      <point x="1360" y="176" type="line" smooth="yes"/>
      <point x="1474" y="176"/>
      <point x="1566" y="197"/>
      <point x="1575" y="303" type="curve"/>
      <point x="1604" y="584" type="line" smooth="yes"/>
      <point x="1609" y="628"/>
      <point x="1639" y="647"/>
      <point x="1686" y="647" type="curve" smooth="yes"/>
      <point x="1735" y="647"/>
      <point x="1778" y="620"/>
      <point x="1778" y="567" type="curve"/>
      <point x="1733" y="68" type="line" smooth="yes"/>
      <point x="1729" y="30"/>
      <point x="1709" y="0"/>
      <point x="1672" y="0" type="curve" smooth="yes"/>
      <point x="123" y="0" type="line" smooth="yes"/>
      <point x="76" y="0"/>
      <point x="49" y="40"/>
      <point x="49" y="84" type="curve" smooth="yes"/>
      <point x="49" y="134"/>
      <point x="70" y="176"/>
      <point x="121" y="176" type="curve" smooth="yes"/>
      <point x="422" y="176" type="line"/>
      <point x="422" y="1538" type="line"/>
      <point x="183" y="1538" type="line" smooth="yes"/>
      <point x="132" y="1538"/>
      <point x="111" y="1580"/>
      <point x="111" y="1630" type="curve" smooth="yes"/>
      <point x="111" y="1674"/>
      <point x="138" y="1714"/>
      <point x="185" y="1714" type="curve" smooth="yes"/>
      <point x="877" y="1714" type="line" smooth="yes"/>
      <point x="924" y="1714"/>
      <point x="951" y="1674"/>
    </contour>
    <contour>
      <point x="1024" y="1714" type="move" name="top"/>
    </contour>
    <contour>
      <point x="1024" y="0" type="move" name="bottom"/>
    </contour>
  </outline>
</glyph>
<glyph name="M" format="1">
  <advance width="2048"/>
  <unicode hex="004D"/>
  <outline>
    <contour>
      <point x="1455.5" y="84" type="curve" smooth="yes"/>
      <point x="1455.5" y="134"/>
      <point x="1476.5" y="176"/>
      <point x="1527.5" y="176" type="curve" smooth="yes"/>
      <point x="1709.5" y="176" type="line"/>
      <point x="1709.5" y="1235" type="line"/>
      <point x="1105.5" y="102" type="line"/>
      <point x="1092.5" y="67"/>
      <point x="1057.5" y="37"/>
      <point x="1011.5" y="37" type="curve" smooth="yes"/>
      <point x="970.5" y="37"/>
      <point x="935.5" y="63"/>
      <point x="921.5" y="92" type="curve" smooth="yes"/>
      <point x="355.5" y="1249" type="line"/>
      <point x="355.5" y="176" type="line"/>
      <point x="558.5" y="176" type="line" smooth="yes"/>
      <point x="609.5" y="176"/>
      <point x="630.5" y="134"/>
      <point x="630.5" y="84" type="curve" smooth="yes"/>
      <point x="630.5" y="40"/>
      <point x="603.5" y="0"/>
      <point x="556.5" y="0" type="curve" smooth="yes"/>
      <point x="-74.5" y="0" type="line" smooth="yes"/>
      <point x="-121.5" y="0"/>
      <point x="-148.5" y="40"/>
      <point x="-148.5" y="84" type="curve" smooth="yes"/>
      <point x="-148.5" y="134"/>
      <point x="-127.5" y="176"/>
      <point x="-76.5" y="176" type="curve" smooth="yes"/>
      <point x="146.5" y="176" type="line"/>
      <point x="146.5" y="1538" type="line"/>
      <point x="-55.5" y="1538" type="line" smooth="yes"/>
      <point x="-106.5" y="1538"/>
      <point x="-127.5" y="1580"/>
      <point x="-127.5" y="1630" type="curve" smooth="yes"/>
      <point x="-127.5" y="1674"/>
      <point x="-100.5" y="1714"/>
      <point x="-53.5" y="1714" type="curve" smooth="yes"/>
      <point x="282.5" y="1714" type="line" smooth="yes"/>
      <point x="318.5" y="1714"/>
      <point x="337.5" y="1688"/>
      <point x="349.5" y="1663" type="curve" smooth="yes"/>
      <point x="1011.5" y="328" type="line"/>
      <point x="1717.5" y="1671" type="line" smooth="yes"/>
      <point x="1729.5" y="1694"/>
      <point x="1749.5" y="1714"/>
      <point x="1783.5" y="1714" type="curve" smooth="yes"/>
      <point x="2102.5" y="1714" type="line" smooth="yes"/>
      <point x="2149.5" y="1714"/>
      <point x="2176.5" y="1674"/>
      <point x="2176.5" y="1630" type="curve" smooth="yes"/>
      <point x="2176.5" y="1580"/>
      <point x="2155.5" y="1538"/>
      <point x="2104.5" y="1538" type="curve" smooth="yes"/>
      <point x="1922.5" y="1538" type="line"/>
      <point x="1922.5" y="176" type="line"/>
      <point x="2125.5" y="176" type="line" smooth="yes"/>
      <point x="2176.5" y="176"/>
      <point x="2196.5" y="134"/>
      <point x="2196.5" y="84" type="curve" smooth="yes"/>
      <point x="2196.5" y="40"/>
      <point x="2170.5" y="0"/>
      <point x="2123.5" y="0" type="curve" smooth="yes"/>
      <point x="1529.5" y="0" type="line" smooth="yes"/>
      <point x="1482.5" y="0"/>
      <point x="1455.5" y="40"/>
    </contour>
  </outline>
</glyph>
<glyph name="P" format="1">
  <advance width="2048"/>
  <unicode hex="0050"/>
  <outline>
    <contour>
      <point x="1448" y="1223" type="curve" smooth="yes"/>
      <point x="1448" y="1538"/>
      <point x="1107" y="1538"/>
      <point x="826" y="1538" type="curve" smooth="yes"/>
      <point x="619" y="1538" type="line"/>
      <point x="619" y="889" type="line"/>
      <point x="887" y="889" type="line" smooth="yes"/>
      <point x="1175" y="889"/>
      <point x="1448" y="903"/>
    </contour>
    <contour>
      <point x="1684" y="1208" type="curve" smooth="yes"/>
      <point x="1684" y="745"/>
      <point x="1262" y="725"/>
      <point x="834" y="725" type="curve" smooth="yes"/>
      <point x="619" y="725" type="line"/>
      <point x="619" y="176" type="line"/>
      <point x="924" y="176" type="line" smooth="yes"/>
      <point x="975" y="176"/>
      <point x="996" y="134"/>
      <point x="996" y="84" type="curve" smooth="yes"/>
      <point x="996" y="40"/>
      <point x="969" y="0"/>
      <point x="922" y="0" type="curve" smooth="yes"/>
      <point x="123" y="0" type="line" smooth="yes"/>
      <point x="76" y="0"/>
      <point x="49" y="40"/>
      <point x="49" y="84" type="curve" smooth="yes"/>
      <point x="49" y="134"/>
      <point x="70" y="176"/>
      <point x="121" y="176" type="curve" smooth="yes"/>
      <point x="385" y="176" type="line"/>
      <point x="385" y="1538" type="line"/>
      <point x="142" y="1538" type="line" smooth="yes"/>
      <point x="91" y="1538"/>
      <point x="70" y="1580"/>
      <point x="70" y="1630" type="curve" smooth="yes"/>
      <point x="70" y="1674"/>
      <point x="97" y="1714"/>
      <point x="144" y="1714" type="curve" smooth="yes"/>
      <point x="797" y="1714" type="line" smooth="yes"/>
      <point x="1244" y="1714"/>
      <point x="1684" y="1688"/>
    </contour>
  </outline>
</glyph>
<glyph name="S" format="1">
  <advance width="2048"/>
  <unicode hex="0053"/>
  <outline>
    <contour>
      <point x="802" y="1581" type="curve" smooth="yes"/>
      <point x="480" y="1581"/>
      <point x="406" y="1439"/>
      <point x="406" y="1287" type="curve" smooth="yes"/>
      <point x="406" y="1157"/>
      <point x="496" y="1082"/>
      <point x="675" y="1038" type="curve" smooth="yes"/>
      <point x="962" y="967" type="line" smooth="yes"/>
      <point x="1226" y="901"/>
      <point x="1407" y="775"/>
      <point x="1407" y="458" type="curve" smooth="yes"/>
      <point x="1407" y="111"/>
      <point x="1086" y="-27"/>
      <point x="735" y="-27" type="curve" smooth="yes"/>
      <point x="593" y="-27"/>
      <point x="439" y="7"/>
      <point x="311" y="95" type="curve"/>
      <point x="306" y="49"/>
      <point x="285" y="-25"/>
      <point x="239" y="-25" type="curve" smooth="yes"/>
      <point x="191" y="-25"/>
      <point x="160" y="-6"/>
      <point x="155" y="39" type="curve" smooth="yes"/>
      <point x="98" y="535" type="line"/>
      <point x="98" y="588"/>
      <point x="130" y="614"/>
      <point x="194" y="614" type="curve" smooth="yes"/>
      <point x="234" y="614"/>
      <point x="269" y="589"/>
      <point x="274" y="549" type="curve" smooth="yes"/>
      <point x="290" y="410" type="line"/>
      <point x="303" y="286"/>
      <point x="503" y="150"/>
      <point x="710" y="150" type="curve" smooth="yes"/>
      <point x="939" y="150"/>
      <point x="1202" y="208"/>
      <point x="1202" y="459" type="curve" smooth="yes"/>
      <point x="1202" y="640"/>
      <point x="1077" y="689"/>
      <point x="927" y="732" type="curve" smooth="yes"/>
      <point x="599" y="825" type="line"/>
      <point x="359" y="879"/>
      <point x="185" y="1001"/>
      <point x="185" y="1271" type="curve" smooth="yes"/>
      <point x="185" y="1564"/>
      <point x="446" y="1739"/>
      <point x="769" y="1739" type="curve" smooth="yes"/>
      <point x="909" y="1739"/>
      <point x="1067" y="1707"/>
      <point x="1164" y="1627" type="curve"/>
      <point x="1164" y="1683"/>
      <point x="1203" y="1738"/>
      <point x="1258" y="1738" type="curve" smooth="yes"/>
      <point x="1298" y="1738"/>
      <point x="1333" y="1712"/>
      <point x="1338" y="1672" type="curve"/>
      <point x="1345" y="1275" type="line"/>
      <point x="1345" y="1217"/>
      <point x="1306" y="1193"/>
      <point x="1253" y="1193" type="curve" smooth="yes"/>
      <point x="1206" y="1193"/>
      <point x="1174" y="1212"/>
      <point x="1169" y="1256" type="curve"/>
      <point x="1165" y="1372" type="line"/>
      <point x="1147" y="1524"/>
      <point x="973" y="1581"/>
    </contour>
    <contour>
      <point x="1024" y="1714" type="move" name="top"/>
    </contour>
    <contour>
      <point x="1024" y="0" type="move" name="bottom"/>
    </contour>
  </outline>
</glyph>
<glyph name="T" format="1">
  <advance width="2048"/>
  <unicode hex="0054"/>
  <outline>
    <contour>
      <point x="295" y="1184" type="curve" smooth="yes"/>
      <point x="251" y="1184"/>
      <point x="227" y="1216"/>
      <point x="227" y="1264" type="curve"/>
      <point x="242" y="1636" type="line" smooth="yes"/>
      <point x="244" y="1688"/>
      <point x="258" y="1714"/>
      <point x="303" y="1714" type="curve" smooth="yes"/>
      <point x="1745" y="1714" type="line" smooth="yes"/>
      <point x="1788" y="1714"/>
      <point x="1804" y="1687"/>
      <point x="1806" y="1636" type="curve" smooth="yes"/>
      <point x="1821" y="1264" type="line"/>
      <point x="1821" y="1216"/>
      <point x="1797" y="1184"/>
      <point x="1753" y="1184" type="curve" smooth="yes"/>
      <point x="1706" y="1184"/>
      <point x="1676" y="1201"/>
      <point x="1671" y="1251" type="curve" smooth="yes"/>
      <point x="1640" y="1538" type="line"/>
      <point x="1130" y="1538" type="line"/>
      <point x="1130" y="176" type="line"/>
      <point x="1395" y="176" type="line" smooth="yes"/>
      <point x="1446" y="176"/>
      <point x="1466" y="134"/>
      <point x="1466" y="84" type="curve" smooth="yes"/>
      <point x="1466" y="40"/>
      <point x="1440" y="0"/>
      <point x="1393" y="0" type="curve" smooth="yes"/>
      <point x="635" y="0" type="line" smooth="yes"/>
      <point x="588" y="0"/>
      <point x="561" y="40"/>
      <point x="561" y="84" type="curve" smooth="yes"/>
      <point x="561" y="134"/>
      <point x="582" y="176"/>
      <point x="633" y="176" type="curve" smooth="yes"/>
      <point x="897" y="176" type="line"/>
      <point x="897" y="1538" type="line"/>
      <point x="407" y="1538" type="line"/>
      <point x="377" y="1251" type="line" smooth="yes"/>
      <point x="372" y="1200"/>
      <point x="342" y="1184"/>
    </contour>
    <contour>
      <point x="1024" y="1714" type="move" name="top"/>
    </contour>
    <contour>
      <point x="1024" y="0" type="move" name="bottom"/>
    </contour>
    <contour>
      <point x="1024" y="857" type="move" name="center"/>
    </contour>
  </outline>
</glyph>
<glyph name="U" format="1">
  <advance width="2048"/>
  <unicode hex="0055"/>
  <outline>
    <contour>
      <point x="1042" y="-25" type="curve" smooth="yes"/>
      <point x="640" y="-25"/>
      <point x="360" y="207"/>
      <point x="360" y="604" type="curve" smooth="yes"/>
      <point x="360" y="1538" type="line"/>
      <point x="209" y="1538" type="line" smooth="yes"/>
      <point x="158" y="1538"/>
      <point x="137" y="1580"/>
      <point x="137" y="1630" type="curve" smooth="yes"/>
      <point x="137" y="1674"/>
      <point x="164" y="1714"/>
      <point x="211" y="1714" type="curve" smooth="yes"/>
      <point x="795" y="1714" type="line" smooth="yes"/>
      <point x="842" y="1714"/>
      <point x="868" y="1674"/>
      <point x="868" y="1630" type="curve" smooth="yes"/>
      <point x="868" y="1580"/>
      <point x="848" y="1538"/>
      <point x="797" y="1538" type="curve" smooth="yes"/>
      <point x="594" y="1538" type="line"/>
      <point x="594" y="604" type="line" smooth="yes"/>
      <point x="594" y="318"/>
      <point x="754" y="154"/>
      <point x="1042" y="154" type="curve" smooth="yes"/>
      <point x="1304" y="154"/>
      <point x="1473" y="340"/>
      <point x="1473" y="602" type="curve" smooth="yes"/>
      <point x="1473" y="1538" type="line"/>
      <point x="1282" y="1538" type="line" smooth="yes"/>
      <point x="1231" y="1538"/>
      <point x="1210" y="1580"/>
      <point x="1210" y="1630" type="curve" smooth="yes"/>
      <point x="1210" y="1674"/>
      <point x="1237" y="1714"/>
      <point x="1284" y="1714" type="curve" smooth="yes"/>
      <point x="1837" y="1714" type="line" smooth="yes"/>
      <point x="1884" y="1714"/>
      <point x="1911" y="1674"/>
      <point x="1911" y="1630" type="curve" smooth="yes"/>
      <point x="1911" y="1580"/>
      <point x="1890" y="1538"/>
      <point x="1839" y="1538" type="curve" smooth="yes"/>
      <point x="1665" y="1538" type="line"/>
      <point x="1665" y="602" type="line" smooth="yes"/>
      <point x="1665" y="230"/>
      <point x="1413" y="-25"/>
    </contour>
    <contour>
      <point x="1024" y="1714" type="move" name="top"/>
    </contour>
    <contour>
      <point x="1843" y="10" type="move" name="ogonek"/>
    </contour>
  </outline>
</glyph>
<glyph name="V" format="1">
  <advance width="2048"/>
  <unicode hex="0056"/>
  <outline>
    <contour>
      <point x="1934" y="1630" type="curve" smooth="yes"/>
      <point x="1934" y="1580"/>
      <point x="1914" y="1538"/>
      <point x="1863" y="1538" type="curve" smooth="yes"/>
      <point x="1693" y="1538" type="line"/>
      <point x="1142" y="29" type="line"/>
      <point x="1119" y="-23"/>
      <point x="1101" y="-53"/>
      <point x="1048" y="-53" type="curve" smooth="yes"/>
      <point x="996" y="-53"/>
      <point x="973" y="-19"/>
      <point x="955" y="29" type="curve" smooth="yes"/>
      <point x="396" y="1538" type="line"/>
      <point x="185" y="1538" type="line" smooth="yes"/>
      <point x="134" y="1538"/>
      <point x="114" y="1580"/>
      <point x="114" y="1630" type="curve" smooth="yes"/>
      <point x="114" y="1674"/>
      <point x="140" y="1714"/>
      <point x="187" y="1714" type="curve" smooth="yes"/>
      <point x="802" y="1714" type="line" smooth="yes"/>
      <point x="849" y="1714"/>
      <point x="876" y="1674"/>
      <point x="876" y="1630" type="curve" smooth="yes"/>
      <point x="876" y="1580"/>
      <point x="855" y="1538"/>
      <point x="804" y="1538" type="curve" smooth="yes"/>
      <point x="642" y="1538" type="line"/>
      <point x="1076" y="332" type="line"/>
      <point x="1488" y="1538" type="line"/>
      <point x="1326" y="1538" type="line" smooth="yes"/>
      <point x="1275" y="1538"/>
      <point x="1254" y="1580"/>
      <point x="1254" y="1630" type="curve" smooth="yes"/>
      <point x="1254" y="1674"/>
      <point x="1281" y="1714"/>
      <point x="1328" y="1714" type="curve" smooth="yes"/>
      <point x="1861" y="1714" type="line" smooth="yes"/>
      <point x="1908" y="1714"/>
      <point x="1934" y="1674"/>
    </contour>
  </outline>
</glyph>
<glyph name="W" format="1">
  <advance width="2048"/>
  <unicode hex="0057"/>
  <outline>
    <contour>
      <point x="1522.5" y="1622" type="curve" smooth="yes"/>
      <point x="1522.5" y="1672"/>
      <point x="1543.5" y="1714"/>
      <point x="1594.5" y="1714" type="curve" smooth="yes"/>
      <point x="2091.5" y="1714" type="line" smooth="yes"/>
      <point x="2142.5" y="1714"/>
      <point x="2163.5" y="1672"/>
      <point x="2163.5" y="1622" type="curve" smooth="yes"/>
      <point x="2163.5" y="1578"/>
      <point x="2136.5" y="1538"/>
      <point x="2089.5" y="1538" type="curve" smooth="yes"/>
      <point x="1923.5" y="1538" type="line"/>
      <point x="1487.5" y="39" type="line"/>
      <point x="1473.5" y="3"/>
      <point x="1427.5" y="-27"/>
      <point x="1377.5" y="-27" type="curve" smooth="yes"/>
      <point x="1326.5" y="-27"/>
      <point x="1285.5" y="-2"/>
      <point x="1278.5" y="47" type="curve"/>
      <point x="1020.5" y="1135" type="line"/>
      <point x="723.5" y="39" type="line"/>
      <point x="710.5" y="2"/>
      <point x="659.5" y="-27"/>
      <point x="609.5" y="-27" type="curve" smooth="yes"/>
      <point x="553.5" y="-27"/>
      <point x="514.5" y="-2"/>
      <point x="504.5" y="51" type="curve"/>
      <point x="121.5" y="1538" type="line"/>
      <point x="-42.5" y="1538" type="line" smooth="yes"/>
      <point x="-89.5" y="1538"/>
      <point x="-115.5" y="1578"/>
      <point x="-115.5" y="1622" type="curve" smooth="yes"/>
      <point x="-115.5" y="1672"/>
      <point x="-95.5" y="1714"/>
      <point x="-44.5" y="1714" type="curve" smooth="yes"/>
      <point x="453.5" y="1714" type="line" smooth="yes"/>
      <point x="504.5" y="1714"/>
      <point x="525.5" y="1672"/>
      <point x="525.5" y="1622" type="curve" smooth="yes"/>
      <point x="525.5" y="1578"/>
      <point x="498.5" y="1538"/>
      <point x="451.5" y="1538" type="curve" smooth="yes"/>
      <point x="357.5" y="1538" type="line"/>
      <point x="641.5" y="381" type="line"/>
      <point x="965.5" y="1538" type="line"/>
      <point x="873.5" y="1538" type="line" smooth="yes"/>
      <point x="826.5" y="1538"/>
      <point x="799.5" y="1578"/>
      <point x="799.5" y="1622" type="curve" smooth="yes"/>
      <point x="799.5" y="1672"/>
      <point x="820.5" y="1714"/>
      <point x="871.5" y="1714" type="curve" smooth="yes"/>
      <point x="1225.5" y="1714" type="line" smooth="yes"/>
      <point x="1276.5" y="1714"/>
      <point x="1297.5" y="1672"/>
      <point x="1297.5" y="1622" type="curve" smooth="yes"/>
      <point x="1297.5" y="1578"/>
      <point x="1270.5" y="1538"/>
      <point x="1223.5" y="1538" type="curve" smooth="yes"/>
      <point x="1123.5" y="1538" type="line"/>
      <point x="1401.5" y="401" type="line"/>
      <point x="1717.5" y="1538" type="line"/>
      <point x="1596.5" y="1538" type="line" smooth="yes"/>
      <point x="1549.5" y="1538"/>
      <point x="1522.5" y="1578"/>
    </contour>
    <contour>
      <point x="1024" y="1714" type="move" name="top"/>
    </contour>
  </outline>
</glyph>
<glyph name="X" format="1">
  <advance width="2048"/>
  <unicode hex="0058"/>
  <outline>
    <contour>
      <point x="1959.5" y="1630" type="curve" smooth="yes"/>
      <point x="1959.5" y="1580"/>
      <point x="1938.5" y="1538"/>
      <point x="1887.5" y="1538" type="curve" smooth="yes"/>
      <point x="1721.5" y="1538" type="line"/>
      <point x="1168.5" y="895" type="line"/>
      <point x="1787.5" y="176" type="line"/>
      <point x="1908.5" y="176" type="line" smooth="yes"/>
      <point x="1959.5" y="176"/>
      <point x="1980.5" y="134"/>
      <point x="1980.5" y="84" type="curve" smooth="yes"/>
      <point x="1980.5" y="40"/>
      <point x="1953.5" y="0"/>
      <point x="1906.5" y="0" type="curve" smooth="yes"/>
      <point x="1230.5" y="0" type="line" smooth="yes"/>
      <point x="1183.5" y="0"/>
      <point x="1156.5" y="40"/>
      <point x="1156.5" y="84" type="curve" smooth="yes"/>
      <point x="1156.5" y="134"/>
      <point x="1177.5" y="176"/>
      <point x="1228.5" y="176" type="curve" smooth="yes"/>
      <point x="1506.5" y="176" type="line"/>
      <point x="1027.5" y="731" type="line"/>
      <point x="550.5" y="176" type="line"/>
      <point x="798.5" y="176" type="line" smooth="yes"/>
      <point x="849.5" y="176"/>
      <point x="869.5" y="134"/>
      <point x="869.5" y="84" type="curve" smooth="yes"/>
      <point x="869.5" y="40"/>
      <point x="843.5" y="0"/>
      <point x="796.5" y="0" type="curve" smooth="yes"/>
      <point x="140.5" y="0" type="line" smooth="yes"/>
      <point x="93.5" y="0"/>
      <point x="67.5" y="40"/>
      <point x="67.5" y="84" type="curve" smooth="yes"/>
      <point x="67.5" y="134"/>
      <point x="87.5" y="176"/>
      <point x="138.5" y="176" type="curve" smooth="yes"/>
      <point x="321.5" y="176" type="line"/>
      <point x="912.5" y="864" type="line"/>
      <point x="335.5" y="1538" type="line"/>
      <point x="200.5" y="1538" type="line" smooth="yes"/>
      <point x="149.5" y="1538"/>
      <point x="128.5" y="1580"/>
      <point x="128.5" y="1630" type="curve" smooth="yes"/>
      <point x="128.5" y="1674"/>
      <point x="155.5" y="1714"/>
      <point x="202.5" y="1714" type="curve" smooth="yes"/>
      <point x="796.5" y="1714" type="line" smooth="yes"/>
      <point x="843.5" y="1714"/>
      <point x="869.5" y="1674"/>
      <point x="869.5" y="1630" type="curve" smooth="yes"/>
      <point x="869.5" y="1580"/>
      <point x="849.5" y="1538"/>
      <point x="798.5" y="1538" type="curve" smooth="yes"/>
      <point x="616.5" y="1538" type="line"/>
      <point x="1054.5" y="1028" type="line"/>
      <point x="1492.5" y="1538" type="line"/>
      <point x="1310.5" y="1538" type="line" smooth="yes"/>
      <point x="1259.5" y="1538"/>
      <point x="1238.5" y="1580"/>
      <point x="1238.5" y="1630" type="curve" smooth="yes"/>
      <point x="1238.5" y="1674"/>
      <point x="1265.5" y="1714"/>
      <point x="1312.5" y="1714" type="curve" smooth="yes"/>
      <point x="1885.5" y="1714" type="line" smooth="yes"/>
      <point x="1932.5" y="1714"/>
      <point x="1959.5" y="1674"/>
    </contour>
  </outline>
</glyph>
<glyph name="bracketleft" format="1">
  <advance width="2048"/>
  <unicode hex="005B"/>
  <outline>
    <contour>
      <point x="275" y="-518" type="line" smooth="yes"/>
      <point x="220" y="-518"/>
      <point x="173" y="-476"/>
      <point x="173" y="-420" type="curve"/>
      <point x="213" y="778" type="line"/>
      <point x="173" y="1976" type="line"/>
      <point x="173" y="2030"/>
      <point x="221" y="2075"/>
      <point x="275" y="2075" type="curve" smooth="yes"/>
      <point x="675" y="2075" type="line" smooth="yes"/>
      <point x="729" y="2075"/>
      <point x="777" y="2026"/>
      <point x="777" y="1972" type="curve" smooth="yes"/>
      <point x="777" y="1916"/>
      <point x="730" y="1870"/>
      <point x="675" y="1870" type="curve" smooth="yes"/>
      <point x="394" y="1870" type="line"/>
      <point x="394" y="-313" type="line"/>
      <point x="675" y="-313" type="line" smooth="yes"/>
      <point x="730" y="-313"/>
      <point x="777" y="-360"/>
      <point x="777" y="-416" type="curve" smooth="yes"/>
      <point x="777" y="-470"/>
      <point x="729" y="-518"/>
      <point x="675" y="-518" type="curve" smooth="yes"/>
    </contour>
  </outline>
</glyph>
<glyph name="bracketright" format="1">
  <advance width="2048"/>
  <unicode hex="005D"/>
  <outline>
    <contour>
      <point x="635" y="-518" type="curve" smooth="yes"/>
      <point x="235" y="-518" type="line" smooth="yes"/>
      <point x="181" y="-518"/>
      <point x="133" y="-470"/>
      <point x="133" y="-416" type="curve" smooth="yes"/>
      <point x="133" y="-360"/>
      <point x="180" y="-313"/>
      <point x="235" y="-313" type="curve" smooth="yes"/>
      <point x="516" y="-313" type="line"/>
      <point x="516" y="1870" type="line"/>
      <point x="235" y="1870" type="line" smooth="yes"/>
      <point x="180" y="1870"/>
      <point x="133" y="1916"/>
      <point x="133" y="1972" type="curve" smooth="yes"/>
      <point x="133" y="2026"/>
      <point x="181" y="2075"/>
      <point x="235" y="2075" type="curve" smooth="yes"/>
      <point x="635" y="2075" type="line" smooth="yes"/>
      <point x="689" y="2075"/>
      <point x="737" y="2030"/>
      <point x="737" y="1976" type="curve"/>
      <point x="697" y="778" type="line"/>
      <point x="737" y="-420" type="line"/>
      <point x="737" y="-476"/>
      <point x="690" y="-518"/>
    </contour>
  </outline>
</glyph>
<glyph name="asciicircum" format="1">
  <advance width="2048"/>
  <unicode hex="005E"/>
  <outline>
    <contour>
      <point x="1124" y="639" type="curve" smooth="yes"/>
      <point x="1124" y="602"/>
      <point x="1090" y="573"/>
      <point x="1054" y="573" type="curve" smooth="yes"/>
      <point x="1023" y="573"/>
      <point x="1000" y="594"/>
      <point x="989" y="618" type="curve" smooth="yes"/>
      <point x="690" y="1257" type="line"/>
      <point x="364" y="623" type="line"/>
      <point x="347" y="593"/>
      <point x="320" y="567"/>
      <point x="280" y="567" type="curve" smooth="yes"/>
      <point x="230" y="567"/>
      <point x="184" y="606"/>
      <point x="184" y="657" type="curve" smooth="yes"/>
      <point x="184" y="668"/>
      <point x="187" y="682"/>
      <point x="194" y="698" type="curve" smooth="yes"/>
      <point x="546" y="1411" type="line" smooth="yes"/>
      <point x="571" y="1460"/>
      <point x="604" y="1511"/>
      <point x="661" y="1511" type="curve" smooth="yes"/>
      <point x="714" y="1511"/>
      <point x="747" y="1461"/>
      <point x="767" y="1419" type="curve" smooth="yes"/>
      <point x="1116" y="674" type="line" smooth="yes"/>
      <point x="1121" y="663"/>
      <point x="1124" y="651"/>
    </contour>
  </outline>
</glyph>
<glyph name="g" format="1">
  <advance width="2048"/>
  <unicode hex="0067"/>
  <outline>
    <contour>
      <point x="96" y="776" type="curve" smooth="yes"/>
      <point x="96" y="1039"/>
      <point x="325" y="1188"/>
      <point x="596" y="1188" type="curve" smooth="yes"/>
      <point x="750" y="1188"/>
      <point x="876" y="1145"/>
      <point x="964" y="1075" type="curve"/>
      <point x="1100" y="1208" type="line" smooth="yes"/>
      <point x="1160" y="1268"/>
      <point x="1229" y="1276"/>
      <point x="1282" y="1276" type="curve" smooth="yes"/>
      <point x="1346" y="1276"/>
      <point x="1407" y="1255"/>
      <point x="1407" y="1188" type="curve" smooth="yes"/>
      <point x="1407" y="1141"/>
      <point x="1357" y="1092"/>
      <point x="1221" y="1092" type="curve" smooth="yes"/>
      <point x="1220" y="1092" type="line"/>
      <point x="1048" y="983" type="line"/>
      <point x="1081" y="917"/>
      <point x="1118" y="829"/>
      <point x="1118" y="737" type="curve" smooth="yes"/>
      <point x="1118" y="476"/>
      <point x="884" y="347"/>
      <point x="596" y="347" type="curve" smooth="yes"/>
      <point x="570" y="347"/>
      <point x="537" y="349"/>
      <point x="503" y="349" type="curve" smooth="yes"/>
      <point x="416" y="349"/>
      <point x="323" y="337"/>
      <point x="323" y="250" type="curve" smooth="yes"/>
      <point x="323" y="182"/>
      <point x="424" y="173"/>
      <point x="516" y="173" type="curve" smooth="yes"/>
      <point x="550" y="173"/>
      <point x="582" y="174"/>
      <point x="608" y="174" type="curve" smooth="yes"/>
      <point x="932" y="174"/>
      <point x="1209" y="147"/>
      <point x="1209" y="-184" type="curve" smooth="yes"/>
      <point x="1209" y="-486"/>
      <point x="901" y="-504"/>
      <point x="592" y="-504" type="curve" smooth="yes"/>
      <point x="358" y="-504"/>
      <point x="100" y="-419"/>
      <point x="100" y="-186" type="curve" smooth="yes"/>
      <point x="100" y="-39"/>
      <point x="161" y="40"/>
      <point x="266" y="88" type="curve"/>
      <point x="207" y="117"/>
      <point x="139" y="171"/>
      <point x="139" y="262" type="curve" smooth="yes"/>
      <point x="139" y="375"/>
      <point x="204" y="424"/>
      <point x="299" y="448" type="curve"/>
      <point x="180" y="527"/>
      <point x="96" y="605"/>
    </contour>
    <contour>
      <point x="364" y="30" type="curve"/>
      <point x="322" y="-12"/>
      <point x="268" y="-66"/>
      <point x="268" y="-150" type="curve" smooth="yes"/>
      <point x="268" y="-288"/>
      <point x="425" y="-336"/>
      <point x="588" y="-336" type="curve" smooth="yes"/>
      <point x="799" y="-336"/>
      <point x="1014" y="-331"/>
      <point x="1014" y="-164" type="curve" smooth="yes"/>
      <point x="1014" y="-16"/>
      <point x="858" y="1"/>
      <point x="700" y="1" type="curve" smooth="yes"/>
      <point x="658" y="1"/>
      <point x="626" y="0"/>
      <point x="596" y="0" type="curve" smooth="yes"/>
      <point x="535" y="0"/>
      <point x="481" y="4"/>
    </contour>
    <contour>
      <point x="610" y="1051" type="curve" smooth="yes"/>
      <point x="427" y="1051"/>
      <point x="303" y="947"/>
      <point x="303" y="752" type="curve" smooth="yes"/>
      <point x="303" y="574"/>
      <point x="428" y="487"/>
      <point x="602" y="487" type="curve" smooth="yes"/>
      <point x="779" y="487"/>
      <point x="899" y="556"/>
      <point x="899" y="757" type="curve" smooth="yes"/>
      <point x="899" y="945"/>
      <point x="799" y="1051"/>
    </contour>
    <contour>
      <point x="1024" y="1160" type="move" name="top"/>
    </contour>
  </outline>
</glyph>
<glyph name="h" format="1">
  <advance width="2048"/>
  <unicode hex="0068"/>
  <outline>
    <contour>
      <point x="841" y="1018" type="curve" smooth="yes"/>
      <point x="688" y="1018"/>
      <point x="567" y="909"/>
      <point x="499" y="799" type="curve"/>
      <point x="499" y="176" type="line"/>
      <point x="663" y="176" type="line" smooth="yes"/>
      <point x="715" y="176"/>
      <point x="724" y="136"/>
      <point x="724" y="86" type="curve" smooth="yes"/>
      <point x="724" y="46"/>
      <point x="703" y="0"/>
      <point x="661" y="0" type="curve" smooth="yes"/>
      <point x="172" y="0" type="line" smooth="yes"/>
      <point x="115" y="0"/>
      <point x="96" y="32"/>
      <point x="96" y="84" type="curve" smooth="yes"/>
      <point x="96" y="134"/>
      <point x="113" y="176"/>
      <point x="165" y="176" type="curve" smooth="yes"/>
      <point x="294" y="176" type="line"/>
      <point x="294" y="1524" type="line"/>
      <point x="59" y="1462" type="line"/>
      <point x="53" y="1462"/>
      <point x="55" y="1460"/>
      <point x="49" y="1460" type="curve" smooth="yes"/>
      <point x="7" y="1460"/>
      <point x="-31" y="1505"/>
      <point x="-31" y="1546" type="curve" smooth="yes"/>
      <point x="-31" y="1603"/>
      <point x="3" y="1613"/>
      <point x="47" y="1626" type="curve" smooth="yes"/>
      <point x="432" y="1737" type="line" smooth="yes"/>
      <point x="435" y="1738"/>
      <point x="439" y="1739"/>
      <point x="446" y="1739" type="curve" smooth="yes"/>
      <point x="474" y="1739"/>
      <point x="499" y="1720"/>
      <point x="499" y="1690" type="curve" smooth="yes"/>
      <point x="499" y="1004" type="line"/>
      <point x="577" y="1097"/>
      <point x="713" y="1188"/>
      <point x="878" y="1188" type="curve" smooth="yes"/>
      <point x="1128" y="1188"/>
      <point x="1286" y="1032"/>
      <point x="1286" y="780" type="curve" smooth="yes"/>
      <point x="1286" y="176" type="line"/>
      <point x="1449" y="176" type="line" smooth="yes"/>
      <point x="1501" y="176"/>
      <point x="1511" y="136"/>
      <point x="1511" y="86" type="curve" smooth="yes"/>
      <point x="1511" y="46"/>
      <point x="1489" y="0"/>
      <point x="1447" y="0" type="curve" smooth="yes"/>
      <point x="958" y="0" type="line" smooth="yes"/>
      <point x="901" y="0"/>
      <point x="882" y="32"/>
      <point x="882" y="84" type="curve" smooth="yes"/>
      <point x="882" y="134"/>
      <point x="900" y="176"/>
      <point x="952" y="176" type="curve" smooth="yes"/>
      <point x="1083" y="176" type="line"/>
      <point x="1083" y="762" type="line" smooth="yes"/>
      <point x="1083" y="922"/>
      <point x="1003" y="1018"/>
    </contour>
    <contour>
      <point x="1024" y="1160" type="move" name="top"/>
    </contour>
    <contour>
      <point x="1024" y="580" type="move" name="center"/>
    </contour>
  </outline>
</glyph>
<glyph name="k" format="1">
  <advance width="2048"/>
  <unicode hex="006B"/>
  <outline>
    <contour>
      <point x="449" y="1739" type="curve" smooth="yes"/>
      <point x="477" y="1739"/>
      <point x="502" y="1720"/>
      <point x="502" y="1690" type="curve" smooth="yes"/>
      <point x="502" y="620" type="line"/>
      <point x="657" y="725"/>
      <point x="834" y="847"/>
      <point x="985" y="946" type="curve"/>
      <point x="879" y="946" type="line" smooth="yes"/>
      <point x="827" y="946"/>
      <point x="803" y="986"/>
      <point x="803" y="1036" type="curve" smooth="yes"/>
      <point x="803" y="1087"/>
      <point x="829" y="1122"/>
      <point x="885" y="1122" type="curve" smooth="yes"/>
      <point x="1348" y="1122" type="line" smooth="yes"/>
      <point x="1395" y="1122"/>
      <point x="1422" y="1112"/>
      <point x="1422" y="1068" type="curve" smooth="yes"/>
      <point x="1422" y="1018"/>
      <point x="1401" y="946"/>
      <point x="1350" y="946" type="curve" smooth="yes"/>
      <point x="1239" y="946" type="line" smooth="yes"/>
      <point x="1186" y="946"/>
      <point x="1149" y="909"/>
      <point x="1114" y="883" type="curve" smooth="yes"/>
      <point x="824" y="664" type="line"/>
      <point x="1114" y="291" type="line"/>
      <point x="1186" y="191"/>
      <point x="1238" y="188"/>
      <point x="1366" y="188" type="curve" smooth="yes"/>
      <point x="1381" y="188" type="line" smooth="yes"/>
      <point x="1470" y="188"/>
      <point x="1497" y="173"/>
      <point x="1497" y="96" type="curve" smooth="yes"/>
      <point x="1497" y="17"/>
      <point x="1448" y="0"/>
      <point x="1358" y="0" type="curve" smooth="yes"/>
      <point x="922" y="0" type="line" smooth="yes"/>
      <point x="871" y="0"/>
      <point x="846" y="40"/>
      <point x="846" y="90" type="curve" smooth="yes"/>
      <point x="846" y="141"/>
      <point x="871" y="176"/>
      <point x="928" y="176" type="curve" smooth="yes"/>
      <point x="987" y="176" type="line"/>
      <point x="686" y="579" type="line"/>
      <point x="502" y="467" type="line"/>
      <point x="502" y="176" type="line"/>
      <point x="654" y="176" type="line" smooth="yes"/>
      <point x="705" y="176"/>
      <point x="725" y="134"/>
      <point x="725" y="84" type="curve" smooth="yes"/>
      <point x="725" y="40"/>
      <point x="699" y="0"/>
      <point x="652" y="0" type="curve" smooth="yes"/>
      <point x="148" y="0" type="line" smooth="yes"/>
      <point x="92" y="0"/>
      <point x="66" y="35"/>
      <point x="66" y="86" type="curve" smooth="yes"/>
      <point x="66" y="135"/>
      <point x="90" y="176"/>
      <point x="142" y="176" type="curve" smooth="yes"/>
      <point x="297" y="176" type="line"/>
      <point x="297" y="1524" type="line"/>
      <point x="62" y="1462" type="line"/>
      <point x="56" y="1462"/>
      <point x="57" y="1460"/>
      <point x="51" y="1460" type="curve" smooth="yes"/>
      <point x="9" y="1460"/>
      <point x="-28" y="1505"/>
      <point x="-28" y="1546" type="curve" smooth="yes"/>
      <point x="-28" y="1603"/>
      <point x="5" y="1613"/>
      <point x="49" y="1626" type="curve" smooth="yes"/>
      <point x="434" y="1737" type="line" smooth="yes"/>
      <point x="437" y="1738"/>
      <point x="442" y="1739"/>
    </contour>
    <contour>
      <point x="1024" y="0" type="move" name="bottom"/>
    </contour>
  </outline>
</glyph>
<glyph name="m" format="1">
  <advance width="2048"/>
  <unicode hex="006D"/>
  <outline>
    <contour>
      <point x="1865" y="1188" type="curve" smooth="yes"/>
      <point x="2112" y="1188"/>
      <point x="2293" y="1029"/>
      <point x="2293" y="780" type="curve" smooth="yes"/>
      <point x="2293" y="176" type="line"/>
      <point x="2439" y="176" type="line" smooth="yes"/>
      <point x="2490" y="176"/>
      <point x="2510" y="134"/>
      <point x="2510" y="84" type="curve" smooth="yes"/>
      <point x="2510" y="40"/>
      <point x="2484" y="0"/>
      <point x="2437" y="0" type="curve" smooth="yes"/>
      <point x="1949" y="0" type="line" smooth="yes"/>
      <point x="1893" y="0"/>
      <point x="1867" y="35"/>
      <point x="1867" y="86" type="curve" smooth="yes"/>
      <point x="1867" y="135"/>
      <point x="1891" y="176"/>
      <point x="1943" y="176" type="curve" smooth="yes"/>
      <point x="2091" y="176" type="line"/>
      <point x="2091" y="762" type="line" smooth="yes"/>
      <point x="2091" y="922"/>
      <point x="2011" y="1018"/>
      <point x="1849" y="1018" type="curve" smooth="yes"/>
      <point x="1633" y="1018"/>
      <point x="1489" y="885"/>
      <point x="1407" y="733" type="curve"/>
      <point x="1407" y="176" type="line"/>
      <point x="1572" y="176" type="line" smooth="yes"/>
      <point x="1623" y="176"/>
      <point x="1644" y="134"/>
      <point x="1644" y="84" type="curve" smooth="yes"/>
      <point x="1644" y="40"/>
      <point x="1617" y="0"/>
      <point x="1570" y="0" type="curve" smooth="yes"/>
      <point x="1042" y="0" type="line" smooth="yes"/>
      <point x="986" y="0"/>
      <point x="960" y="35"/>
      <point x="960" y="86" type="curve" smooth="yes"/>
      <point x="960" y="135"/>
      <point x="984" y="176"/>
      <point x="1036" y="176" type="curve" smooth="yes"/>
      <point x="1204" y="176" type="line"/>
      <point x="1204" y="762" type="line" smooth="yes"/>
      <point x="1204" y="922"/>
      <point x="1124" y="1018"/>
      <point x="962" y="1018" type="curve" smooth="yes"/>
      <point x="736" y="1018"/>
      <point x="582" y="897"/>
      <point x="505" y="743" type="curve"/>
      <point x="505" y="176" type="line"/>
      <point x="690" y="176" type="line" smooth="yes"/>
      <point x="741" y="176"/>
      <point x="761" y="134"/>
      <point x="761" y="84" type="curve" smooth="yes"/>
      <point x="761" y="40"/>
      <point x="735" y="0"/>
      <point x="688" y="0" type="curve" smooth="yes"/>
      <point x="159" y="0" type="line" smooth="yes"/>
      <point x="103" y="0"/>
      <point x="77" y="35"/>
      <point x="77" y="86" type="curve" smooth="yes"/>
      <point x="77" y="135"/>
      <point x="101" y="176"/>
      <point x="153" y="176" type="curve" smooth="yes"/>
      <point x="301" y="176" type="line"/>
      <point x="301" y="979" type="line"/>
      <point x="157" y="944" type="line" smooth="yes"/>
      <point x="154" y="943"/>
      <point x="150" y="942"/>
      <point x="143" y="942" type="curve" smooth="yes"/>
      <point x="103" y="942"/>
      <point x="61" y="981"/>
      <point x="61" y="1022" type="curve" smooth="yes"/>
      <point x="61" y="1067"/>
      <point x="80" y="1094"/>
      <point x="118" y="1106" type="curve"/>
      <point x="397" y="1186" type="line"/>
      <point x="403" y="1186"/>
      <point x="401" y="1188"/>
      <point x="407" y="1188" type="curve" smooth="yes"/>
      <point x="413" y="1188" type="line" smooth="yes"/>
      <point x="441" y="1188"/>
      <point x="464" y="1170"/>
      <point x="464" y="1141" type="curve"/>
      <point x="485" y="952" type="line"/>
      <point x="566" y="1088"/>
      <point x="763" y="1188"/>
      <point x="979" y="1188" type="curve" smooth="yes"/>
      <point x="1181" y="1188"/>
      <point x="1324" y="1084"/>
      <point x="1380" y="934" type="curve"/>
      <point x="1473" y="1068"/>
      <point x="1640" y="1188"/>
    </contour>
  </outline>
</glyph>
<glyph name="n" format="1">
  <advance width="2048"/>
  <unicode hex="006E"/>
  <outline>
    <contour>
      <point x="880" y="1018" type="curve" smooth="yes"/>
      <point x="701" y="1018"/>
      <point x="505" y="886"/>
      <point x="505" y="707" type="curve" smooth="yes"/>
      <point x="505" y="176" type="line"/>
      <point x="651" y="176" type="line" smooth="yes"/>
      <point x="702" y="176"/>
      <point x="722" y="134"/>
      <point x="722" y="84" type="curve" smooth="yes"/>
      <point x="722" y="40"/>
      <point x="696" y="0"/>
      <point x="649" y="0" type="curve" smooth="yes"/>
      <point x="182" y="0" type="line" smooth="yes"/>
      <point x="126" y="0"/>
      <point x="100" y="35"/>
      <point x="100" y="86" type="curve" smooth="yes"/>
      <point x="100" y="135"/>
      <point x="124" y="176"/>
      <point x="176" y="176" type="curve" smooth="yes"/>
      <point x="300" y="176" type="line"/>
      <point x="300" y="979" type="line"/>
      <point x="157" y="944" type="line" smooth="yes"/>
      <point x="154" y="943"/>
      <point x="150" y="942"/>
      <point x="143" y="942" type="curve" smooth="yes"/>
      <point x="103" y="942"/>
      <point x="61" y="981"/>
      <point x="61" y="1022" type="curve" smooth="yes"/>
      <point x="61" y="1067"/>
      <point x="80" y="1094"/>
      <point x="118" y="1106" type="curve"/>
      <point x="397" y="1186" type="line"/>
      <point x="403" y="1186"/>
      <point x="401" y="1188"/>
      <point x="407" y="1188" type="curve" smooth="yes"/>
      <point x="413" y="1188" type="line" smooth="yes"/>
      <point x="441" y="1188"/>
      <point x="464" y="1170"/>
      <point x="464" y="1141" type="curve"/>
      <point x="485" y="952" type="line"/>
      <point x="553" y="1075"/>
      <point x="729" y="1188"/>
      <point x="917" y="1188" type="curve" smooth="yes"/>
      <point x="1167" y="1188"/>
      <point x="1324" y="1032"/>
      <point x="1324" y="780" type="curve" smooth="yes"/>
      <point x="1324" y="176" type="line"/>
      <point x="1449" y="176" type="line" smooth="yes"/>
      <point x="1500" y="176"/>
      <point x="1521" y="134"/>
      <point x="1521" y="84" type="curve" smooth="yes"/>
      <point x="1521" y="40"/>
      <point x="1494" y="0"/>
      <point x="1447" y="0" type="curve" smooth="yes"/>
      <point x="960" y="0" type="line" smooth="yes"/>
      <point x="904" y="0"/>
      <point x="878" y="35"/>
      <point x="878" y="86" type="curve" smooth="yes"/>
      <point x="878" y="135"/>
      <point x="902" y="176"/>
      <point x="954" y="176" type="curve" smooth="yes"/>
      <point x="1122" y="176" type="line"/>
      <point x="1122" y="762" type="line" smooth="yes"/>
      <point x="1122" y="922"/>
      <point x="1042" y="1018"/>
    </contour>
    <contour>
      <point x="1024" y="1160" type="move" name="top"/>
    </contour>
    <contour>
      <point x="1024" y="0" type="move" name="bottom"/>
    </contour>
  </outline>
</glyph>
<glyph name="q" format="1">
  <advance width="2048"/>
  <unicode hex="0071"/>
  <outline>
    <contour>
      <point x="1034" y="1006" type="curve"/>
      <point x="1044" y="1086"/>
      <point x="1058" y="1133"/>
      <point x="1143" y="1133" type="curve" smooth="yes"/>
      <point x="1190" y="1133"/>
      <point x="1212" y="1081"/>
      <point x="1212" y="1028" type="curve" smooth="yes"/>
      <point x="1212" y="-399" type="line"/>
      <point x="1337" y="-399" type="line" smooth="yes"/>
      <point x="1389" y="-399"/>
      <point x="1413" y="-439"/>
      <point x="1413" y="-489" type="curve" smooth="yes"/>
      <point x="1413" y="-540"/>
      <point x="1387" y="-575"/>
      <point x="1331" y="-575" type="curve" smooth="yes"/>
      <point x="807" y="-575" type="line" smooth="yes"/>
      <point x="760" y="-575"/>
      <point x="733" y="-536"/>
      <point x="733" y="-492" type="curve" smooth="yes"/>
      <point x="733" y="-442"/>
      <point x="754" y="-399"/>
      <point x="805" y="-399" type="curve" smooth="yes"/>
      <point x="1007" y="-399" type="line"/>
      <point x="1007" y="109" type="line"/>
      <point x="924" y="31"/>
      <point x="822" y="-25"/>
      <point x="672" y="-25" type="curve" smooth="yes"/>
      <point x="326" y="-25"/>
      <point x="114" y="234"/>
      <point x="114" y="582" type="curve" smooth="yes"/>
      <point x="114" y="930"/>
      <point x="309" y="1188"/>
      <point x="651" y="1188" type="curve" smooth="yes"/>
      <point x="815" y="1188"/>
      <point x="951" y="1101"/>
    </contour>
    <contour>
      <point x="336" y="582" type="curve" smooth="yes"/>
      <point x="336" y="352"/>
      <point x="448" y="145"/>
      <point x="672" y="145" type="curve" smooth="yes"/>
      <point x="826" y="145"/>
      <point x="932" y="200"/>
      <point x="1007" y="283" type="curve"/>
      <point x="1007" y="840" type="line"/>
      <point x="936" y="943"/>
      <point x="828" y="1018"/>
      <point x="665" y="1018" type="curve" smooth="yes"/>
      <point x="441" y="1018"/>
      <point x="336" y="809"/>
    </contour>
  </outline>
</glyph>
<glyph name="s" format="1">
  <advance width="2048"/>
  <unicode hex="0073"/>
  <outline>
    <contour>
      <point x="165" y="861" type="curve" smooth="yes"/>
      <point x="165" y="1120"/>
      <point x="387" y="1188"/>
      <point x="598" y="1188" type="curve" smooth="yes"/>
      <point x="735" y="1188"/>
      <point x="888" y="1126"/>
      <point x="937" y="1037" type="curve"/>
      <point x="938" y="1122" type="line" smooth="yes"/>
      <point x="938" y="1163"/>
      <point x="972" y="1190"/>
      <point x="1013" y="1190" type="curve" smooth="yes"/>
      <point x="1072" y="1190"/>
      <point x="1101" y="1163"/>
      <point x="1101" y="1112" type="curve" smooth="yes"/>
      <point x="1097" y="823" type="line"/>
      <point x="1092" y="778"/>
      <point x="1061" y="754"/>
      <point x="1015" y="754" type="curve" smooth="yes"/>
      <point x="971" y="754"/>
      <point x="963" y="782"/>
      <point x="950" y="831" type="curve"/>
      <point x="905" y="972"/>
      <point x="739" y="1048"/>
      <point x="596" y="1048" type="curve" smooth="yes"/>
      <point x="473" y="1048"/>
      <point x="366" y="1001"/>
      <point x="366" y="903" type="curve" smooth="yes"/>
      <point x="366" y="818"/>
      <point x="417" y="778"/>
      <point x="540" y="747" type="curve"/>
      <point x="796" y="663" type="line" smooth="yes"/>
      <point x="976" y="603"/>
      <point x="1148" y="537"/>
      <point x="1148" y="311" type="curve" smooth="yes"/>
      <point x="1148" y="88"/>
      <point x="991" y="-27"/>
      <point x="716" y="-27" type="curve" smooth="yes"/>
      <point x="572" y="-27"/>
      <point x="372" y="21"/>
      <point x="296" y="105" type="curve"/>
      <point x="296" y="16"/>
      <point x="260" y="0"/>
      <point x="215" y="0" type="curve" smooth="yes"/>
      <point x="164" y="0"/>
      <point x="126" y="20"/>
      <point x="126" y="74" type="curve" smooth="yes"/>
      <point x="126" y="412" type="line"/>
      <point x="128" y="453"/>
      <point x="163" y="475"/>
      <point x="202" y="475" type="curve" smooth="yes"/>
      <point x="261" y="475"/>
      <point x="278" y="447"/>
      <point x="290" y="395" type="curve" smooth="yes"/>
      <point x="331" y="213"/>
      <point x="490" y="123"/>
      <point x="705" y="123" type="curve" smooth="yes"/>
      <point x="835" y="123"/>
      <point x="941" y="168"/>
      <point x="941" y="281" type="curve" smooth="yes"/>
      <point x="941" y="394"/>
      <point x="896" y="432"/>
      <point x="759" y="474" type="curve" smooth="yes"/>
      <point x="487" y="559" type="line" smooth="yes"/>
      <point x="317" y="613"/>
      <point x="165" y="687"/>
    </contour>
    <contour>
      <point x="1024" y="1160" type="move" name="top"/>
    </contour>
    <contour>
      <point x="1024" y="0" type="move" name="bottom"/>
    </contour>
  </outline>
</glyph>
<glyph name="t" format="1">
  <advance width="2048"/>
  <unicode hex="0074"/>
  <outline>
    <contour>
      <point x="574" y="134" type="curve" smooth="yes"/>
      <point x="703" y="134"/>
      <point x="707" y="242"/>
      <point x="783" y="242" type="curve" smooth="yes"/>
      <point x="825" y="242"/>
      <point x="855" y="208"/>
      <point x="855" y="166" type="curve" smooth="yes"/>
      <point x="855" y="47"/>
      <point x="675" y="-27"/>
      <point x="540" y="-27" type="curve" smooth="yes"/>
      <point x="383" y="-27"/>
      <point x="247" y="100"/>
      <point x="247" y="248" type="curve" smooth="yes"/>
      <point x="247" y="956" type="line"/>
      <point x="97" y="956" type="line" smooth="yes"/>
      <point x="41" y="956"/>
      <point x="15" y="991"/>
      <point x="15" y="1042" type="curve" smooth="yes"/>
      <point x="15" y="1091"/>
      <point x="39" y="1133"/>
      <point x="91" y="1133" type="curve" smooth="yes"/>
      <point x="247" y="1133" type="line"/>
      <point x="247" y="1255"/>
      <point x="250" y="1528"/>
      <point x="365" y="1528" type="curve" smooth="yes"/>
      <point x="398" y="1528"/>
      <point x="421" y="1520"/>
      <point x="445" y="1503" type="curve"/>
      <point x="445" y="1483" type="line" smooth="yes"/>
      <point x="445" y="1465"/>
      <point x="447" y="1442"/>
      <point x="447" y="1424" type="curve" smooth="yes"/>
      <point x="447" y="1133" type="line"/>
      <point x="709" y="1133" type="line" smooth="yes"/>
      <point x="760" y="1133"/>
      <point x="781" y="1090"/>
      <point x="781" y="1040" type="curve" smooth="yes"/>
      <point x="781" y="996"/>
      <point x="754" y="956"/>
      <point x="707" y="956" type="curve" smooth="yes"/>
      <point x="447" y="956" type="line"/>
      <point x="447" y="279" type="line" smooth="yes"/>
      <point x="447" y="174"/>
      <point x="500" y="134"/>
    </contour>
    <contour>
      <point x="1024" y="580" type="move" name="center"/>
    </contour>
    <contour>
      <point x="1024" y="0" type="move" name="bottom"/>
    </contour>
  </outline>
</glyph>
<glyph name="u" format="1">
  <advance width="2048"/>
  <unicode hex="0075"/>
  <outline>
    <contour>
      <point x="664" y="145" type="curve" smooth="yes"/>
      <point x="836" y="145"/>
      <point x="987" y="236"/>
      <point x="1043" y="354" type="curve"/>
      <point x="1043" y="979" type="line"/>
      <point x="900" y="944" type="line" smooth="yes"/>
      <point x="897" y="943"/>
      <point x="892" y="942"/>
      <point x="885" y="942" type="curve" smooth="yes"/>
      <point x="845" y="942"/>
      <point x="803" y="981"/>
      <point x="803" y="1022" type="curve" smooth="yes"/>
      <point x="803" y="1065"/>
      <point x="823" y="1096"/>
      <point x="861" y="1106" type="curve" smooth="yes"/>
      <point x="1180" y="1186" type="line" smooth="yes"/>
      <point x="1184" y="1187"/>
      <point x="1190" y="1188"/>
      <point x="1197" y="1188" type="curve" smooth="yes"/>
      <point x="1228" y="1188"/>
      <point x="1248" y="1171"/>
      <point x="1248" y="1139" type="curve" smooth="yes"/>
      <point x="1248" y="190" type="line"/>
      <point x="1399" y="190" type="line" smooth="yes"/>
      <point x="1444" y="190"/>
      <point x="1469" y="154"/>
      <point x="1469" y="109" type="curve" smooth="yes"/>
      <point x="1469" y="66"/>
      <point x="1450" y="35"/>
      <point x="1412" y="25" type="curve"/>
      <point x="1139" y="-4" type="line"/>
      <point x="1100" y="-4"/>
      <point x="1078" y="18"/>
      <point x="1068" y="84" type="curve" smooth="yes"/>
      <point x="1053" y="182" type="line"/>
      <point x="975" y="67"/>
      <point x="801" y="-25"/>
      <point x="627" y="-25" type="curve" smooth="yes"/>
      <point x="389" y="-25"/>
      <point x="250" y="141"/>
      <point x="250" y="383" type="curve" smooth="yes"/>
      <point x="250" y="979" type="line"/>
      <point x="107" y="944" type="line" smooth="yes"/>
      <point x="104" y="943"/>
      <point x="100" y="942"/>
      <point x="93" y="942" type="curve" smooth="yes"/>
      <point x="53" y="942"/>
      <point x="11" y="981"/>
      <point x="11" y="1022" type="curve" smooth="yes"/>
      <point x="11" y="1065"/>
      <point x="30" y="1096"/>
      <point x="68" y="1106" type="curve" smooth="yes"/>
      <point x="388" y="1186" type="line" smooth="yes"/>
      <point x="392" y="1187"/>
      <point x="397" y="1188"/>
      <point x="404" y="1188" type="curve" smooth="yes"/>
      <point x="435" y="1188"/>
      <point x="455" y="1171"/>
      <point x="455" y="1139" type="curve" smooth="yes"/>
      <point x="455" y="401" type="line" smooth="yes"/>
      <point x="455" y="254"/>
      <point x="522" y="145"/>
    </contour>
    <contour>
      <point x="1024" y="1160" type="move" name="top"/>
    </contour>
    <contour>
      <point x="1843" y="10" type="move" name="ogonek"/>
    </contour>
  </outline>
</glyph>
<glyph name="v" format="1">
  <advance width="2048"/>
  <unicode hex="0076"/>
  <outline>
    <contour>
      <point x="927.5" y="1049" type="curve" smooth="yes"/>
      <point x="927.5" y="999"/>
      <point x="907.5" y="956"/>
      <point x="856.5" y="956" type="curve" smooth="yes"/>
      <point x="741.5" y="956" type="line"/>
      <point x="1060.5" y="272" type="line"/>
      <point x="1353.5" y="956" type="line"/>
      <point x="1257.5" y="956" type="line" smooth="yes"/>
      <point x="1206.5" y="956"/>
      <point x="1185.5" y="999"/>
      <point x="1185.5" y="1049" type="curve" smooth="yes"/>
      <point x="1185.5" y="1093"/>
      <point x="1212.5" y="1133"/>
      <point x="1259.5" y="1133" type="curve" smooth="yes"/>
      <point x="1656.5" y="1133" type="line" smooth="yes"/>
      <point x="1713.5" y="1133"/>
      <point x="1738.5" y="1098"/>
      <point x="1738.5" y="1047" type="curve" smooth="yes"/>
      <point x="1738.5" y="998"/>
      <point x="1714.5" y="956"/>
      <point x="1662.5" y="956" type="curve" smooth="yes"/>
      <point x="1531.5" y="956" type="line"/>
      <point x="1155.5" y="117" type="line"/>
      <point x="1125.5" y="61"/>
      <point x="1098.5" y="0"/>
      <point x="1034.5" y="0" type="curve" smooth="yes"/>
      <point x="976.5" y="0"/>
      <point x="948.5" y="62"/>
      <point x="917.5" y="125" type="curve" smooth="yes"/>
      <point x="503.5" y="956" type="line"/>
      <point x="385.5" y="956" type="line" smooth="yes"/>
      <point x="334.5" y="956"/>
      <point x="309.5" y="997"/>
      <point x="309.5" y="1047" type="curve" smooth="yes"/>
      <point x="309.5" y="1098"/>
      <point x="335.5" y="1133"/>
      <point x="391.5" y="1133" type="curve" smooth="yes"/>
      <point x="854.5" y="1133" type="line" smooth="yes"/>
      <point x="901.5" y="1133"/>
      <point x="927.5" y="1093"/>
    </contour>
  </outline>
</glyph>
<glyph name="x" format="1">
  <advance width="2048"/>
  <unicode hex="0078"/>
  <outline>
    <contour>
      <point x="1119.5" y="86" type="curve" smooth="yes"/>
      <point x="1119.5" y="135"/>
      <point x="1142.5" y="176"/>
      <point x="1194.5" y="176" type="curve" smooth="yes"/>
      <point x="1311.5" y="176" type="line"/>
      <point x="1014.5" y="473" type="line"/>
      <point x="697.5" y="176" type="line"/>
      <point x="775.5" y="176" type="line" smooth="yes"/>
      <point x="826.5" y="176"/>
      <point x="846.5" y="134"/>
      <point x="846.5" y="84" type="curve" smooth="yes"/>
      <point x="846.5" y="40"/>
      <point x="820.5" y="0"/>
      <point x="773.5" y="0" type="curve" smooth="yes"/>
      <point x="367.5" y="0" type="line" smooth="yes"/>
      <point x="311.5" y="0"/>
      <point x="285.5" y="35"/>
      <point x="285.5" y="86" type="curve" smooth="yes"/>
      <point x="285.5" y="135"/>
      <point x="309.5" y="176"/>
      <point x="361.5" y="176" type="curve" smooth="yes"/>
      <point x="496.5" y="176" type="line"/>
      <point x="914.5" y="575" type="line"/>
      <point x="539.5" y="956" type="line"/>
      <point x="388.5" y="956" type="line" smooth="yes"/>
      <point x="332.5" y="956"/>
      <point x="306.5" y="992"/>
      <point x="306.5" y="1043" type="curve" smooth="yes"/>
      <point x="306.5" y="1092"/>
      <point x="329.5" y="1133"/>
      <point x="381.5" y="1133" type="curve" smooth="yes"/>
      <point x="816.5" y="1133" type="line" smooth="yes"/>
      <point x="867.5" y="1133"/>
      <point x="887.5" y="1091"/>
      <point x="887.5" y="1041" type="curve" smooth="yes"/>
      <point x="887.5" y="997"/>
      <point x="861.5" y="956"/>
      <point x="814.5" y="956" type="curve" smooth="yes"/>
      <point x="777.5" y="956" type="line"/>
      <point x="1043.5" y="698" type="line"/>
      <point x="1311.5" y="956" type="line"/>
      <point x="1262.5" y="956" type="line" smooth="yes"/>
      <point x="1206.5" y="956"/>
      <point x="1180.5" y="992"/>
      <point x="1180.5" y="1043" type="curve" smooth="yes"/>
      <point x="1180.5" y="1092"/>
      <point x="1204.5" y="1133"/>
      <point x="1256.5" y="1133" type="curve" smooth="yes"/>
      <point x="1690.5" y="1133" type="line" smooth="yes"/>
      <point x="1741.5" y="1133"/>
      <point x="1762.5" y="1091"/>
      <point x="1762.5" y="1041" type="curve" smooth="yes"/>
      <point x="1762.5" y="997"/>
      <point x="1735.5" y="956"/>
      <point x="1688.5" y="956" type="curve" smooth="yes"/>
      <point x="1528.5" y="956" type="line"/>
      <point x="1147.5" y="598" type="line"/>
      <point x="1586.5" y="176" type="line"/>
      <point x="1690.5" y="176" type="line" smooth="yes"/>
      <point x="1741.5" y="176"/>
      <point x="1762.5" y="134"/>
      <point x="1762.5" y="84" type="curve" smooth="yes"/>
      <point x="1762.5" y="40"/>
      <point x="1735.5" y="0"/>
      <point x="1688.5" y="0" type="curve" smooth="yes"/>
      <point x="1201.5" y="0" type="line" smooth="yes"/>
      <point x="1145.5" y="0"/>
      <point x="1119.5" y="35"/>
    </contour>
  </outline>
</glyph>
<glyph name="z" format="1">
  <advance width="2048"/>
  <unicode hex="007A"/>
  <outline>
    <contour>
      <point x="1106" y="1130" type="line" smooth="yes"/>
      <point x="1165" y="1130"/>
      <point x="1184" y="1112"/>
      <point x="1184" y="1086" type="curve" smooth="yes"/>
      <point x="1184" y="1041"/>
      <point x="1125" y="976"/>
      <point x="1104" y="954" type="curve" smooth="yes"/>
      <point x="361" y="176" type="line"/>
      <point x="1049" y="176" type="line"/>
      <point x="1079" y="467" type="line"/>
      <point x="1081" y="508"/>
      <point x="1116" y="530"/>
      <point x="1155" y="530" type="curve" smooth="yes"/>
      <point x="1210" y="530"/>
      <point x="1244" y="507"/>
      <point x="1244" y="461" type="curve" smooth="yes"/>
      <point x="1244" y="458"/>
      <point x="1243" y="455"/>
      <point x="1243" y="451" type="curve" smooth="yes"/>
      <point x="1202" y="68" type="line" smooth="yes"/>
      <point x="1198" y="32"/>
      <point x="1162" y="0"/>
      <point x="1127" y="0" type="curve" smooth="yes"/>
      <point x="164" y="0" type="line" smooth="yes"/>
      <point x="108" y="0"/>
      <point x="82" y="35"/>
      <point x="82" y="86" type="curve" smooth="yes"/>
      <point x="82" y="118"/>
      <point x="91" y="143"/>
      <point x="107" y="160" type="curve" smooth="yes"/>
      <point x="846" y="954" type="line"/>
      <point x="299" y="954" type="line"/>
      <point x="287" y="762" type="line"/>
      <point x="282" y="717"/>
      <point x="251" y="692"/>
      <point x="205" y="692" type="curve" smooth="yes"/>
      <point x="151" y="692"/>
      <point x="125" y="717"/>
      <point x="125" y="769" type="curve" smooth="yes"/>
      <point x="125" y="780" type="line"/>
      <point x="144" y="1063" type="line" smooth="yes"/>
      <point x="146" y="1098"/>
      <point x="176" y="1130"/>
      <point x="211" y="1130" type="curve" smooth="yes"/>
    </contour>
    <contour>
      <point x="1024" y="1160" type="move" name="top"/>
    </contour>
  </outline>
</glyph>
<glyph name="braceleft" format="1">
  <advance width="2048"/>
  <unicode hex="007B"/>
  <outline>
    <contour>
      <point x="569" y="949" type="curve" smooth="yes"/>
      <point x="569" y="860"/>
      <point x="544" y="749"/>
      <point x="386" y="720" type="curve"/>
      <point x="544" y="690"/>
      <point x="569" y="579"/>
      <point x="569" y="490" type="curve" smooth="yes"/>
      <point x="569" y="301"/>
      <point x="482" y="78"/>
      <point x="482" y="-95" type="curve" smooth="yes"/>
      <point x="482" y="-238"/>
      <point x="556" y="-341"/>
      <point x="844" y="-341" type="curve" smooth="yes"/>
      <point x="899" y="-341"/>
      <point x="946" y="-387"/>
      <point x="946" y="-443" type="curve" smooth="yes"/>
      <point x="946" y="-497"/>
      <point x="898" y="-546"/>
      <point x="844" y="-546" type="curve" smooth="yes"/>
      <point x="372" y="-546"/>
      <point x="260" y="-361"/>
      <point x="260" y="-134" type="curve" smooth="yes"/>
      <point x="260" y="76"/>
      <point x="352" y="321"/>
      <point x="352" y="491" type="curve" smooth="yes"/>
      <point x="352" y="564"/>
      <point x="315" y="617"/>
      <point x="171" y="617" type="curve" smooth="yes"/>
      <point x="116" y="617"/>
      <point x="69" y="663"/>
      <point x="69" y="719" type="curve" smooth="yes"/>
      <point x="69" y="720" type="line" smooth="yes"/>
      <point x="69" y="776"/>
      <point x="116" y="822"/>
      <point x="171" y="822" type="curve" smooth="yes"/>
      <point x="315" y="822"/>
      <point x="352" y="875"/>
      <point x="352" y="948" type="curve" smooth="yes"/>
      <point x="352" y="1118"/>
      <point x="260" y="1363"/>
      <point x="260" y="1573" type="curve" smooth="yes"/>
      <point x="260" y="1800"/>
      <point x="372" y="1985"/>
      <point x="844" y="1985" type="curve" smooth="yes"/>
      <point x="898" y="1985"/>
      <point x="946" y="1936"/>
      <point x="946" y="1882" type="curve" smooth="yes"/>
      <point x="946" y="1826"/>
      <point x="899" y="1780"/>
      <point x="844" y="1780" type="curve" smooth="yes"/>
      <point x="556" y="1780"/>
      <point x="482" y="1677"/>
      <point x="482" y="1534" type="curve" smooth="yes"/>
      <point x="482" y="1361"/>
      <point x="569" y="1138"/>
    </contour>
  </outline>
</glyph>
<glyph name="asciitilde" format="1">
  <advance width="2048"/>
  <unicode hex="007E"/>
  <outline>
    <contour>
      <point x="513" y="1065" type="curve" smooth="yes"/>
      <point x="513" y="1231"/>
      <point x="611" y="1350"/>
      <point x="733" y="1350" type="curve" smooth="yes"/>
      <point x="973" y="1350"/>
      <point x="1152" y="1168"/>
      <point x="1238" y="1168" type="curve" smooth="yes"/>
      <point x="1380" y="1168"/>
      <point x="1385" y="1330"/>
      <point x="1461" y="1330" type="curve" smooth="yes"/>
      <point x="1500" y="1330"/>
      <point x="1535" y="1312"/>
      <point x="1535" y="1276" type="curve" smooth="yes"/>
      <point x="1535" y="1109"/>
      <point x="1420" y="992"/>
      <point x="1276" y="992" type="curve" smooth="yes"/>
      <point x="1081" y="992"/>
      <point x="892" y="1173"/>
      <point x="763" y="1173" type="curve" smooth="yes"/>
      <point x="644" y="1173"/>
      <point x="644" y="1012"/>
      <point x="586" y="1012" type="curve" smooth="yes"/>
      <point x="548" y="1012"/>
      <point x="513" y="1029"/>
    </contour>
  </outline>
</glyph>
<glyph name="dieresis" format="1">
  <advance width="2048"/>
  <unicode hex="00A8"/>
  <outline>
    <contour>
      <point x="779" y="1432" type="curve" smooth="yes"/>
      <point x="706" y="1432"/>
      <point x="645" y="1492"/>
      <point x="645" y="1565" type="curve" smooth="yes"/>
      <point x="645" y="1638"/>
      <point x="706" y="1698"/>
      <point x="779" y="1698" type="curve" smooth="yes"/>
      <point x="852" y="1698"/>
      <point x="912" y="1638"/>
      <point x="912" y="1565" type="curve" smooth="yes"/>
      <point x="912" y="1492"/>
      <point x="852" y="1432"/>
    </contour>
    <contour>
      <point x="1270" y="1432" type="curve" smooth="yes"/>
      <point x="1197" y="1432"/>
      <point x="1137" y="1492"/>
      <point x="1137" y="1565" type="curve" smooth="yes"/>
      <point x="1137" y="1638"/>
      <point x="1197" y="1698"/>
      <point x="1270" y="1698" type="curve" smooth="yes"/>
      <point x="1343" y="1698"/>
      <point x="1403" y="1638"/>
      <point x="1403" y="1565" type="curve" smooth="yes"/>
      <point x="1403" y="1492"/>
      <point x="1343" y="1432"/>
    </contour>
    <contour>
      <point x="1024" y="1160" type="move" name="_top"/>
    </contour>
  </outline>
</glyph>
<glyph name="copyright" format="1">
  <advance width="2048"/>
  <unicode hex="00A9"/>
  <outline>
    <contour>
      <point x="1921" y="850" type="curve" smooth="yes"/>
      <point x="1921" y="319"/>
      <point x="1553" y="-25"/>
      <point x="1024" y="-25" type="curve" smooth="yes"/>
      <point x="495" y="-25"/>
      <point x="127" y="319"/>
      <point x="127" y="850" type="curve" smooth="yes"/>
      <point x="127" y="1382"/>
      <point x="494" y="1739"/>
      <point x="1024" y="1739" type="curve" smooth="yes"/>
      <point x="1554" y="1739"/>
      <point x="1921" y="1382"/>
    </contour>
    <contour>
      <point x="1030" y="469" type="curve" smooth="yes"/>
      <point x="1196" y="469"/>
      <point x="1319" y="562"/>
      <point x="1319" y="731" type="curve" smooth="yes"/>
      <point x="1319" y="763"/>
      <point x="1357" y="774"/>
      <point x="1392" y="774" type="curve" smooth="yes"/>
      <point x="1421" y="774"/>
      <point x="1464" y="759"/>
      <point x="1464" y="729" type="curve" smooth="yes"/>
      <point x="1464" y="508" type="line" smooth="yes"/>
      <point x="1464" y="487"/>
      <point x="1463" y="480"/>
      <point x="1446" y="473" type="curve"/>
      <point x="1347" y="387"/>
      <point x="1206" y="319"/>
      <point x="1030" y="319" type="curve" smooth="yes"/>
      <point x="710" y="319"/>
      <point x="497" y="537"/>
      <point x="497" y="858" type="curve" smooth="yes"/>
      <point x="497" y="1181"/>
      <point x="710" y="1405"/>
      <point x="1030" y="1405" type="curve" smooth="yes"/>
      <point x="1145" y="1405"/>
      <point x="1231" y="1367"/>
      <point x="1298" y="1307" type="curve"/>
      <point x="1298" y="1348" type="line" smooth="yes"/>
      <point x="1298" y="1380"/>
      <point x="1338" y="1391"/>
      <point x="1372" y="1391" type="curve" smooth="yes"/>
      <point x="1400" y="1391"/>
      <point x="1444" y="1376"/>
      <point x="1444" y="1348" type="curve" smooth="yes"/>
      <point x="1444" y="1083" type="line" smooth="yes"/>
      <point x="1444" y="1053"/>
      <point x="1401" y="1040"/>
      <point x="1372" y="1040" type="curve" smooth="yes"/>
      <point x="1336" y="1040"/>
      <point x="1321" y="1079"/>
      <point x="1302" y="1106" type="curve"/>
      <point x="1244" y="1195"/>
      <point x="1159" y="1262"/>
      <point x="1030" y="1262" type="curve" smooth="yes"/>
      <point x="809" y="1262"/>
      <point x="686" y="1080"/>
      <point x="686" y="858" type="curve" smooth="yes"/>
      <point x="686" y="639"/>
      <point x="813" y="469"/>
    </contour>
    <contour>
      <point x="293" y="854" type="curve" smooth="yes"/>
      <point x="293" y="417"/>
      <point x="579" y="123"/>
      <point x="1024" y="123" type="curve" smooth="yes"/>
      <point x="1469" y="123"/>
      <point x="1755" y="417"/>
      <point x="1755" y="854" type="curve" smooth="yes"/>
      <point x="1755" y="1289"/>
      <point x="1467" y="1591"/>
      <point x="1024" y="1591" type="curve" smooth="yes"/>
      <point x="581" y="1591"/>
      <point x="293" y="1289"/>
    </contour>
  </outline>
</glyph>
<glyph name="registered" format="1">
  <advance width="2048"/>
  <unicode hex="00AE"/>
  <outline>
    <contour>
      <point x="876" y="986" type="line" smooth="yes"/>
      <point x="1080" y="986"/>
      <point x="1262" y="988"/>
      <point x="1262" y="1132" type="curve" smooth="yes"/>
      <point x="1262" y="1307"/>
      <point x="1071" y="1307"/>
      <point x="891" y="1307" type="curve" smooth="yes"/>
      <point x="813" y="1307" type="line"/>
      <point x="813" y="986" type="line"/>
    </contour>
    <contour>
      <point x="1422" y="1135" type="curve" smooth="yes"/>
      <point x="1422" y="970"/>
      <point x="1294" y="912"/>
      <point x="1118" y="886" type="curve"/>
      <point x="1366" y="478" type="line"/>
      <point x="1454" y="478" type="line" smooth="yes"/>
      <point x="1508" y="478"/>
      <point x="1527" y="462"/>
      <point x="1527" y="416" type="curve" smooth="yes"/>
      <point x="1527" y="366"/>
      <point x="1498" y="359"/>
      <point x="1456" y="359" type="curve" smooth="yes"/>
      <point x="1455" y="359" type="line"/>
      <point x="1144" y="360" type="line" smooth="yes"/>
      <point x="1113" y="360"/>
      <point x="1095" y="387"/>
      <point x="1095" y="416" type="curve" smooth="yes"/>
      <point x="1095" y="450"/>
      <point x="1109" y="478"/>
      <point x="1143" y="478" type="curve" smooth="yes"/>
      <point x="1206" y="478" type="line"/>
      <point x="985" y="867" type="line"/>
      <point x="813" y="867" type="line"/>
      <point x="813" y="478" type="line"/>
      <point x="930" y="478" type="line" smooth="yes"/>
      <point x="964" y="478"/>
      <point x="978" y="450"/>
      <point x="978" y="416" type="curve" smooth="yes"/>
      <point x="978" y="387"/>
      <point x="959" y="360"/>
      <point x="928" y="360" type="curve" smooth="yes"/>
      <point x="568" y="360" type="line" smooth="yes"/>
      <point x="537" y="360"/>
      <point x="518" y="387"/>
      <point x="518" y="416" type="curve" smooth="yes"/>
      <point x="518" y="450"/>
      <point x="532" y="478"/>
      <point x="566" y="478" type="curve" smooth="yes"/>
      <point x="656" y="478" type="line"/>
      <point x="656" y="1307" type="line"/>
      <point x="594" y="1307" type="line" smooth="yes"/>
      <point x="560" y="1307"/>
      <point x="546" y="1336"/>
      <point x="546" y="1369" type="curve" smooth="yes"/>
      <point x="546" y="1398"/>
      <point x="564" y="1425"/>
      <point x="595" y="1425" type="curve" smooth="yes"/>
      <point x="912" y="1425" type="line" smooth="yes"/>
      <point x="1176" y="1425"/>
      <point x="1422" y="1379"/>
    </contour>
    <contour>
      <point x="295" y="860" type="curve" smooth="yes"/>
      <point x="295" y="442"/>
      <point x="601" y="106"/>
      <point x="1024" y="106" type="curve" smooth="yes"/>
      <point x="1447" y="106"/>
      <point x="1753" y="442"/>
      <point x="1753" y="860" type="curve" smooth="yes"/>
      <point x="1753" y="1278"/>
      <point x="1447" y="1614"/>
      <point x="1024" y="1614" type="curve" smooth="yes"/>
      <point x="601" y="1614"/>
      <point x="295" y="1278"/>
    </contour>
    <contour>
      <point x="125" y="860" type="curve" smooth="yes"/>
      <point x="125" y="1358"/>
      <point x="516" y="1757"/>
      <point x="1024" y="1757" type="curve" smooth="yes"/>
      <point x="1532" y="1757"/>
      <point x="1923" y="1358"/>
      <point x="1923" y="860" type="curve" smooth="yes"/>
      <point x="1923" y="362"/>
      <point x="1532" y="-37"/>
      <point x="1024" y="-37" type="curve" smooth="yes"/>
      <point x="516" y="-37"/>
      <point x="125" y="362"/>
    </contour>
  </outline>
</glyph>
<glyph name="macron" format="1">
  <advance width="2048"/>
  <unicode hex="00AF"/>
  <outline>
    <contour>
      <point x="1293" y="1481.8" type="curve" smooth="yes"/>
      <point x="763" y="1481.8" type="line" smooth="yes"/>
      <point x="708" y="1481.8"/>
      <point x="681" y="1521.8"/>
      <point x="681" y="1560.8" type="curve" smooth="yes"/>
      <point x="681" y="1599.8"/>
      <point x="707" y="1637.8"/>
      <point x="757" y="1637.8" type="curve" smooth="yes"/>
      <point x="1295" y="1637.8" type="line" smooth="yes"/>
      <point x="1343" y="1637.8"/>
      <point x="1367" y="1599.8"/>
      <point x="1367" y="1560.8" type="curve" smooth="yes"/>
      <point x="1367" y="1521.8"/>
      <point x="1342" y="1481.8"/>
    </contour>
    <contour>
      <point x="1024" y="1160" type="move" name="_top"/>
    </contour>
  </outline>
</glyph>
<glyph name="degree" format="1">
  <advance width="2048"/>
  <unicode hex="00B0"/>
  <outline>
    <contour>
      <point x="1029.5" y="1642" type="curve" smooth="yes"/>
      <point x="1271.5" y="1642"/>
      <point x="1391.5" y="1461"/>
      <point x="1391.5" y="1278" type="curve" smooth="yes"/>
      <point x="1391.5" y="1097"/>
      <point x="1265.5" y="912"/>
      <point x="1022.5" y="912" type="curve" smooth="yes"/>
      <point x="779.5" y="912"/>
      <point x="656.5" y="1091"/>
      <point x="656.5" y="1271" type="curve" smooth="yes"/>
      <point x="656.5" y="1456"/>
      <point x="785.5" y="1642"/>
    </contour>
    <contour>
      <point x="1034.5" y="1052" type="curve" smooth="yes"/>
      <point x="1171.5" y="1052"/>
      <point x="1236.5" y="1154"/>
      <point x="1236.5" y="1274" type="curve" smooth="yes"/>
      <point x="1236.5" y="1394"/>
      <point x="1168.5" y="1500"/>
      <point x="1028.5" y="1500" type="curve" smooth="yes"/>
      <point x="888.5" y="1500"/>
      <point x="820.5" y="1394"/>
      <point x="820.5" y="1274" type="curve" smooth="yes"/>
      <point x="820.5" y="1155"/>
      <point x="899.5" y="1052"/>
    </contour>
  </outline>
</glyph>
<glyph name="uni00B2" format="1">
  <advance width="2048"/>
  <unicode hex="00B2"/>
  <outline>
    <contour>
      <point x="1013" y="1493" type="curve" smooth="yes"/>
      <point x="1013" y="1106"/>
      <point x="517" y="955"/>
      <point x="471" y="684" type="curve"/>
      <point x="920" y="684" type="line"/>
      <point x="982" y="826" type="line"/>
      <point x="993" y="856"/>
      <point x="1017" y="879"/>
      <point x="1052" y="879" type="curve" smooth="yes"/>
      <point x="1082" y="879"/>
      <point x="1104" y="859"/>
      <point x="1104" y="827" type="curve" smooth="yes"/>
      <point x="1104" y="818"/>
      <point x="1101" y="810"/>
      <point x="1100" y="801" type="curve"/>
      <point x="1055" y="601" type="line"/>
      <point x="1046" y="568"/>
      <point x="1031" y="547"/>
      <point x="998" y="547" type="curve" smooth="yes"/>
      <point x="325" y="547" type="line"/>
      <point x="319" y="647" type="line"/>
      <point x="319" y="699"/>
      <point x="331" y="752"/>
      <point x="357" y="805" type="curve" smooth="yes"/>
      <point x="455" y="1009"/>
      <point x="847" y="1294"/>
      <point x="847" y="1486" type="curve" smooth="yes"/>
      <point x="847" y="1580"/>
      <point x="740" y="1612"/>
      <point x="645" y="1612" type="curve" smooth="yes"/>
      <point x="544" y="1612"/>
      <point x="491" y="1579"/>
      <point x="437" y="1539" type="curve" smooth="yes"/>
      <point x="425" y="1530"/>
      <point x="411" y="1525"/>
      <point x="396" y="1525" type="curve" smooth="yes"/>
      <point x="359" y="1525"/>
      <point x="329" y="1549"/>
      <point x="329" y="1587" type="curve" smooth="yes"/>
      <point x="329" y="1602"/>
      <point x="338" y="1620"/>
      <point x="357" y="1639" type="curve" smooth="yes"/>
      <point x="419" y="1702"/>
      <point x="534" y="1749"/>
      <point x="661" y="1749" type="curve" smooth="yes"/>
      <point x="842" y="1749"/>
      <point x="1013" y="1674"/>
    </contour>
  </outline>
</glyph>
<glyph name="cedilla" format="1">
  <advance width="2048"/>
  <unicode hex="00B8"/>
  <outline>
    <contour>
      <point x="264" y="0" type="line"/>
      <point x="204" y="-501" type="line"/>
      <point x="196" y="-619"/>
      <point x="127" y="-675"/>
      <point x="62" y="-675" type="curve" smooth="yes"/>
      <point x="4" y="-675"/>
      <point x="-50" y="-629"/>
      <point x="-50" y="-538" type="curve" smooth="yes"/>
      <point x="-50" y="-472"/>
      <point x="106" y="-49"/>
      <point x="136" y="0" type="curve"/>
    </contour>
    <contour>
      <point x="107" y="0" type="move" name="_bottom"/>
    </contour>
  </outline>
</glyph>
<glyph name="uni00B9" format="1">
  <advance width="2048"/>
  <unicode hex="00B9"/>
  <outline>
    <contour>
      <point x="790" y="1485" type="line"/>
      <point x="384" y="989" type="line"/>
      <point x="790" y="989" type="line"/>
    </contour>
    <contour>
      <point x="1127" y="560" type="curve" smooth="yes"/>
      <point x="1127" y="530"/>
      <point x="1108" y="500"/>
      <point x="1076" y="500" type="curve" smooth="yes"/>
      <point x="594" y="500" type="line" smooth="yes"/>
      <point x="562" y="500"/>
      <point x="543" y="530"/>
      <point x="543" y="560" type="curve" smooth="yes"/>
      <point x="543" y="595"/>
      <point x="558" y="622"/>
      <point x="593" y="622" type="curve" smooth="yes"/>
      <point x="790" y="622" type="line"/>
      <point x="790" y="880" type="line"/>
      <point x="267" y="880" type="line" smooth="yes"/>
      <point x="238" y="880"/>
      <point x="222" y="906"/>
      <point x="222" y="932" type="curve" smooth="yes"/>
      <point x="222" y="952"/>
      <point x="228" y="970"/>
      <point x="237" y="979" type="curve"/>
      <point x="434" y="1224"/>
      <point x="632" y="1464"/>
      <point x="831" y="1705" type="curve" smooth="yes"/>
      <point x="838" y="1714"/>
      <point x="849" y="1721"/>
      <point x="861" y="1721" type="curve" smooth="yes"/>
      <point x="891" y="1721"/>
      <point x="923" y="1691"/>
      <point x="923" y="1661" type="curve" smooth="yes"/>
      <point x="923" y="989" type="line"/>
      <point x="1124" y="989" type="line" smooth="yes"/>
      <point x="1156" y="989"/>
      <point x="1168" y="964"/>
      <point x="1168" y="932" type="curve" smooth="yes"/>
      <point x="1168" y="906"/>
      <point x="1151" y="880"/>
      <point x="1122" y="880" type="curve" smooth="yes"/>
      <point x="923" y="880" type="line"/>
      <point x="923" y="622" type="line"/>
      <point x="1078" y="622" type="line" smooth="yes"/>
      <point x="1113" y="622"/>
      <point x="1127" y="595"/>
    </contour>
  </outline>
</glyph>
<glyph name="guillemotright" format="1">
  <advance width="2048"/>
  <unicode hex="00BB"/>
  <outline>
    <contour>
      <point x="868" y="273" type="line"/>
      <point x="838" y="260"/>
      <point x="812" y="254"/>
      <point x="790" y="254" type="curve" smooth="yes"/>
      <point x="739" y="254"/>
      <point x="711" y="285"/>
      <point x="711" y="324" type="curve" smooth="yes"/>
      <point x="711" y="361"/>
      <point x="736" y="406"/>
      <point x="792" y="440" type="curve"/>
      <point x="1204" y="751" type="line"/>
      <point x="794" y="1064" type="line"/>
      <point x="743" y="1094"/>
      <point x="720" y="1137"/>
      <point x="720" y="1175" type="curve" smooth="yes"/>
      <point x="720" y="1221"/>
      <point x="753" y="1259"/>
      <point x="808" y="1259" type="curve" smooth="yes"/>
      <point x="830" y="1259"/>
      <point x="854" y="1253"/>
      <point x="882" y="1240" type="curve"/>
      <point x="1432" y="837" type="line"/>
      <point x="1471" y="812"/>
      <point x="1498" y="788"/>
      <point x="1498" y="755" type="curve" smooth="yes"/>
      <point x="1498" y="723"/>
      <point x="1470" y="700"/>
      <point x="1432" y="676" type="curve"/>
    </contour>
    <contour>
      <point x="238" y="273" type="line"/>
      <point x="208" y="260"/>
      <point x="182" y="254"/>
      <point x="160" y="254" type="curve" smooth="yes"/>
      <point x="109" y="254"/>
      <point x="81" y="285"/>
      <point x="81" y="324" type="curve" smooth="yes"/>
      <point x="81" y="361"/>
      <point x="106" y="406"/>
      <point x="162" y="440" type="curve"/>
      <point x="574" y="751" type="line"/>
      <point x="164" y="1064" type="line"/>
      <point x="113" y="1094"/>
      <point x="90" y="1137"/>
      <point x="90" y="1175" type="curve" smooth="yes"/>
      <point x="90" y="1221"/>
      <point x="123" y="1259"/>
      <point x="178" y="1259" type="curve" smooth="yes"/>
      <point x="200" y="1259"/>
      <point x="224" y="1253"/>
      <point x="252" y="1240" type="curve"/>
      <point x="802" y="837" type="line"/>
      <point x="841" y="812"/>
      <point x="868" y="788"/>
      <point x="868" y="755" type="curve" smooth="yes"/>
      <point x="868" y="723"/>
      <point x="840" y="700"/>
      <point x="802" y="676" type="curve"/>
    </contour>
  </outline>
</glyph>
<glyph name="onequarter" format="1">
  <advance width="2048"/>
  <unicode hex="00BC"/>
  <outline>
    <contour>
      <point x="1784" y="987" type="line"/>
      <point x="1378" y="491" type="line"/>
      <point x="1784" y="491" type="line"/>
    </contour>
    <contour>
      <point x="2121" y="62" type="curve" smooth="yes"/>
      <point x="2121" y="32"/>
      <point x="2102" y="2"/>
      <point x="2070" y="2" type="curve" smooth="yes"/>
      <point x="1588" y="2" type="line" smooth="yes"/>
      <point x="1556" y="2"/>
      <point x="1537" y="32"/>
      <point x="1537" y="62" type="curve" smooth="yes"/>
      <point x="1537" y="97"/>
      <point x="1552" y="124"/>
      <point x="1587" y="124" type="curve" smooth="yes"/>
      <point x="1784" y="124" type="line"/>
      <point x="1784" y="382" type="line"/>
      <point x="1261" y="382" type="line" smooth="yes"/>
      <point x="1232" y="382"/>
      <point x="1216" y="408"/>
      <point x="1216" y="434" type="curve" smooth="yes"/>
      <point x="1216" y="454"/>
      <point x="1222" y="472"/>
      <point x="1231" y="481" type="curve"/>
      <point x="1428" y="726"/>
      <point x="1626" y="966"/>
      <point x="1825" y="1207" type="curve" smooth="yes"/>
      <point x="1832" y="1216"/>
      <point x="1843" y="1223"/>
      <point x="1855" y="1223" type="curve" smooth="yes"/>
      <point x="1885" y="1223"/>
      <point x="1917" y="1193"/>
      <point x="1917" y="1163" type="curve" smooth="yes"/>
      <point x="1917" y="491" type="line"/>
      <point x="2118" y="491" type="line" smooth="yes"/>
      <point x="2150" y="491"/>
      <point x="2162" y="466"/>
      <point x="2162" y="434" type="curve" smooth="yes"/>
      <point x="2162" y="408"/>
      <point x="2145" y="382"/>
      <point x="2116" y="382" type="curve" smooth="yes"/>
      <point x="1917" y="382" type="line"/>
      <point x="1917" y="124" type="line"/>
      <point x="2072" y="124" type="line" smooth="yes"/>
      <point x="2107" y="124"/>
      <point x="2121" y="97"/>
    </contour>
    <contour>
      <point x="75" y="541" type="curve" smooth="yes"/>
      <point x="75" y="575"/>
      <point x="92" y="603"/>
      <point x="128" y="603" type="curve" smooth="yes"/>
      <point x="300" y="603" type="line"/>
      <point x="300" y="1580" type="line"/>
      <point x="182" y="1570" type="line"/>
      <point x="144" y="1570"/>
      <point x="123" y="1597"/>
      <point x="123" y="1634" type="curve" smooth="yes"/>
      <point x="123" y="1666"/>
      <point x="140" y="1693"/>
      <point x="170" y="1695" type="curve" smooth="yes"/>
      <point x="407" y="1716" type="line"/>
      <point x="440" y="1716"/>
      <point x="455" y="1709"/>
      <point x="455" y="1669" type="curve" smooth="yes"/>
      <point x="455" y="603" type="line"/>
      <point x="580" y="603" type="line" smooth="yes"/>
      <point x="615" y="603"/>
      <point x="631" y="574"/>
      <point x="631" y="539" type="curve" smooth="yes"/>
      <point x="631" y="509"/>
      <point x="611" y="480"/>
      <point x="579" y="480" type="curve" smooth="yes"/>
      <point x="132" y="480" type="line" smooth="yes"/>
      <point x="92" y="480"/>
      <point x="75" y="506"/>
    </contour>
    <contour>
      <point x="567" y="-93" type="curve" smooth="yes"/>
      <point x="532" y="-93"/>
      <point x="491" y="-58"/>
      <point x="491" y="-15" type="curve" smooth="yes"/>
      <point x="491" y="-6"/>
      <point x="493" y="1"/>
      <point x="499" y="9" type="curve" smooth="yes"/>
      <point x="1575" y="1757" type="line" smooth="yes"/>
      <point x="1585" y="1774"/>
      <point x="1602" y="1783"/>
      <point x="1627" y="1783" type="curve" smooth="yes"/>
      <point x="1661" y="1783"/>
      <point x="1701" y="1750"/>
      <point x="1701" y="1705" type="curve" smooth="yes"/>
      <point x="1701" y="1697"/>
      <point x="1698" y="1692"/>
      <point x="1694" y="1684" type="curve" smooth="yes"/>
      <point x="625" y="-61" type="line"/>
      <point x="612" y="-80"/>
      <point x="597" y="-93"/>
    </contour>
  </outline>
</glyph>
<glyph name="questiondown" format="1">
  <advance width="2048"/>
  <unicode hex="00BF"/>
  <outline>
    <contour>
      <point x="446" y="1557" type="curve" smooth="yes"/>
      <point x="446" y="1665"/>
      <point x="536" y="1741"/>
      <point x="644" y="1741" type="curve" smooth="yes"/>
      <point x="739" y="1741"/>
      <point x="790" y="1653"/>
      <point x="790" y="1559" type="curve" smooth="yes"/>
      <point x="790" y="1459"/>
      <point x="716" y="1374"/>
      <point x="616" y="1374" type="curve" smooth="yes"/>
      <point x="520" y="1374"/>
      <point x="446" y="1462"/>
    </contour>
    <contour>
      <point x="607" y="1238" type="curve" smooth="yes"/>
      <point x="720" y="1238"/>
      <point x="726" y="1156"/>
      <point x="726" y="1054" type="curve" smooth="yes"/>
      <point x="726" y="1041" type="line" smooth="yes"/>
      <point x="726" y="729"/>
      <point x="304" y="760"/>
      <point x="304" y="438" type="curve" smooth="yes"/>
      <point x="304" y="232"/>
      <point x="441" y="170"/>
      <point x="648" y="170" type="curve" smooth="yes"/>
      <point x="693" y="170"/>
      <point x="731" y="177"/>
      <point x="755" y="201" type="curve"/>
      <point x="766" y="347"/>
      <point x="764" y="481"/>
      <point x="923" y="481" type="curve" smooth="yes"/>
      <point x="1006" y="481"/>
      <point x="1062" y="410"/>
      <point x="1062" y="328" type="curve" smooth="yes"/>
      <point x="1062" y="91"/>
      <point x="810" y="-22"/>
      <point x="573" y="-22" type="curve" smooth="yes"/>
      <point x="270" y="-22"/>
      <point x="26" y="166"/>
      <point x="26" y="467" type="curve" smooth="yes"/>
      <point x="26" y="819"/>
      <point x="492" y="798"/>
      <point x="492" y="1077" type="curve" smooth="yes"/>
      <point x="492" y="1169"/>
      <point x="518" y="1238"/>
    </contour>
  </outline>
</glyph>
<glyph name="AE" format="1">
  <advance width="2048"/>
  <unicode hex="00C6"/>
  <outline>
    <contour>
      <point x="-77" y="74" type="curve" smooth="yes"/>
      <point x="-77" y="121"/>
      <point x="-45" y="176"/>
      <point x="3" y="176" type="curve" smooth="yes"/>
      <point x="140" y="176" type="line"/>
      <point x="1115" y="1649" type="line"/>
      <point x="1160" y="1713"/>
      <point x="1222" y="1714"/>
      <point x="1326" y="1714" type="curve" smooth="yes"/>
      <point x="2368" y="1714" type="line" smooth="yes"/>
      <point x="2484" y="1714"/>
      <point x="2551" y="1367"/>
      <point x="2551" y="1276" type="curve" smooth="yes"/>
      <point x="2551" y="1235"/>
      <point x="2529" y="1206"/>
      <point x="2485" y="1206" type="curve" smooth="yes"/>
      <point x="2426" y="1206"/>
      <point x="2384" y="1234"/>
      <point x="2371" y="1282" type="curve" smooth="yes"/>
      <point x="2303" y="1538" type="line"/>
      <point x="1394" y="1538" type="line"/>
      <point x="1498" y="967" type="line"/>
      <point x="1818" y="967" type="line"/>
      <point x="1836" y="1153" type="line"/>
      <point x="1841" y="1192"/>
      <point x="1864" y="1221"/>
      <point x="1904" y="1221" type="curve" smooth="yes"/>
      <point x="1952" y="1221"/>
      <point x="1985" y="1186"/>
      <point x="1990" y="1141" type="curve" smooth="yes"/>
      <point x="2016" y="899" type="line"/>
      <point x="2076" y="649" type="line"/>
      <point x="2076" y="635" type="line" smooth="yes"/>
      <point x="2076" y="591"/>
      <point x="2056" y="569"/>
      <point x="2016" y="569" type="curve" smooth="yes"/>
      <point x="1972" y="569"/>
      <point x="1944" y="602"/>
      <point x="1928" y="637" type="curve" smooth="yes"/>
      <point x="1844" y="823" type="line"/>
      <point x="1525" y="823" type="line"/>
      <point x="1643" y="176" type="line"/>
      <point x="2452" y="176" type="line"/>
      <point x="2516" y="506" type="line"/>
      <point x="2527" y="550"/>
      <point x="2554" y="582"/>
      <point x="2602" y="582" type="curve" smooth="yes"/>
      <point x="2649" y="582"/>
      <point x="2683" y="551"/>
      <point x="2690" y="508" type="curve"/>
      <point x="2690" y="488" type="line" smooth="yes"/>
      <point x="2690" y="482"/>
      <point x="2691" y="476"/>
      <point x="2694" y="469" type="curve"/>
      <point x="2694" y="78" type="line"/>
      <point x="2690" y="27"/>
      <point x="2672" y="0"/>
      <point x="2627" y="0" type="curve" smooth="yes"/>
      <point x="1156" y="0" type="line" smooth="yes"/>
      <point x="1111" y="0"/>
      <point x="1091" y="35"/>
      <point x="1091" y="78" type="curve" smooth="yes"/>
      <point x="1091" y="127"/>
      <point x="1120" y="176"/>
      <point x="1172" y="176" type="curve" smooth="yes"/>
      <point x="1398" y="176" type="line"/>
      <point x="1334" y="567" type="line"/>
      <point x="605" y="567" type="line"/>
      <point x="361" y="176" type="line"/>
      <point x="548" y="176" type="line" smooth="yes"/>
      <point x="597" y="176"/>
      <point x="630" y="142"/>
      <point x="630" y="96" type="curve" smooth="yes"/>
      <point x="630" y="41"/>
      <point x="587" y="0"/>
      <point x="527" y="0" type="curve" smooth="yes"/>
      <point x="-13" y="0" type="line" smooth="yes"/>
      <point x="-55" y="0"/>
      <point x="-77" y="34"/>
    </contour>
    <contour>
      <point x="699" y="721" type="line"/>
      <point x="1310" y="721" type="line"/>
      <point x="1185" y="1499" type="line"/>
    </contour>
    <contour>
      <point x="1024" y="1714" type="move" name="top"/>
    </contour>
  </outline>
</glyph>
<glyph name="Oslash" format="1">
  <advance width="2048"/>
  <unicode hex="00D8"/>
  <outline>
    <contour>
      <point x="957" y="1550" type="curve" smooth="yes"/>
      <point x="558" y="1550"/>
      <point x="327" y="1256"/>
      <point x="327" y="850" type="curve" smooth="yes"/>
      <point x="327" y="594"/>
      <point x="422" y="387"/>
      <point x="595" y="270" type="curve"/>
      <point x="1190" y="1515" type="line"/>
      <point x="1120" y="1538"/>
      <point x="1042" y="1550"/>
    </contour>
    <contour>
      <point x="974" y="164" type="curve" smooth="yes"/>
      <point x="1375" y="164"/>
      <point x="1615" y="438"/>
      <point x="1615" y="848" type="curve" smooth="yes"/>
      <point x="1615" y="1106"/>
      <point x="1519" y="1315"/>
      <point x="1348" y="1436" type="curve"/>
      <point x="755" y="195" type="line"/>
      <point x="821" y="175"/>
      <point x="894" y="164"/>
    </contour>
    <contour>
      <point x="499" y="-341" type="line"/>
      <point x="484" y="-370"/>
      <point x="467" y="-389"/>
      <point x="432" y="-389" type="curve" smooth="yes"/>
      <point x="385" y="-389"/>
      <point x="327" y="-351"/>
      <point x="327" y="-303" type="curve" smooth="yes"/>
      <point x="327" y="-292"/>
      <point x="330" y="-282"/>
      <point x="335" y="-272" type="curve" smooth="yes"/>
      <point x="505" y="83" type="line"/>
      <point x="240" y="224"/>
      <point x="77" y="496"/>
      <point x="77" y="850" type="curve" smooth="yes"/>
      <point x="77" y="1382"/>
      <point x="442" y="1739"/>
      <point x="966" y="1739" type="curve" smooth="yes"/>
      <point x="1077" y="1739"/>
      <point x="1181" y="1723"/>
      <point x="1276" y="1694" type="curve"/>
      <point x="1443" y="2042" type="line"/>
      <point x="1454" y="2068"/>
      <point x="1475" y="2081"/>
      <point x="1505" y="2081" type="curve" smooth="yes"/>
      <point x="1551" y="2081"/>
      <point x="1607" y="2045"/>
      <point x="1607" y="1995" type="curve" smooth="yes"/>
      <point x="1607" y="1985"/>
      <point x="1605" y="1977"/>
      <point x="1601" y="1967" type="curve" smooth="yes"/>
      <point x="1438" y="1625" type="line"/>
      <point x="1701" y="1479"/>
      <point x="1863" y="1203"/>
      <point x="1863" y="850" type="curve" smooth="yes"/>
      <point x="1863" y="320"/>
      <point x="1494" y="-25"/>
      <point x="966" y="-25" type="curve" smooth="yes"/>
      <point x="860" y="-25"/>
      <point x="761" y="-11"/>
      <point x="669" y="16" type="curve"/>
    </contour>
    <contour>
      <point x="1024" y="1714" type="move" name="top"/>
    </contour>
  </outline>
</glyph>
<glyph name="Thorn" format="1">
  <advance width="2048"/>
  <unicode hex="00DE"/>
  <outline>
    <contour>
      <point x="1545" y="907" type="curve" smooth="yes"/>
      <point x="1545" y="471"/>
      <point x="1070" y="460"/>
      <point x="638" y="460" type="curve"/>
      <point x="638" y="176" type="line"/>
      <point x="943" y="176" type="line" smooth="yes"/>
      <point x="994" y="176"/>
      <point x="1015" y="134"/>
      <point x="1015" y="84" type="curve" smooth="yes"/>
      <point x="1015" y="40"/>
      <point x="988" y="0"/>
      <point x="941" y="0" type="curve" smooth="yes"/>
      <point x="142" y="0" type="line" smooth="yes"/>
      <point x="95" y="0"/>
      <point x="68" y="40"/>
      <point x="68" y="84" type="curve" smooth="yes"/>
      <point x="68" y="134"/>
      <point x="89" y="176"/>
      <point x="140" y="176" type="curve" smooth="yes"/>
      <point x="404" y="176" type="line"/>
      <point x="404" y="1536" type="line"/>
      <point x="160" y="1536" type="line" smooth="yes"/>
      <point x="109" y="1536"/>
      <point x="88" y="1578"/>
      <point x="88" y="1628" type="curve" smooth="yes"/>
      <point x="88" y="1672"/>
      <point x="115" y="1712"/>
      <point x="162" y="1712" type="curve" smooth="yes"/>
      <point x="861" y="1712" type="line" smooth="yes"/>
      <point x="899" y="1712"/>
      <point x="921" y="1672"/>
      <point x="921" y="1628" type="curve" smooth="yes"/>
      <point x="921" y="1578"/>
      <point x="900" y="1536"/>
      <point x="849" y="1536" type="curve" smooth="yes"/>
      <point x="638" y="1536" type="line"/>
      <point x="638" y="1359" type="line"/>
      <point x="1098" y="1359"/>
      <point x="1545" y="1358"/>
    </contour>
    <contour>
      <point x="1309" y="917" type="curve" smooth="yes"/>
      <point x="1309" y="1175"/>
      <point x="1093" y="1191"/>
      <point x="638" y="1191" type="curve"/>
      <point x="638" y="624" type="line"/>
      <point x="1105" y="624"/>
      <point x="1309" y="635"/>
    </contour>
  </outline>
</glyph>
<glyph name="germandbls" format="1">
  <advance width="2048"/>
  <unicode hex="00DF"/>
  <outline>
    <contour>
      <point x="1323" y="469" type="curve" smooth="yes"/>
      <point x="1323" y="819"/>
      <point x="1082" y="866"/>
      <point x="814" y="866" type="curve" smooth="yes"/>
      <point x="767" y="866"/>
      <point x="743" y="899"/>
      <point x="743" y="931" type="curve" smooth="yes"/>
      <point x="743" y="963"/>
      <point x="766" y="995"/>
      <point x="814" y="995" type="curve" smooth="yes"/>
      <point x="962" y="995"/>
      <point x="1132" y="1083"/>
      <point x="1132" y="1290" type="curve" smooth="yes"/>
      <point x="1132" y="1500"/>
      <point x="1007" y="1576"/>
      <point x="859" y="1576" type="curve" smooth="yes"/>
      <point x="718" y="1576"/>
      <point x="567" y="1491"/>
      <point x="567" y="1045" type="curve" smooth="yes"/>
      <point x="567" y="176" type="line"/>
      <point x="701" y="176" type="line" smooth="yes"/>
      <point x="752" y="176"/>
      <point x="773" y="134"/>
      <point x="773" y="84" type="curve" smooth="yes"/>
      <point x="773" y="40"/>
      <point x="746" y="0"/>
      <point x="699" y="0" type="curve" smooth="yes"/>
      <point x="143" y="0" type="line" smooth="yes"/>
      <point x="96" y="0"/>
      <point x="69" y="40"/>
      <point x="69" y="84" type="curve" smooth="yes"/>
      <point x="69" y="134"/>
      <point x="90" y="176"/>
      <point x="141" y="176" type="curve" smooth="yes"/>
      <point x="333" y="176" type="line"/>
      <point x="333" y="988" type="line" smooth="yes"/>
      <point x="333" y="1578"/>
      <point x="602" y="1739"/>
      <point x="852" y="1739" type="curve" smooth="yes"/>
      <point x="1102" y="1739"/>
      <point x="1337" y="1613"/>
      <point x="1337" y="1290" type="curve" smooth="yes"/>
      <point x="1337" y="1109"/>
      <point x="1227" y="994"/>
      <point x="1099" y="956" type="curve"/>
      <point x="1348" y="925"/>
      <point x="1557" y="778"/>
      <point x="1557" y="468" type="curve" smooth="yes"/>
      <point x="1557" y="184"/>
      <point x="1289" y="0"/>
      <point x="1041" y="0" type="curve" smooth="yes"/>
      <point x="984" y="0"/>
      <point x="952" y="47"/>
      <point x="952" y="92" type="curve" smooth="yes"/>
      <point x="952" y="135"/>
      <point x="980" y="176"/>
      <point x="1041" y="176" type="curve" smooth="yes"/>
      <point x="1189" y="176"/>
      <point x="1323" y="283"/>
    </contour>
  </outline>
</glyph>
<glyph name="eth" format="1">
  <advance width="2048"/>
  <unicode hex="00F0"/>
  <outline>
    <contour>
      <point x="668" y="149" type="curve" smooth="yes"/>
      <point x="914" y="149"/>
      <point x="1053" y="326"/>
      <point x="1053" y="575" type="curve" smooth="yes"/>
      <point x="1053" y="832"/>
      <point x="913" y="1005"/>
      <point x="676" y="1005" type="curve" smooth="yes"/>
      <point x="429" y="1005"/>
      <point x="283" y="834"/>
      <point x="283" y="575" type="curve" smooth="yes"/>
      <point x="283" y="327"/>
      <point x="420" y="149"/>
    </contour>
    <contour>
      <point x="526" y="1885" type="curve" smooth="yes"/>
      <point x="634" y="1885"/>
      <point x="749" y="1760"/>
      <point x="814" y="1704" type="curve"/>
      <point x="967" y="1827" type="line" smooth="yes"/>
      <point x="990" y="1845"/>
      <point x="1012" y="1852"/>
      <point x="1031" y="1852" type="curve" smooth="yes"/>
      <point x="1077" y="1852"/>
      <point x="1111" y="1812"/>
      <point x="1111" y="1770" type="curve" smooth="yes"/>
      <point x="1111" y="1746"/>
      <point x="1100" y="1721"/>
      <point x="1073" y="1702" type="curve" smooth="yes"/>
      <point x="924" y="1599" type="line"/>
      <point x="1150" y="1364"/>
      <point x="1297" y="1065"/>
      <point x="1297" y="690" type="curve" smooth="yes"/>
      <point x="1297" y="262"/>
      <point x="1098" y="-22"/>
      <point x="668" y="-22" type="curve" smooth="yes"/>
      <point x="304" y="-22"/>
      <point x="67" y="214"/>
      <point x="67" y="580" type="curve" smooth="yes"/>
      <point x="67" y="945"/>
      <point x="304" y="1188"/>
      <point x="666" y="1188" type="curve" smooth="yes"/>
      <point x="803" y="1188"/>
      <point x="912" y="1122"/>
      <point x="997" y="1044" type="curve"/>
      <point x="962" y="1214"/>
      <point x="870" y="1359"/>
      <point x="756" y="1483" type="curve"/>
      <point x="585" y="1365" type="line" smooth="yes"/>
      <point x="574" y="1358"/>
      <point x="563" y="1354"/>
      <point x="552" y="1354" type="curve" smooth="yes"/>
      <point x="521" y="1354"/>
      <point x="492" y="1381"/>
      <point x="492" y="1413" type="curve" smooth="yes"/>
      <point x="492" y="1431"/>
      <point x="501" y="1452"/>
      <point x="524" y="1470" type="curve" smooth="yes"/>
      <point x="660" y="1580" type="line"/>
      <point x="599" y="1636"/>
      <point x="448" y="1730"/>
      <point x="448" y="1822" type="curve" smooth="yes"/>
      <point x="448" y="1863"/>
      <point x="483" y="1885"/>
    </contour>
  </outline>
</glyph>
<glyph name="divide" format="1">
  <advance width="2048"/>
  <unicode hex="00F7"/>
  <outline>
    <contour>
      <point x="551" y="809" type="curve" smooth="yes"/>
      <point x="551" y="864"/>
      <point x="597" y="911"/>
      <point x="653" y="911" type="curve" smooth="yes"/>
      <point x="1395" y="911" type="line" smooth="yes"/>
      <point x="1451" y="911"/>
      <point x="1497" y="864"/>
      <point x="1497" y="809" type="curve" smooth="yes"/>
      <point x="1497" y="752"/>
      <point x="1452" y="706"/>
      <point x="1395" y="706" type="curve" smooth="yes"/>
      <point x="653" y="706" type="line" smooth="yes"/>
      <point x="596" y="706"/>
      <point x="551" y="752"/>
    </contour>
    <contour>
      <point x="1020" y="314" type="curve" smooth="yes"/>
      <point x="935" y="314"/>
      <point x="873" y="376"/>
      <point x="873" y="460" type="curve" smooth="yes"/>
      <point x="873" y="544"/>
      <point x="936" y="606"/>
      <point x="1020" y="606" type="curve" smooth="yes"/>
      <point x="1104" y="606"/>
      <point x="1166" y="543"/>
      <point x="1166" y="460" type="curve" smooth="yes"/>
      <point x="1166" y="376"/>
      <point x="1104" y="314"/>
    </contour>
    <contour>
      <point x="1020" y="1012" type="curve" smooth="yes"/>
      <point x="935" y="1012"/>
      <point x="873" y="1074"/>
      <point x="873" y="1158" type="curve" smooth="yes"/>
      <point x="873" y="1242"/>
      <point x="936" y="1304"/>
      <point x="1020" y="1304" type="curve" smooth="yes"/>
      <point x="1104" y="1304"/>
      <point x="1166" y="1241"/>
      <point x="1166" y="1158" type="curve" smooth="yes"/>
      <point x="1166" y="1074"/>
      <point x="1104" y="1012"/>
    </contour>
  </outline>
</glyph>
<glyph name="thorn" format="1">
  <advance width="2048"/>
  <unicode hex="00FE"/>
  <outline>
    <contour>
      <point x="1186" y="582" type="curve" smooth="yes"/>
      <point x="1186" y="819"/>
      <point x="1068" y="1018"/>
      <point x="836" y="1018" type="curve" smooth="yes"/>
      <point x="659" y="1018"/>
      <point x="533" y="945"/>
      <point x="453" y="840" type="curve"/>
      <point x="453" y="283" type="line"/>
      <point x="538" y="198"/>
      <point x="662" y="145"/>
      <point x="830" y="145" type="curve" smooth="yes"/>
      <point x="1064" y="145"/>
      <point x="1186" y="346"/>
    </contour>
    <contour>
      <point x="1407" y="582" type="curve" smooth="yes"/>
      <point x="1407" y="225"/>
      <point x="1182" y="-25"/>
      <point x="830" y="-25" type="curve" smooth="yes"/>
      <point x="665" y="-25"/>
      <point x="548" y="29"/>
      <point x="453" y="109" type="curve"/>
      <point x="453" y="-399" type="line"/>
      <point x="655" y="-399" type="line" smooth="yes"/>
      <point x="706" y="-399"/>
      <point x="727" y="-442"/>
      <point x="727" y="-492" type="curve" smooth="yes"/>
      <point x="727" y="-536"/>
      <point x="700" y="-575"/>
      <point x="653" y="-575" type="curve" smooth="yes"/>
      <point x="129" y="-575" type="line" smooth="yes"/>
      <point x="73" y="-575"/>
      <point x="47" y="-540"/>
      <point x="47" y="-489" type="curve" smooth="yes"/>
      <point x="47" y="-440"/>
      <point x="71" y="-399"/>
      <point x="123" y="-399" type="curve" smooth="yes"/>
      <point x="248" y="-399" type="line"/>
      <point x="248" y="1530" type="line"/>
      <point x="105" y="1495" type="line" smooth="yes"/>
      <point x="102" y="1494"/>
      <point x="97" y="1493"/>
      <point x="90" y="1493" type="curve" smooth="yes"/>
      <point x="50" y="1493"/>
      <point x="8" y="1532"/>
      <point x="8" y="1573" type="curve" smooth="yes"/>
      <point x="8" y="1618"/>
      <point x="28" y="1645"/>
      <point x="66" y="1657" type="curve"/>
      <point x="362" y="1734" type="line" smooth="yes"/>
      <point x="373" y="1736"/>
      <point x="383" y="1738"/>
      <point x="392" y="1738" type="curve" smooth="yes"/>
      <point x="452" y="1738"/>
      <point x="452" y="1679"/>
      <point x="453" y="1590" type="curve"/>
      <point x="453" y="990" type="line"/>
      <point x="526" y="1107"/>
      <point x="672" y="1188"/>
      <point x="850" y="1188" type="curve" smooth="yes"/>
      <point x="1201" y="1188"/>
      <point x="1407" y="935"/>
    </contour>
  </outline>
</glyph>
<glyph name="dcroat" format="1">
  <advance width="2048"/>
  <unicode hex="0111"/>
  <outline>
    <contour>
      <point x="311" y="582" type="curve" smooth="yes"/>
      <point x="311" y="349"/>
      <point x="429" y="145"/>
      <point x="661" y="145" type="curve" smooth="yes"/>
      <point x="820" y="145"/>
      <point x="936" y="224"/>
      <point x="1007" y="324" type="curve"/>
      <point x="1007" y="881" type="line"/>
      <point x="923" y="967"/>
      <point x="807" y="1018"/>
      <point x="651" y="1018" type="curve" smooth="yes"/>
      <point x="425" y="1018"/>
      <point x="311" y="808"/>
    </contour>
    <contour>
      <point x="1344" y="1438" type="line" smooth="yes"/>
      <point x="1392" y="1438"/>
      <point x="1416" y="1400"/>
      <point x="1416" y="1362" type="curve" smooth="yes"/>
      <point x="1416" y="1323"/>
      <point x="1391" y="1283"/>
      <point x="1342" y="1283" type="curve" smooth="yes"/>
      <point x="1212" y="1283" type="line"/>
      <point x="1212" y="176" type="line"/>
      <point x="1357" y="197" type="line" smooth="yes"/>
      <point x="1364" y="198"/>
      <point x="1373" y="199"/>
      <point x="1384" y="199" type="curve" smooth="yes"/>
      <point x="1437" y="199"/>
      <point x="1472" y="172"/>
      <point x="1472" y="125" type="curve" smooth="yes"/>
      <point x="1472" y="16"/>
      <point x="1319" y="22"/>
      <point x="1232" y="12" type="curve"/>
      <point x="1180" y="4"/>
      <point x="1107" y="-10"/>
      <point x="1064" y="-10" type="curve" smooth="yes"/>
      <point x="1017" y="-10"/>
      <point x="1007" y="32"/>
      <point x="1007" y="78" type="curve" smooth="yes"/>
      <point x="1007" y="150" type="line"/>
      <point x="931" y="58"/>
      <point x="804" y="-25"/>
      <point x="647" y="-25" type="curve" smooth="yes"/>
      <point x="294" y="-25"/>
      <point x="89" y="231"/>
      <point x="89" y="582" type="curve" smooth="yes"/>
      <point x="89" y="924"/>
      <point x="301" y="1188"/>
      <point x="642" y="1188" type="curve" smooth="yes"/>
      <point x="801" y="1188"/>
      <point x="911" y="1132"/>
      <point x="1007" y="1055" type="curve"/>
      <point x="1007" y="1283" type="line"/>
      <point x="708" y="1283" type="line" smooth="yes"/>
      <point x="652" y="1283"/>
      <point x="625" y="1323"/>
      <point x="625" y="1362" type="curve" smooth="yes"/>
      <point x="625" y="1400"/>
      <point x="651" y="1438"/>
      <point x="702" y="1438" type="curve" smooth="yes"/>
      <point x="1007" y="1438" type="line"/>
      <point x="1007" y="1560" type="line"/>
      <point x="795" y="1560" type="line" smooth="yes"/>
      <point x="739" y="1560"/>
      <point x="712" y="1600"/>
      <point x="712" y="1639" type="curve" smooth="yes"/>
      <point x="712" y="1677"/>
      <point x="738" y="1715"/>
      <point x="789" y="1715" type="curve" smooth="yes"/>
      <point x="1141" y="1715" type="line" smooth="yes"/>
      <point x="1189" y="1715"/>
      <point x="1213" y="1677"/>
      <point x="1213" y="1639" type="curve" smooth="yes"/>
      <point x="1213" y="1635"/>
      <point x="1212" y="1630"/>
      <point x="1212" y="1626" type="curve" smooth="yes"/>
      <point x="1212" y="1438" type="line"/>
    </contour>
  </outline>
</glyph>
<glyph name="hbar" format="1">
  <advance width="2048"/>
  <unicode hex="0127"/>
  <outline>
    <contour>
      <point x="506" y="1438" type="line"/>
      <point x="823" y="1438" type="line" smooth="yes"/>
      <point x="871" y="1438"/>
      <point x="895" y="1400"/>
      <point x="895" y="1362" type="curve" smooth="yes"/>
      <point x="895" y="1323"/>
      <point x="870" y="1283"/>
      <point x="821" y="1283" type="curve" smooth="yes"/>
      <point x="506" y="1283" type="line"/>
      <point x="506" y="1004" type="line"/>
      <point x="584" y="1097"/>
      <point x="721" y="1188"/>
      <point x="886" y="1188" type="curve" smooth="yes"/>
      <point x="1136" y="1188"/>
      <point x="1294" y="1032"/>
      <point x="1294" y="780" type="curve" smooth="yes"/>
      <point x="1294" y="176" type="line"/>
      <point x="1457" y="176" type="line" smooth="yes"/>
      <point x="1509" y="176"/>
      <point x="1519" y="136"/>
      <point x="1519" y="86" type="curve" smooth="yes"/>
      <point x="1519" y="46"/>
      <point x="1497" y="0"/>
      <point x="1455" y="0" type="curve" smooth="yes"/>
      <point x="966" y="0" type="line" smooth="yes"/>
      <point x="909" y="0"/>
      <point x="890" y="32"/>
      <point x="890" y="84" type="curve" smooth="yes"/>
      <point x="890" y="134"/>
      <point x="908" y="176"/>
      <point x="960" y="176" type="curve" smooth="yes"/>
      <point x="1091" y="176" type="line"/>
      <point x="1091" y="762" type="line" smooth="yes"/>
      <point x="1091" y="922"/>
      <point x="1011" y="1018"/>
      <point x="849" y="1018" type="curve" smooth="yes"/>
      <point x="696" y="1018"/>
      <point x="575" y="909"/>
      <point x="507" y="799" type="curve"/>
      <point x="507" y="176" type="line"/>
      <point x="671" y="176" type="line" smooth="yes"/>
      <point x="723" y="176"/>
      <point x="732" y="136"/>
      <point x="732" y="86" type="curve" smooth="yes"/>
      <point x="732" y="46"/>
      <point x="711" y="0"/>
      <point x="669" y="0" type="curve" smooth="yes"/>
      <point x="180" y="0" type="line" smooth="yes"/>
      <point x="123" y="0"/>
      <point x="104" y="32"/>
      <point x="104" y="84" type="curve" smooth="yes"/>
      <point x="104" y="134"/>
      <point x="121" y="176"/>
      <point x="173" y="176" type="curve" smooth="yes"/>
      <point x="302" y="176" type="line"/>
      <point x="302" y="1283" type="line"/>
      <point x="187" y="1283" type="line" smooth="yes"/>
      <point x="131" y="1283"/>
      <point x="104" y="1323"/>
      <point x="104" y="1362" type="curve" smooth="yes"/>
      <point x="104" y="1400"/>
      <point x="130" y="1438"/>
      <point x="181" y="1438" type="curve" smooth="yes"/>
      <point x="302" y="1438" type="line"/>
      <point x="302" y="1559" type="line"/>
      <point x="187" y="1559" type="line" smooth="yes"/>
      <point x="131" y="1559"/>
      <point x="104" y="1599"/>
      <point x="104" y="1638" type="curve" smooth="yes"/>
      <point x="104" y="1676"/>
      <point x="130" y="1714"/>
      <point x="181" y="1714" type="curve" smooth="yes"/>
      <point x="435" y="1714" type="line" smooth="yes"/>
      <point x="483" y="1714"/>
      <point x="507" y="1676"/>
      <point x="507" y="1638" type="curve" smooth="yes"/>
      <point x="507" y="1634"/>
      <point x="506" y="1631"/>
      <point x="506" y="1627" type="curve" smooth="yes"/>
    </contour>
  </outline>
</glyph>
<glyph name="ij" format="1">
  <advance width="2048"/>
  <unicode hex="0133"/>
  <outline>
    <contour>
      <point x="1037" y="1579" type="curve" smooth="yes"/>
      <point x="1037" y="1655"/>
      <point x="1088" y="1735"/>
      <point x="1164" y="1735" type="curve" smooth="yes"/>
      <point x="1251" y="1735"/>
      <point x="1324" y="1680"/>
      <point x="1324" y="1593" type="curve" smooth="yes"/>
      <point x="1324" y="1507"/>
      <point x="1266" y="1450"/>
      <point x="1181" y="1450" type="curve" smooth="yes"/>
      <point x="1105" y="1450"/>
      <point x="1037" y="1503"/>
    </contour>
    <contour>
      <point x="894" y="-496" type="curve" smooth="yes"/>
      <point x="709" y="-496"/>
      <point x="618" y="-452"/>
      <point x="618" y="-263" type="curve" smooth="yes"/>
      <point x="618" y="-254" type="line" smooth="yes"/>
      <point x="618" y="-169"/>
      <point x="634" y="-121"/>
      <point x="714" y="-121" type="curve" smooth="yes"/>
      <point x="770" y="-121"/>
      <point x="804" y="-162"/>
      <point x="804" y="-231" type="curve" smooth="yes"/>
      <point x="804" y="-313" type="line"/>
      <point x="857" y="-313" type="line" smooth="yes"/>
      <point x="1128" y="-313"/>
      <point x="1136" y="-143"/>
      <point x="1136" y="115" type="curve" smooth="yes"/>
      <point x="1136" y="967" type="line"/>
      <point x="523" y="967" type="line"/>
      <point x="523" y="173" type="line"/>
      <point x="677" y="173" type="line" smooth="yes"/>
      <point x="728" y="173"/>
      <point x="749" y="131"/>
      <point x="749" y="81" type="curve" smooth="yes"/>
      <point x="749" y="37"/>
      <point x="722" y="0"/>
      <point x="675" y="0" type="curve" smooth="yes"/>
      <point x="187" y="0" type="line" smooth="yes"/>
      <point x="131" y="0"/>
      <point x="105" y="32"/>
      <point x="105" y="83" type="curve" smooth="yes"/>
      <point x="105" y="132"/>
      <point x="129" y="173"/>
      <point x="181" y="173" type="curve" smooth="yes"/>
      <point x="318" y="173" type="line"/>
      <point x="318" y="970" type="line"/>
      <point x="165" y="970" type="line"/>
      <point x="164" y="970" type="line" smooth="yes"/>
      <point x="122" y="970"/>
      <point x="79" y="995"/>
      <point x="79" y="1047" type="curve" smooth="yes"/>
      <point x="79" y="1090"/>
      <point x="106" y="1131"/>
      <point x="166" y="1131" type="curve" smooth="yes"/>
      <point x="1273" y="1131" type="line" smooth="yes"/>
      <point x="1312" y="1131"/>
      <point x="1341" y="1125"/>
      <point x="1341" y="1086" type="curve" smooth="yes"/>
      <point x="1341" y="115" type="line" smooth="yes"/>
      <point x="1341" y="-191"/>
      <point x="1253" y="-496"/>
    </contour>
    <contour>
      <point x="413" y="1427" type="curve" smooth="yes"/>
      <point x="329" y="1427"/>
      <point x="261" y="1495"/>
      <point x="261" y="1579" type="curve" smooth="yes"/>
      <point x="261" y="1663"/>
      <point x="329" y="1731"/>
      <point x="413" y="1731" type="curve" smooth="yes"/>
      <point x="497" y="1731"/>
      <point x="564" y="1663"/>
      <point x="564" y="1579" type="curve" smooth="yes"/>
      <point x="564" y="1495"/>
      <point x="497" y="1427"/>
    </contour>
  </outline>
</glyph>
<glyph name="Lslash" format="1">
  <advance width="2048"/>
  <unicode hex="0141"/>
  <outline>
    <contour>
      <point x="970" y="1630" type="curve" smooth="yes"/>
      <point x="970" y="1580"/>
      <point x="949" y="1538"/>
      <point x="898" y="1538" type="curve" smooth="yes"/>
      <point x="675" y="1538" type="line"/>
      <point x="675" y="1149" type="line"/>
      <point x="937" y="1250" type="line"/>
      <point x="958" y="1256"/>
      <point x="976" y="1259"/>
      <point x="992" y="1259" type="curve" smooth="yes"/>
      <point x="1042" y="1259"/>
      <point x="1060" y="1228"/>
      <point x="1060" y="1195" type="curve" smooth="yes"/>
      <point x="1060" y="1160"/>
      <point x="1040" y="1122"/>
      <point x="1016" y="1115" type="curve"/>
      <point x="675" y="984" type="line"/>
      <point x="675" y="176" type="line"/>
      <point x="1379" y="176" type="line" smooth="yes"/>
      <point x="1493" y="176"/>
      <point x="1585" y="197"/>
      <point x="1594" y="303" type="curve"/>
      <point x="1623" y="584" type="line" smooth="yes"/>
      <point x="1628" y="628"/>
      <point x="1658" y="647"/>
      <point x="1705" y="647" type="curve" smooth="yes"/>
      <point x="1754" y="647"/>
      <point x="1797" y="620"/>
      <point x="1797" y="567" type="curve"/>
      <point x="1752" y="68" type="line" smooth="yes"/>
      <point x="1748" y="30"/>
      <point x="1728" y="0"/>
      <point x="1691" y="0" type="curve" smooth="yes"/>
      <point x="142" y="0" type="line" smooth="yes"/>
      <point x="95" y="0"/>
      <point x="68" y="40"/>
      <point x="68" y="84" type="curve" smooth="yes"/>
      <point x="68" y="134"/>
      <point x="89" y="176"/>
      <point x="140" y="176" type="curve" smooth="yes"/>
      <point x="441" y="176" type="line"/>
      <point x="441" y="893" type="line"/>
      <point x="310" y="843" type="line"/>
      <point x="286" y="836"/>
      <point x="266" y="833"/>
      <point x="249" y="833" type="curve" smooth="yes"/>
      <point x="197" y="833"/>
      <point x="178" y="864"/>
      <point x="178" y="897" type="curve" smooth="yes"/>
      <point x="178" y="931"/>
      <point x="197" y="967"/>
      <point x="223" y="975" type="curve"/>
      <point x="441" y="1059" type="line"/>
      <point x="441" y="1538" type="line"/>
      <point x="202" y="1538" type="line" smooth="yes"/>
      <point x="151" y="1538"/>
      <point x="130" y="1580"/>
      <point x="130" y="1630" type="curve" smooth="yes"/>
      <point x="130" y="1674"/>
      <point x="157" y="1714"/>
      <point x="204" y="1714" type="curve" smooth="yes"/>
      <point x="896" y="1714" type="line" smooth="yes"/>
      <point x="943" y="1714"/>
      <point x="970" y="1674"/>
    </contour>
  </outline>
</glyph>
<glyph name="oe" format="1">
  <advance width="2048"/>
  <unicode hex="0153"/>
  <outline>
    <contour>
      <point x="1939" y="756" type="curve" smooth="yes"/>
      <point x="1939" y="947"/>
      <point x="1800" y="1018"/>
      <point x="1660" y="1018" type="curve" smooth="yes"/>
      <point x="1436" y="1018"/>
      <point x="1300" y="893"/>
      <point x="1284" y="700" type="curve"/>
      <point x="1865" y="713" type="line"/>
      <point x="1902" y="715"/>
      <point x="1939" y="725"/>
    </contour>
    <contour>
      <point x="1288" y="559" type="line"/>
      <point x="1288" y="297"/>
      <point x="1463" y="158"/>
      <point x="1692" y="158" type="curve" smooth="yes"/>
      <point x="1862" y="158"/>
      <point x="1942" y="232"/>
      <point x="2030" y="314" type="curve"/>
      <point x="2050" y="331"/>
      <point x="2073" y="340"/>
      <point x="2096" y="340" type="curve" smooth="yes"/>
      <point x="2150" y="340"/>
      <point x="2192" y="305"/>
      <point x="2192" y="250" type="curve" smooth="yes"/>
      <point x="2192" y="79"/>
      <point x="1868" y="-25"/>
      <point x="1684" y="-25" type="curve" smooth="yes"/>
      <point x="1460" y="-25"/>
      <point x="1277" y="68"/>
      <point x="1173" y="230" type="curve"/>
      <point x="1075" y="70"/>
      <point x="904" y="-25"/>
      <point x="688" y="-25" type="curve" smooth="yes"/>
      <point x="317" y="-25"/>
      <point x="67" y="211"/>
      <point x="67" y="582" type="curve" smooth="yes"/>
      <point x="67" y="955"/>
      <point x="318" y="1188"/>
      <point x="688" y="1188" type="curve" smooth="yes"/>
      <point x="903" y="1188"/>
      <point x="1074" y="1094"/>
      <point x="1172" y="935" type="curve"/>
      <point x="1269" y="1093"/>
      <point x="1438" y="1188"/>
      <point x="1660" y="1188" type="curve" smooth="yes"/>
      <point x="1928" y="1188"/>
      <point x="2190" y="985"/>
      <point x="2190" y="692" type="curve" smooth="yes"/>
      <point x="2190" y="592"/>
      <point x="2121" y="590"/>
      <point x="2026" y="580" type="curve"/>
    </contour>
    <contour>
      <point x="688" y="1018" type="curve" smooth="yes"/>
      <point x="434" y="1018"/>
      <point x="289" y="836"/>
      <point x="289" y="582" type="curve" smooth="yes"/>
      <point x="289" y="326"/>
      <point x="434" y="145"/>
      <point x="688" y="145" type="curve" smooth="yes"/>
      <point x="936" y="145"/>
      <point x="1075" y="332"/>
      <point x="1075" y="582" type="curve" smooth="yes"/>
      <point x="1075" y="833"/>
      <point x="936" y="1018"/>
    </contour>
    <contour>
      <point x="1024" y="1160" type="move" name="top"/>
    </contour>
  </outline>
</glyph>
<glyph name="florin" format="1">
  <advance width="2048"/>
  <unicode hex="0192"/>
  <outline>
    <contour>
      <point x="360" y="946" type="curve"/>
      <point x="182" y="946" type="line" smooth="yes"/>
      <point x="126" y="946"/>
      <point x="100" y="981"/>
      <point x="100" y="1032" type="curve" smooth="yes"/>
      <point x="100" y="1081"/>
      <point x="124" y="1122"/>
      <point x="176" y="1122" type="curve" smooth="yes"/>
      <point x="360" y="1122" type="line"/>
      <point x="360" y="1227" type="line" smooth="yes"/>
      <point x="360" y="1580"/>
      <point x="569" y="1739"/>
      <point x="928" y="1739" type="curve" smooth="yes"/>
      <point x="972" y="1739"/>
      <point x="1012" y="1712"/>
      <point x="1012" y="1665" type="curve" smooth="yes"/>
      <point x="1012" y="1493" type="line" smooth="yes"/>
      <point x="1012" y="1437"/>
      <point x="977" y="1411"/>
      <point x="926" y="1411" type="curve" smooth="yes"/>
      <point x="877" y="1411"/>
      <point x="835" y="1435"/>
      <point x="835" y="1487" type="curve" smooth="yes"/>
      <point x="835" y="1556" type="line"/>
      <point x="622" y="1537"/>
      <point x="562" y="1449"/>
      <point x="562" y="1231" type="curve" smooth="yes"/>
      <point x="562" y="1218"/>
      <point x="563" y="1205"/>
      <point x="563" y="1191" type="curve" smooth="yes"/>
      <point x="565" y="1122" type="line"/>
      <point x="784" y="1122" type="line" smooth="yes"/>
      <point x="835" y="1122"/>
      <point x="856" y="1080"/>
      <point x="856" y="1030" type="curve" smooth="yes"/>
      <point x="856" y="986"/>
      <point x="829" y="946"/>
      <point x="782" y="946" type="curve" smooth="yes"/>
      <point x="563" y="946" type="line"/>
      <point x="565" y="71" type="line" smooth="yes"/>
      <point x="565" y="-282"/>
      <point x="404" y="-441"/>
      <point x="117" y="-441" type="curve" smooth="yes"/>
      <point x="73" y="-441"/>
      <point x="33" y="-414"/>
      <point x="33" y="-367" type="curve" smooth="yes"/>
      <point x="33" y="-195" type="line" smooth="yes"/>
      <point x="33" y="-139"/>
      <point x="68" y="-113"/>
      <point x="119" y="-113" type="curve" smooth="yes"/>
      <point x="168" y="-113"/>
      <point x="210" y="-137"/>
      <point x="210" y="-189" type="curve" smooth="yes"/>
      <point x="210" y="-258" type="line"/>
      <point x="327" y="-239"/>
      <point x="363" y="-151"/>
      <point x="363" y="67" type="curve" smooth="yes"/>
      <point x="363" y="80"/>
      <point x="362" y="93"/>
    </contour>
  </outline>
</glyph>
<glyph name="uni0237" format="1">
  <advance width="2048"/>
  <unicode hex="0237"/>
  <outline>
    <contour>
      <point x="402" y="-496" type="curve" smooth="yes"/>
      <point x="217" y="-496"/>
      <point x="128" y="-452"/>
      <point x="128" y="-263" type="curve" smooth="yes"/>
      <point x="128" y="-240"/>
      <point x="124" y="-221"/>
      <point x="124" y="-203" type="curve" smooth="yes"/>
      <point x="124" y="-124"/>
      <point x="142" y="-80"/>
      <point x="222" y="-80" type="curve" smooth="yes"/>
      <point x="278" y="-80"/>
      <point x="312" y="-117"/>
      <point x="312" y="-180" type="curve" smooth="yes"/>
      <point x="312" y="-313" type="line"/>
      <point x="365" y="-313" type="line" smooth="yes"/>
      <point x="636" y="-313"/>
      <point x="644" y="-143"/>
      <point x="644" y="115" type="curve" smooth="yes"/>
      <point x="644" y="983" type="line"/>
      <point x="500" y="944" type="line" smooth="yes"/>
      <point x="497" y="943"/>
      <point x="493" y="942"/>
      <point x="486" y="942" type="curve" smooth="yes"/>
      <point x="446" y="942"/>
      <point x="404" y="981"/>
      <point x="404" y="1022" type="curve" smooth="yes"/>
      <point x="404" y="1065"/>
      <point x="423" y="1096"/>
      <point x="461" y="1106" type="curve" smooth="yes"/>
      <point x="781" y="1186" type="line" smooth="yes"/>
      <point x="785" y="1187"/>
      <point x="790" y="1188"/>
      <point x="797" y="1188" type="curve" smooth="yes"/>
      <point x="827" y="1188"/>
      <point x="849" y="1174"/>
      <point x="849" y="1143" type="curve" smooth="yes"/>
      <point x="849" y="115" type="line" smooth="yes"/>
      <point x="849" y="-191"/>
      <point x="761" y="-496"/>
    </contour>
    <contour>
      <point x="1024" y="1160" type="move" name="top"/>
    </contour>
  </outline>
</glyph>
<glyph name="ogonek" format="1">
  <advance width="2048"/>
  <unicode hex="02DB"/>
  <outline>
    <contour>
      <point x="111" y="-516" type="curve" smooth="yes"/>
      <point x="19" y="-516"/>
      <point x="-51" y="-473"/>
      <point x="-51" y="-358" type="curve" smooth="yes"/>
      <point x="-51" y="-286"/>
      <point x="15" y="-111"/>
      <point x="185" y="30" type="curve"/>
      <point x="264" y="30" type="line" smooth="yes"/>
      <point x="273" y="30"/>
      <point x="153" y="-162"/>
      <point x="153" y="-257" type="curve" smooth="yes"/>
      <point x="153" y="-368"/>
      <point x="290" y="-343"/>
      <point x="290" y="-403" type="curve" smooth="yes"/>
      <point x="290" y="-454"/>
      <point x="205" y="-516"/>
    </contour>
    <contour>
      <point x="290" y="10" type="move" name="_ogonek"/>
    </contour>
  </outline>
</glyph>
<glyph name="tilde" format="1">
  <advance width="2048"/>
  <unicode hex="02DC"/>
  <outline>
    <contour>
      <point x="658.5" y="1539.8" type="curve" smooth="yes"/>
      <point x="658.5" y="1694.8"/>
      <point x="742.5" y="1804.8"/>
      <point x="848.5" y="1804.8" type="curve" smooth="yes"/>
      <point x="1003.5" y="1804.8"/>
      <point x="1119.5" y="1662.8"/>
      <point x="1175.5" y="1662.8" type="curve" smooth="yes"/>
      <point x="1264.5" y="1662.8"/>
      <point x="1267.5" y="1804.8"/>
      <point x="1316.5" y="1804.8" type="curve" smooth="yes"/>
      <point x="1355.5" y="1804.8"/>
      <point x="1389.5" y="1786.8"/>
      <point x="1389.5" y="1750.8" type="curve" smooth="yes"/>
      <point x="1389.5" y="1595.8"/>
      <point x="1289.5" y="1486.8"/>
      <point x="1163.5" y="1486.8" type="curve" smooth="yes"/>
      <point x="1047.5" y="1486.8"/>
      <point x="934.5" y="1627.8"/>
      <point x="857.5" y="1627.8" type="curve" smooth="yes"/>
      <point x="772.5" y="1627.8"/>
      <point x="772.5" y="1486.8"/>
      <point x="731.5" y="1486.8" type="curve" smooth="yes"/>
      <point x="692.5" y="1486.8"/>
      <point x="658.5" y="1503.8"/>
    </contour>
    <contour>
      <point x="1024" y="1160" type="move" name="_top"/>
    </contour>
  </outline>
</glyph>
<glyph name="hungarumlaut" format="1">
  <advance width="2048"/>
  <unicode hex="02DD"/>
  <outline>
    <contour>
      <point x="517" y="1870" type="curve" smooth="yes"/>
      <point x="559" y="1870"/>
      <point x="601" y="1827"/>
      <point x="601" y="1786" type="curve" smooth="yes"/>
      <point x="601" y="1768"/>
      <point x="593" y="1753"/>
      <point x="575" y="1741" type="curve" smooth="yes"/>
      <point x="417" y="1642"/>
      <point x="240" y="1527"/>
      <point x="77" y="1434" type="curve" smooth="yes"/>
      <point x="70" y="1430"/>
      <point x="63" y="1427"/>
      <point x="58" y="1427" type="curve" smooth="yes"/>
      <point x="32" y="1427"/>
      <point x="9" y="1454"/>
      <point x="9" y="1479" type="curve" smooth="yes"/>
      <point x="9" y="1493"/>
      <point x="15" y="1502"/>
      <point x="26" y="1509" type="curve" smooth="yes"/>
      <point x="176" y="1609"/>
      <point x="340" y="1738"/>
      <point x="476" y="1855" type="curve" smooth="yes"/>
      <point x="487" y="1865"/>
      <point x="501" y="1870"/>
    </contour>
    <contour>
      <point x="892" y="1870" type="curve" smooth="yes"/>
      <point x="934" y="1870"/>
      <point x="976" y="1827"/>
      <point x="976" y="1786" type="curve" smooth="yes"/>
      <point x="976" y="1768"/>
      <point x="967" y="1753"/>
      <point x="949" y="1741" type="curve" smooth="yes"/>
      <point x="791" y="1642"/>
      <point x="615" y="1527"/>
      <point x="452" y="1434" type="curve" smooth="yes"/>
      <point x="445" y="1430"/>
      <point x="438" y="1427"/>
      <point x="433" y="1427" type="curve" smooth="yes"/>
      <point x="407" y="1427"/>
      <point x="384" y="1454"/>
      <point x="384" y="1479" type="curve" smooth="yes"/>
      <point x="384" y="1493"/>
      <point x="390" y="1502"/>
      <point x="401" y="1509" type="curve" smooth="yes"/>
      <point x="551" y="1609"/>
      <point x="715" y="1738"/>
      <point x="851" y="1855" type="curve" smooth="yes"/>
      <point x="862" y="1865"/>
      <point x="876" y="1870"/>
    </contour>
    <contour>
      <point x="492.5" y="1160" type="move" name="_top"/>
    </contour>
  </outline>
</glyph>
<glyph name="uni0307" format="1">
  <advance width="2048"/>
  <unicode hex="0307"/>
  <outline>
    <contour>
      <point x="1173.5" y="206" type="curve" smooth="yes"/>
      <point x="1173.5" y="129"/>
      <point x="1113.5" y="50"/>
      <point x="1024.5" y="50" type="curve" smooth="yes"/>
      <point x="927.5" y="50"/>
      <point x="874.5" y="129"/>
      <point x="874.5" y="206" type="curve" smooth="yes"/>
      <point x="874.5" y="279"/>
      <point x="922.5" y="351"/>
      <point x="1026.5" y="351" type="curve" smooth="yes"/>
      <point x="1118.5" y="351"/>
      <point x="1173.5" y="280"/>
    </contour>
    <contour>
      <point x="1024" y="1160" type="move" name="_top"/>
    </contour>
  </outline>
</glyph>
<glyph name="uni030F" format="1">
  <advance width="2048"/>
  <unicode hex="030F"/>
  <outline>
    <contour>
      <point x="468" y="1870" type="curve" smooth="yes"/>
      <point x="426" y="1870"/>
      <point x="384" y="1827"/>
      <point x="384" y="1786" type="curve" smooth="yes"/>
      <point x="384" y="1768"/>
      <point x="392" y="1753"/>
      <point x="410" y="1741" type="curve" smooth="yes"/>
      <point x="568" y="1642"/>
      <point x="745" y="1527"/>
      <point x="908" y="1434" type="curve" smooth="yes"/>
      <point x="915" y="1430"/>
      <point x="922" y="1427"/>
      <point x="927" y="1427" type="curve" smooth="yes"/>
      <point x="953" y="1427"/>
      <point x="976" y="1454"/>
      <point x="976" y="1479" type="curve" smooth="yes"/>
      <point x="976" y="1493"/>
      <point x="970" y="1502"/>
      <point x="959" y="1509" type="curve" smooth="yes"/>
      <point x="809" y="1609"/>
      <point x="645" y="1738"/>
      <point x="509" y="1855" type="curve" smooth="yes"/>
      <point x="498" y="1865"/>
      <point x="484" y="1870"/>
    </contour>
    <contour>
      <point x="93" y="1870" type="curve" smooth="yes"/>
      <point x="51" y="1870"/>
      <point x="9" y="1827"/>
      <point x="9" y="1786" type="curve" smooth="yes"/>
      <point x="9" y="1768"/>
      <point x="18" y="1753"/>
      <point x="36" y="1741" type="curve" smooth="yes"/>
      <point x="194" y="1642"/>
      <point x="370" y="1527"/>
      <point x="533" y="1434" type="curve" smooth="yes"/>
      <point x="540" y="1430"/>
      <point x="547" y="1427"/>
      <point x="552" y="1427" type="curve" smooth="yes"/>
      <point x="578" y="1427"/>
      <point x="601" y="1454"/>
      <point x="601" y="1479" type="curve" smooth="yes"/>
      <point x="601" y="1493"/>
      <point x="595" y="1502"/>
      <point x="584" y="1509" type="curve" smooth="yes"/>
      <point x="434" y="1609"/>
      <point x="270" y="1738"/>
      <point x="134" y="1855" type="curve" smooth="yes"/>
      <point x="123" y="1865"/>
      <point x="109" y="1870"/>
    </contour>
    <contour>
      <point x="492.5" y="1160" type="move" name="_top"/>
    </contour>
  </outline>
</glyph>
<glyph name="mu" format="1">
  <advance width="2048"/>
  <unicode hex="03BC"/>
  <outline>
    <contour>
      <point x="395" y="-502" type="curve" smooth="yes"/>
      <point x="343" y="-502"/>
      <point x="289" y="-454"/>
      <point x="289" y="-375" type="curve" smooth="yes"/>
      <point x="289" y="979" type="line"/>
      <point x="146" y="944" type="line" smooth="yes"/>
      <point x="143" y="943"/>
      <point x="139" y="942"/>
      <point x="132" y="942" type="curve" smooth="yes"/>
      <point x="92" y="942"/>
      <point x="50" y="981"/>
      <point x="50" y="1022" type="curve" smooth="yes"/>
      <point x="50" y="1065"/>
      <point x="69" y="1096"/>
      <point x="107" y="1106" type="curve" smooth="yes"/>
      <point x="427" y="1186" type="line" smooth="yes"/>
      <point x="431" y="1187"/>
      <point x="436" y="1188"/>
      <point x="443" y="1188" type="curve" smooth="yes"/>
      <point x="474" y="1188"/>
      <point x="494" y="1171"/>
      <point x="494" y="1139" type="curve" smooth="yes"/>
      <point x="494" y="401" type="line" smooth="yes"/>
      <point x="494" y="254"/>
      <point x="561" y="145"/>
      <point x="703" y="145" type="curve" smooth="yes"/>
      <point x="875" y="145"/>
      <point x="1026" y="236"/>
      <point x="1082" y="354" type="curve"/>
      <point x="1082" y="979" type="line"/>
      <point x="939" y="944" type="line" smooth="yes"/>
      <point x="936" y="943"/>
      <point x="931" y="942"/>
      <point x="924" y="942" type="curve" smooth="yes"/>
      <point x="884" y="942"/>
      <point x="842" y="981"/>
      <point x="842" y="1022" type="curve" smooth="yes"/>
      <point x="842" y="1065"/>
      <point x="862" y="1096"/>
      <point x="900" y="1106" type="curve" smooth="yes"/>
      <point x="1219" y="1186" type="line" smooth="yes"/>
      <point x="1223" y="1187"/>
      <point x="1229" y="1188"/>
      <point x="1236" y="1188" type="curve" smooth="yes"/>
      <point x="1267" y="1188"/>
      <point x="1287" y="1171"/>
      <point x="1287" y="1139" type="curve" smooth="yes"/>
      <point x="1287" y="190" type="line"/>
      <point x="1438" y="190" type="line" smooth="yes"/>
      <point x="1483" y="190"/>
      <point x="1508" y="154"/>
      <point x="1508" y="109" type="curve" smooth="yes"/>
      <point x="1508" y="66"/>
      <point x="1489" y="35"/>
      <point x="1451" y="25" type="curve"/>
      <point x="1178" y="-4" type="line"/>
      <point x="1139" y="-4"/>
      <point x="1117" y="18"/>
      <point x="1107" y="84" type="curve" smooth="yes"/>
      <point x="1092" y="182" type="line"/>
      <point x="1014" y="67"/>
      <point x="840" y="-25"/>
      <point x="666" y="-25" type="curve" smooth="yes"/>
      <point x="584" y="-25"/>
      <point x="494" y="25"/>
      <point x="447" y="100" type="curve"/>
      <point x="463" y="-44"/>
      <point x="486" y="-227"/>
      <point x="486" y="-371" type="curve" smooth="yes"/>
      <point x="486" y="-463"/>
      <point x="442" y="-502"/>
    </contour>
  </outline>
</glyph>
<glyph name="quotedblbase" format="1">
  <advance width="2048"/>
  <unicode hex="201E"/>
  <outline>
    <contour>
      <point x="1020" y="82" type="curve" smooth="yes"/>
      <point x="1020" y="-129"/>
      <point x="897" y="-263"/>
      <point x="746" y="-339" type="curve" smooth="yes"/>
      <point x="730" y="-348"/>
      <point x="713" y="-352"/>
      <point x="699" y="-352" type="curve" smooth="yes"/>
      <point x="656" y="-352"/>
      <point x="624" y="-319"/>
      <point x="624" y="-284" type="curve" smooth="yes"/>
      <point x="624" y="-266"/>
      <point x="633" y="-247"/>
      <point x="655" y="-232" type="curve" smooth="yes"/>
      <point x="732" y="-181"/>
      <point x="833" y="-115"/>
      <point x="833" y="-1" type="curve"/>
      <point x="725" y="-1"/>
      <point x="645" y="47"/>
      <point x="645" y="149" type="curve" smooth="yes"/>
      <point x="645" y="252"/>
      <point x="727" y="304"/>
      <point x="815" y="304" type="curve" smooth="yes"/>
      <point x="925" y="304"/>
      <point x="1020" y="230"/>
    </contour>
    <contour>
      <point x="353" y="304" type="curve" smooth="yes"/>
      <point x="463" y="304"/>
      <point x="558" y="230"/>
      <point x="558" y="82" type="curve" smooth="yes"/>
      <point x="558" y="-129"/>
      <point x="435" y="-263"/>
      <point x="284" y="-339" type="curve" smooth="yes"/>
      <point x="268" y="-348"/>
      <point x="251" y="-352"/>
      <point x="237" y="-352" type="curve" smooth="yes"/>
      <point x="194" y="-352"/>
      <point x="162" y="-319"/>
      <point x="162" y="-284" type="curve" smooth="yes"/>
      <point x="162" y="-266"/>
      <point x="171" y="-247"/>
      <point x="193" y="-232" type="curve" smooth="yes"/>
      <point x="270" y="-181"/>
      <point x="371" y="-115"/>
      <point x="371" y="-1" type="curve"/>
      <point x="263" y="-1"/>
      <point x="183" y="47"/>
      <point x="183" y="149" type="curve" smooth="yes"/>
      <point x="183" y="252"/>
      <point x="265" y="304"/>
    </contour>
  </outline>
</glyph>
<glyph name="dagger" format="1">
  <advance width="2048"/>
  <unicode hex="2020"/>
  <outline>
    <contour>
      <point x="1429" y="1255" type="line" smooth="yes"/>
      <point x="1473" y="1255"/>
      <point x="1509" y="1219"/>
      <point x="1509" y="1175" type="curve" smooth="yes"/>
      <point x="1509" y="1131"/>
      <point x="1473" y="1094"/>
      <point x="1429" y="1094" type="curve" smooth="yes"/>
      <point x="1101" y="1094" type="line"/>
      <point x="1101" y="-98" type="line" smooth="yes"/>
      <point x="1101" y="-140"/>
      <point x="1053" y="-164"/>
      <point x="1013" y="-164" type="curve" smooth="yes"/>
      <point x="961" y="-164"/>
      <point x="925" y="-142"/>
      <point x="925" y="-82" type="curve" smooth="yes"/>
      <point x="925" y="1094" type="line"/>
      <point x="619" y="1094" type="line" smooth="yes"/>
      <point x="575" y="1094"/>
      <point x="539" y="1131"/>
      <point x="539" y="1175" type="curve" smooth="yes"/>
      <point x="539" y="1219"/>
      <point x="575" y="1255"/>
      <point x="619" y="1255" type="curve" smooth="yes"/>
      <point x="925" y="1255" type="line"/>
      <point x="925" y="1769" type="line" smooth="yes"/>
      <point x="925" y="1817"/>
      <point x="969" y="1841"/>
      <point x="1015" y="1841" type="curve" smooth="yes"/>
      <point x="1064" y="1841"/>
      <point x="1096" y="1815"/>
      <point x="1101" y="1769" type="curve"/>
      <point x="1101" y="1255" type="line"/>
    </contour>
  </outline>
</glyph>
<glyph name="bullet" format="1">
  <advance width="2048"/>
  <unicode hex="2022"/>
  <outline>
    <contour>
      <point x="1029.5" y="289" type="curve" smooth="yes"/>
      <point x="812.5" y="289"/>
      <point x="671.5" y="427"/>
      <point x="671.5" y="643" type="curve" smooth="yes"/>
      <point x="671.5" y="860"/>
      <point x="813.5" y="997"/>
      <point x="1029.5" y="997" type="curve" smooth="yes"/>
      <point x="1239.5" y="997"/>
      <point x="1376.5" y="853"/>
      <point x="1376.5" y="643" type="curve" smooth="yes"/>
      <point x="1376.5" y="432"/>
      <point x="1238.5" y="289"/>
    </contour>
  </outline>
</glyph>
<glyph name="guilsinglleft" format="1">
  <advance width="2048"/>
  <unicode hex="2039"/>
  <outline>
    <contour>
      <point x="1006" y="293" type="curve" smooth="yes"/>
      <point x="133" y="696" type="line"/>
      <point x="91" y="714"/>
      <point x="67" y="743"/>
      <point x="67" y="775" type="curve" smooth="yes"/>
      <point x="67" y="808"/>
      <point x="91" y="837"/>
      <point x="133" y="857" type="curve" smooth="yes"/>
      <point x="993" y="1260" type="line" smooth="yes"/>
      <point x="1008" y="1267"/>
      <point x="1024" y="1268"/>
      <point x="1036" y="1268" type="curve" smooth="yes"/>
      <point x="1095" y="1268"/>
      <point x="1133" y="1220"/>
      <point x="1133" y="1171" type="curve" smooth="yes"/>
      <point x="1133" y="1132"/>
      <point x="1108" y="1097"/>
      <point x="1060" y="1076" type="curve" smooth="yes"/>
      <point x="393" y="770" type="line"/>
      <point x="1060" y="464" type="line" smooth="yes"/>
      <point x="1108" y="441"/>
      <point x="1135" y="412"/>
      <point x="1135" y="376" type="curve" smooth="yes"/>
      <point x="1135" y="329"/>
      <point x="1102" y="285"/>
      <point x="1050" y="285" type="curve" smooth="yes"/>
      <point x="1037" y="285"/>
      <point x="1022" y="286"/>
    </contour>
  </outline>
</glyph>
<glyph name="Euro" format="1">
  <advance width="2048"/>
  <unicode hex="20AC"/>
  <outline>
    <contour>
      <point x="1952" y="539" type="line"/>
      <point x="1932" y="257"/>
      <point x="1684" y="-25"/>
      <point x="1235" y="-25" type="curve" smooth="yes"/>
      <point x="817" y="-25"/>
      <point x="516" y="204"/>
      <point x="424" y="600" type="curve"/>
      <point x="233" y="600" type="line" smooth="yes"/>
      <point x="174" y="600"/>
      <point x="144" y="637"/>
      <point x="144" y="674" type="curve" smooth="yes"/>
      <point x="144" y="711"/>
      <point x="174" y="748"/>
      <point x="233" y="748" type="curve" smooth="yes"/>
      <point x="400" y="748" type="line"/>
      <point x="397" y="787"/>
      <point x="395" y="827"/>
      <point x="395" y="869" type="curve" smooth="yes"/>
      <point x="395" y="896"/>
      <point x="396" y="923"/>
      <point x="398" y="950" type="curve"/>
      <point x="233" y="950" type="line" smooth="yes"/>
      <point x="174" y="950"/>
      <point x="144" y="988"/>
      <point x="144" y="1025" type="curve" smooth="yes"/>
      <point x="144" y="1063"/>
      <point x="174" y="1100"/>
      <point x="233" y="1100" type="curve" smooth="yes"/>
      <point x="420" y="1100" type="line"/>
      <point x="508" y="1484"/>
      <point x="819" y="1739"/>
      <point x="1254" y="1739" type="curve" smooth="yes"/>
      <point x="1472" y="1739"/>
      <point x="1621" y="1661"/>
      <point x="1741" y="1538" type="curve"/>
      <point x="1741" y="1642" type="line" smooth="yes"/>
      <point x="1741" y="1693"/>
      <point x="1783" y="1714"/>
      <point x="1833" y="1714" type="curve" smooth="yes"/>
      <point x="1877" y="1714"/>
      <point x="1917" y="1687"/>
      <point x="1917" y="1640" type="curve" smooth="yes"/>
      <point x="1917" y="1266" type="line" smooth="yes"/>
      <point x="1917" y="1219"/>
      <point x="1877" y="1192"/>
      <point x="1833" y="1192" type="curve" smooth="yes"/>
      <point x="1788" y="1192"/>
      <point x="1773" y="1236"/>
      <point x="1749" y="1270" type="curve"/>
      <point x="1651" y="1431"/>
      <point x="1505" y="1550"/>
      <point x="1254" y="1550" type="curve" smooth="yes"/>
      <point x="938" y="1550"/>
      <point x="710" y="1371"/>
      <point x="631" y="1100" type="curve"/>
      <point x="997" y="1100" type="line" smooth="yes"/>
      <point x="1055" y="1100"/>
      <point x="1084" y="1063"/>
      <point x="1084" y="1025" type="curve" smooth="yes"/>
      <point x="1084" y="988"/>
      <point x="1055" y="950"/>
      <point x="997" y="950" type="curve" smooth="yes"/>
      <point x="603" y="950" type="line"/>
      <point x="601" y="926"/>
      <point x="600" y="902"/>
      <point x="600" y="878" type="curve" smooth="yes"/>
      <point x="600" y="833"/>
      <point x="603" y="789"/>
      <point x="608" y="748" type="curve"/>
      <point x="997" y="748" type="line" smooth="yes"/>
      <point x="1055" y="748"/>
      <point x="1084" y="711"/>
      <point x="1084" y="674" type="curve" smooth="yes"/>
      <point x="1084" y="637"/>
      <point x="1055" y="600"/>
      <point x="997" y="600" type="curve" smooth="yes"/>
      <point x="639" y="600" type="line"/>
      <point x="724" y="329"/>
      <point x="942" y="171"/>
      <point x="1254" y="171" type="curve" smooth="yes"/>
      <point x="1537" y="171"/>
      <point x="1705" y="326"/>
      <point x="1764" y="560" type="curve" smooth="yes"/>
      <point x="1775" y="607"/>
      <point x="1817" y="630"/>
      <point x="1859" y="630" type="curve" smooth="yes"/>
      <point x="1906" y="630"/>
      <point x="1952" y="601"/>
      <point x="1952" y="546" type="curve" smooth="yes"/>
    </contour>
  </outline>
</glyph>
<glyph name="uni2206" format="1">
  <advance width="2048"/>
  <unicode hex="2206"/>
  <outline>
    <contour>
      <point x="1054" y="485" type="curve" smooth="yes"/>
      <point x="280" y="487" type="line" smooth="yes"/>
      <point x="230" y="487"/>
      <point x="184" y="526"/>
      <point x="184" y="577" type="curve" smooth="yes"/>
      <point x="184" y="588"/>
      <point x="187" y="602"/>
      <point x="194" y="618" type="curve" smooth="yes"/>
      <point x="546" y="1411" type="line" smooth="yes"/>
      <point x="568.317" y="1461.28"/>
      <point x="604" y="1511"/>
      <point x="661" y="1511" type="curve" smooth="yes"/>
      <point x="714" y="1511"/>
      <point x="749.024" y="1461.9"/>
      <point x="767" y="1419" type="curve" smooth="yes"/>
      <point x="1116" y="586" type="line" smooth="yes"/>
      <point x="1121" y="575"/>
      <point x="1124" y="563"/>
      <point x="1124" y="551" type="curve" smooth="yes"/>
      <point x="1124" y="514"/>
      <point x="1090" y="485"/>
    </contour>
    <contour>
      <point x="979.457" y="592.994" type="line"/>
      <point x="683" y="1336" type="line"/>
      <point x="360" y="594" type="line"/>
    </contour>
  </outline>
</glyph>
<glyph name="minus" format="1">
  <advance width="2048"/>
  <unicode hex="2212"/>
  <outline>
    <contour>
      <point x="551" y="715" type="curve" smooth="yes"/>
      <point x="551" y="770"/>
      <point x="597" y="817"/>
      <point x="653" y="817" type="curve" smooth="yes"/>
      <point x="1395" y="817" type="line" smooth="yes"/>
      <point x="1451" y="817"/>
      <point x="1497" y="770"/>
      <point x="1497" y="715" type="curve" smooth="yes"/>
      <point x="1497" y="658"/>
      <point x="1452" y="612"/>
      <point x="1395" y="612" type="curve" smooth="yes"/>
      <point x="653" y="612" type="line" smooth="yes"/>
      <point x="596" y="612"/>
      <point x="551" y="658"/>
    </contour>
  </outline>
</glyph>
<glyph name="uniFB02" format="1">
  <advance width="2048"/>
  <unicode hex="FB02"/>
  <outline>
    <contour>
      <point x="1554" y="1739" type="line" smooth="yes"/>
      <point x="1583" y="1739"/>
      <point x="1607" y="1720"/>
      <point x="1607" y="1690" type="curve" smooth="yes"/>
      <point x="1607" y="176" type="line"/>
      <point x="1851" y="176" type="line" smooth="yes"/>
      <point x="1902" y="176"/>
      <point x="1923" y="134"/>
      <point x="1923" y="84" type="curve" smooth="yes"/>
      <point x="1923" y="40"/>
      <point x="1896" y="0"/>
      <point x="1849" y="0" type="curve" smooth="yes"/>
      <point x="1182" y="0" type="line" smooth="yes"/>
      <point x="1126" y="0"/>
      <point x="1100" y="35"/>
      <point x="1100" y="86" type="curve" smooth="yes"/>
      <point x="1100" y="135"/>
      <point x="1123" y="176"/>
      <point x="1175" y="176" type="curve" smooth="yes"/>
      <point x="1403" y="176" type="line"/>
      <point x="1403" y="1556" type="line"/>
      <point x="815" y="1556" type="line" smooth="yes"/>
      <point x="607" y="1556"/>
      <point x="565" y="1432"/>
      <point x="565" y="1191" type="curve" smooth="yes"/>
      <point x="565" y="1122" type="line"/>
      <point x="835" y="1122" type="line" smooth="yes"/>
      <point x="886" y="1122"/>
      <point x="907" y="1080"/>
      <point x="907" y="1030" type="curve" smooth="yes"/>
      <point x="907" y="986"/>
      <point x="880" y="946"/>
      <point x="833" y="946" type="curve" smooth="yes"/>
      <point x="563" y="946" type="line"/>
      <point x="563" y="176" type="line"/>
      <point x="817" y="176" type="line" smooth="yes"/>
      <point x="868" y="176"/>
      <point x="889" y="134"/>
      <point x="889" y="84" type="curve" smooth="yes"/>
      <point x="889" y="40"/>
      <point x="862" y="0"/>
      <point x="815" y="0" type="curve" smooth="yes"/>
      <point x="145" y="0" type="line" smooth="yes"/>
      <point x="89" y="0"/>
      <point x="63" y="35"/>
      <point x="63" y="86" type="curve" smooth="yes"/>
      <point x="63" y="135"/>
      <point x="87" y="176"/>
      <point x="139" y="176" type="curve" smooth="yes"/>
      <point x="360" y="176" type="line"/>
      <point x="360" y="946" type="line"/>
      <point x="182" y="946" type="line" smooth="yes"/>
      <point x="126" y="946"/>
      <point x="100" y="981"/>
      <point x="100" y="1032" type="curve" smooth="yes"/>
      <point x="100" y="1081"/>
      <point x="124" y="1122"/>
      <point x="176" y="1122" type="curve" smooth="yes"/>
      <point x="360" y="1122" type="line"/>
      <point x="360" y="1227" type="line" smooth="yes"/>
      <point x="360" y="1580"/>
      <point x="569" y="1739"/>
      <point x="928" y="1739" type="curve" smooth="yes"/>
    </contour>
  </outline>
</glyph>
<glyph name="ct" format="1">
  <advance width="2048"/>
  <outline>
    <contour>
      <point x="1772" y="134" type="curve" smooth="yes"/>
      <point x="1901" y="134"/>
      <point x="1905" y="242"/>
      <point x="1981" y="242" type="curve" smooth="yes"/>
      <point x="2023" y="242"/>
      <point x="2053" y="208"/>
      <point x="2053" y="166" type="curve" smooth="yes"/>
      <point x="2053" y="47"/>
      <point x="1873" y="-27"/>
      <point x="1738" y="-27" type="curve" smooth="yes"/>
      <point x="1581" y="-27"/>
      <point x="1445" y="100"/>
      <point x="1445" y="248" type="curve" smooth="yes"/>
      <point x="1445" y="956" type="line"/>
      <point x="1295" y="956" type="line" smooth="yes"/>
      <point x="1239" y="956"/>
      <point x="1213" y="991"/>
      <point x="1213" y="1042" type="curve" smooth="yes"/>
      <point x="1213" y="1091"/>
      <point x="1237" y="1133"/>
      <point x="1289" y="1133" type="curve" smooth="yes"/>
      <point x="1445" y="1133" type="line"/>
      <point x="1445" y="1255"/>
      <point x="1448" y="1528"/>
      <point x="1563" y="1528" type="curve" smooth="yes"/>
      <point x="1596" y="1528"/>
      <point x="1619" y="1520"/>
      <point x="1643" y="1503" type="curve"/>
      <point x="1643" y="1483" type="line" smooth="yes"/>
      <point x="1643" y="1465"/>
      <point x="1645" y="1442"/>
      <point x="1645" y="1424" type="curve" smooth="yes"/>
      <point x="1645" y="1133" type="line"/>
      <point x="1907" y="1133" type="line" smooth="yes"/>
      <point x="1958" y="1133"/>
      <point x="1979" y="1090"/>
      <point x="1979" y="1040" type="curve" smooth="yes"/>
      <point x="1979" y="996"/>
      <point x="1952" y="956"/>
      <point x="1905" y="956" type="curve" smooth="yes"/>
      <point x="1645" y="956" type="line"/>
      <point x="1645" y="279" type="line" smooth="yes"/>
      <point x="1645" y="174"/>
      <point x="1698" y="134"/>
    </contour>
    <contour>
      <point x="762" y="1188" type="curve" smooth="yes"/>
      <point x="965" y="1188"/>
      <point x="1192" y="1128"/>
      <point x="1192" y="878" type="curve" smooth="yes"/>
      <point x="1192" y="799"/>
      <point x="1163" y="738"/>
      <point x="1095" y="738" type="curve" smooth="yes"/>
      <point x="995" y="738"/>
      <point x="985" y="886"/>
      <point x="959" y="993" type="curve"/>
      <point x="894" y="1010"/>
      <point x="830" y="1018"/>
      <point x="769" y="1018" type="curve" smooth="yes"/>
      <point x="511" y="1018"/>
      <point x="316" y="860"/>
      <point x="316" y="596" type="curve" smooth="yes"/>
      <point x="316" y="310"/>
      <point x="515" y="174"/>
      <point x="734" y="174" type="curve" smooth="yes"/>
      <point x="848" y="174"/>
      <point x="967" y="217"/>
      <point x="1062" y="302" type="curve" smooth="yes"/>
      <point x="1081" y="318"/>
      <point x="1102" y="328"/>
      <point x="1125" y="328" type="curve" smooth="yes"/>
      <point x="1180" y="328"/>
      <point x="1221" y="299"/>
      <point x="1221" y="250" type="curve" smooth="yes"/>
      <point x="1221" y="78"/>
      <point x="921" y="-25"/>
      <point x="746" y="-25" type="curve" smooth="yes"/>
      <point x="362" y="-25"/>
      <point x="94" y="207"/>
      <point x="94" y="596" type="curve" smooth="yes"/>
      <point x="94" y="977"/>
      <point x="401" y="1188"/>
    </contour>
  </outline>
</glyph>
<glyph name="uniFB03" format="1">
  <advance width="2048"/>
  <outline>
    <contour>
      <point x="2399" y="1427" type="curve" smooth="yes"/>
      <point x="2315" y="1427"/>
      <point x="2247" y="1495"/>
      <point x="2247" y="1579" type="curve" smooth="yes"/>
      <point x="2247" y="1663"/>
      <point x="2315" y="1731"/>
      <point x="2399" y="1731" type="curve" smooth="yes"/>
      <point x="2483" y="1731"/>
      <point x="2550" y="1663"/>
      <point x="2550" y="1579" type="curve" smooth="yes"/>
      <point x="2550" y="1495"/>
      <point x="2483" y="1427"/>
    </contour>
    <contour>
      <point x="2091" y="86" type="curve" smooth="yes"/>
      <point x="2091" y="135"/>
      <point x="2115" y="176"/>
      <point x="2167" y="176" type="curve" smooth="yes"/>
      <point x="2304" y="176" type="line"/>
      <point x="2304" y="946" type="line"/>
      <point x="1524" y="946" type="line"/>
      <point x="1526" y="176" type="line"/>
      <point x="1778" y="176" type="line" smooth="yes"/>
      <point x="1829" y="176"/>
      <point x="1850" y="134"/>
      <point x="1850" y="84" type="curve" smooth="yes"/>
      <point x="1850" y="40"/>
      <point x="1823" y="0"/>
      <point x="1776" y="0" type="curve" smooth="yes"/>
      <point x="1106" y="0" type="line" smooth="yes"/>
      <point x="1050" y="0"/>
      <point x="1024" y="35"/>
      <point x="1024" y="86" type="curve" smooth="yes"/>
      <point x="1024" y="135"/>
      <point x="1048" y="176"/>
      <point x="1100" y="176" type="curve" smooth="yes"/>
      <point x="1321" y="176" type="line"/>
      <point x="1321" y="946" type="line"/>
      <point x="564" y="946" type="line"/>
      <point x="564" y="176" type="line"/>
      <point x="817" y="176" type="line" smooth="yes"/>
      <point x="868" y="176"/>
      <point x="889" y="134"/>
      <point x="889" y="84" type="curve" smooth="yes"/>
      <point x="889" y="40"/>
      <point x="862" y="0"/>
      <point x="815" y="0" type="curve" smooth="yes"/>
      <point x="145" y="0" type="line" smooth="yes"/>
      <point x="89" y="0"/>
      <point x="63" y="35"/>
      <point x="63" y="86" type="curve" smooth="yes"/>
      <point x="63" y="135"/>
      <point x="87" y="176"/>
      <point x="139" y="176" type="curve" smooth="yes"/>
      <point x="360" y="176" type="line"/>
      <point x="360" y="946" type="line"/>
      <point x="182" y="946" type="line" smooth="yes"/>
      <point x="126" y="946"/>
      <point x="100" y="981"/>
      <point x="100" y="1032" type="curve" smooth="yes"/>
      <point x="100" y="1081"/>
      <point x="124" y="1122"/>
      <point x="176" y="1122" type="curve" smooth="yes"/>
      <point x="360" y="1122" type="line"/>
      <point x="360" y="1227" type="line" smooth="yes"/>
      <point x="360" y="1580"/>
      <point x="569" y="1739"/>
      <point x="928" y="1739" type="curve" smooth="yes"/>
      <point x="972" y="1739"/>
      <point x="1012" y="1712"/>
      <point x="1012" y="1665" type="curve" smooth="yes"/>
      <point x="1012" y="1493" type="line" smooth="yes"/>
      <point x="1012" y="1437"/>
      <point x="977" y="1411"/>
      <point x="926" y="1411" type="curve" smooth="yes"/>
      <point x="877" y="1411"/>
      <point x="835" y="1435"/>
      <point x="835" y="1487" type="curve" smooth="yes"/>
      <point x="835" y="1556" type="line"/>
      <point x="609" y="1536"/>
      <point x="564" y="1439"/>
      <point x="564" y="1191" type="curve" smooth="yes"/>
      <point x="564" y="1122" type="line"/>
      <point x="1321" y="1122" type="line"/>
      <point x="1321" y="1227" type="line" smooth="yes"/>
      <point x="1321" y="1580"/>
      <point x="1530" y="1739"/>
      <point x="1889" y="1739" type="curve" smooth="yes"/>
      <point x="1933" y="1739"/>
      <point x="1973" y="1712"/>
      <point x="1973" y="1665" type="curve" smooth="yes"/>
      <point x="1973" y="1493" type="line" smooth="yes"/>
      <point x="1973" y="1437"/>
      <point x="1938" y="1411"/>
      <point x="1887" y="1411" type="curve" smooth="yes"/>
      <point x="1838" y="1411"/>
      <point x="1796" y="1435"/>
      <point x="1796" y="1487" type="curve" smooth="yes"/>
      <point x="1796" y="1556" type="line"/>
      <point x="1624" y="1541"/>
      <point x="1522" y="1475"/>
      <point x="1522" y="1284" type="curve"/>
      <point x="1526" y="1122" type="line"/>
      <point x="2458" y="1122" type="line" smooth="yes"/>
      <point x="2489" y="1122"/>
      <point x="2509" y="1105"/>
      <point x="2509" y="1075" type="curve" smooth="yes"/>
      <point x="2509" y="176" type="line"/>
      <point x="2663" y="176" type="line" smooth="yes"/>
      <point x="2714" y="176"/>
      <point x="2734" y="134"/>
      <point x="2734" y="84" type="curve" smooth="yes"/>
      <point x="2734" y="40"/>
      <point x="2708" y="0"/>
      <point x="2661" y="0" type="curve" smooth="yes"/>
      <point x="2173" y="0" type="line" smooth="yes"/>
      <point x="2117" y="0"/>
      <point x="2091" y="35"/>
    </contour>
  </outline>
</glyph>
<glyph name="uniFB04" format="1">
  <advance width="2048"/>
  <outline>
    <contour>
      <point x="2238" y="1739" type="line" smooth="yes"/>
      <point x="2267" y="1739"/>
      <point x="2291" y="1720"/>
      <point x="2291" y="1690" type="curve" smooth="yes"/>
      <point x="2291" y="176" type="line"/>
      <point x="2483" y="176" type="line" smooth="yes"/>
      <point x="2534" y="176"/>
      <point x="2555" y="134"/>
      <point x="2555" y="84" type="curve" smooth="yes"/>
      <point x="2555" y="40"/>
      <point x="2528" y="0"/>
      <point x="2481" y="0" type="curve" smooth="yes"/>
      <point x="1914" y="0" type="line" smooth="yes"/>
      <point x="1858" y="0"/>
      <point x="1832" y="35"/>
      <point x="1832" y="86" type="curve" smooth="yes"/>
      <point x="1832" y="135"/>
      <point x="1855" y="176"/>
      <point x="1907" y="176" type="curve" smooth="yes"/>
      <point x="2087" y="176" type="line"/>
      <point x="2087" y="1556" type="line"/>
      <point x="1643" y="1556" type="line" smooth="yes"/>
      <point x="1435" y="1556"/>
      <point x="1393" y="1432"/>
      <point x="1393" y="1191" type="curve" smooth="yes"/>
      <point x="1393" y="1122" type="line"/>
      <point x="1663" y="1122" type="line" smooth="yes"/>
      <point x="1714" y="1122"/>
      <point x="1735" y="1080"/>
      <point x="1735" y="1030" type="curve" smooth="yes"/>
      <point x="1735" y="986"/>
      <point x="1708" y="946"/>
      <point x="1661" y="946" type="curve" smooth="yes"/>
      <point x="1391" y="946" type="line"/>
      <point x="1391" y="176" type="line"/>
      <point x="1609" y="176" type="line" smooth="yes"/>
      <point x="1660" y="176"/>
      <point x="1681" y="134"/>
      <point x="1681" y="84" type="curve" smooth="yes"/>
      <point x="1681" y="40"/>
      <point x="1654" y="0"/>
      <point x="1607" y="0" type="curve" smooth="yes"/>
      <point x="1063" y="0" type="line" smooth="yes"/>
      <point x="1007" y="0"/>
      <point x="981" y="35"/>
      <point x="981" y="86" type="curve" smooth="yes"/>
      <point x="981" y="135"/>
      <point x="1005" y="176"/>
      <point x="1057" y="176" type="curve" smooth="yes"/>
      <point x="1188" y="176" type="line"/>
      <point x="1188" y="946" type="line"/>
      <point x="564" y="946" type="line"/>
      <point x="564" y="176" type="line"/>
      <point x="717" y="176" type="line" smooth="yes"/>
      <point x="768" y="176"/>
      <point x="789" y="134"/>
      <point x="789" y="84" type="curve" smooth="yes"/>
      <point x="789" y="40"/>
      <point x="762" y="0"/>
      <point x="715" y="0" type="curve" smooth="yes"/>
      <point x="145" y="0" type="line" smooth="yes"/>
      <point x="89" y="0"/>
      <point x="63" y="35"/>
      <point x="63" y="86" type="curve" smooth="yes"/>
      <point x="63" y="135"/>
      <point x="87" y="176"/>
      <point x="139" y="176" type="curve" smooth="yes"/>
      <point x="360" y="176" type="line"/>
      <point x="360" y="946" type="line"/>
      <point x="182" y="946" type="line" smooth="yes"/>
      <point x="126" y="946"/>
      <point x="100" y="981"/>
      <point x="100" y="1032" type="curve" smooth="yes"/>
      <point x="100" y="1081"/>
      <point x="124" y="1122"/>
      <point x="176" y="1122" type="curve" smooth="yes"/>
      <point x="360" y="1122" type="line"/>
      <point x="360" y="1227" type="line" smooth="yes"/>
      <point x="360" y="1580"/>
      <point x="591" y="1739"/>
      <point x="987" y="1739" type="curve" smooth="yes"/>
      <point x="1031" y="1739"/>
      <point x="1071" y="1712"/>
      <point x="1071" y="1665" type="curve" smooth="yes"/>
      <point x="1071" y="1493" type="line" smooth="yes"/>
      <point x="1071" y="1437"/>
      <point x="1036" y="1411"/>
      <point x="985" y="1411" type="curve" smooth="yes"/>
      <point x="936" y="1411"/>
      <point x="894" y="1435"/>
      <point x="894" y="1487" type="curve" smooth="yes"/>
      <point x="894" y="1556" type="line"/>
      <point x="619" y="1536"/>
      <point x="564" y="1439"/>
      <point x="564" y="1191" type="curve" smooth="yes"/>
      <point x="564" y="1122" type="line"/>
      <point x="1188" y="1122" type="line"/>
      <point x="1188" y="1227" type="line" smooth="yes"/>
      <point x="1188" y="1580"/>
      <point x="1397" y="1739"/>
      <point x="1756" y="1739" type="curve" smooth="yes"/>
    </contour>
  </outline>
</glyph>
